<svg width="60" height="60" viewBox="0 0 60 60" fill="none" xmlns="http://www.w3.org/2000/svg">
<rect width="60" height="60" rx="8" fill="#EAFBFF"/>
<path d="M31.15 17.825L39.2875 22.2125C40.2375 22.725 40.2375 24.1875 39.2875 24.7L31.15 29.0875C30.425 29.475 29.575 29.475 28.85 29.0875L20.7125 24.7C19.7625 24.1875 19.7625 22.725 20.7125 22.2125L28.85 17.825C29.575 17.4375 30.425 17.4375 31.15 17.825Z" stroke="#05428E" stroke-width="1.5" stroke-linecap="round" stroke-linejoin="round"/>
<path d="M19.5125 27.6626L27.075 31.4501C28.0125 31.9251 28.6125 32.8876 28.6125 33.9376V41.0876C28.6125 42.1251 27.525 42.7876 26.6 42.3251L19.0375 38.5376C18.1 38.0626 17.5 37.1001 17.5 36.0501V28.9001C17.5 27.8626 18.5875 27.2001 19.5125 27.6626Z" stroke="#05428E" stroke-width="1.5" stroke-linecap="round" stroke-linejoin="round"/>
<path d="M40.4873 27.6626L32.9248 31.4501C31.9873 31.9251 31.3873 32.8876 31.3873 33.9376V41.0876C31.3873 42.1251 32.4748 42.7876 33.3998 42.3251L40.9623 38.5376C41.8998 38.0626 42.4998 37.1001 42.4998 36.0501V28.9001C42.4998 27.8626 41.4123 27.2001 40.4873 27.6626Z" stroke="#05428E" stroke-width="1.5" stroke-linecap="round" stroke-linejoin="round"/>
</svg>
