<svg width="434" height="286" viewBox="0 0 434 286" fill="none" xmlns="http://www.w3.org/2000/svg">
<g filter="url(#filter0_d_1_918)">
<rect x="16" y="20.7605" width="60.6061" height="227.376" rx="4" fill="#0A66C2"/>
</g>
<g filter="url(#filter1_d_1_918)">
<rect x="16" y="254.068" width="60.6061" height="5.93156" rx="2.96578" fill="#0A66C2"/>
</g>
<g filter="url(#filter2_d_1_918)">
<rect x="100.848" y="254.068" width="60.6061" height="5.93156" rx="2.96578" fill="#0077B5"/>
</g>
<g filter="url(#filter3_d_1_918)">
<rect x="185.697" y="254.068" width="60.6061" height="5.93156" rx="2.96578" fill="#E4405F"/>
</g>
<g filter="url(#filter4_d_1_918)">
<rect x="270.545" y="254.068" width="60.6061" height="5.93156" rx="2.96578" fill="#EA4C89"/>
</g>
<g filter="url(#filter5_d_1_918)">
<rect x="355.395" y="254.068" width="60.6061" height="5.93156" rx="2.96578" fill="#F57D00"/>
</g>
<g filter="url(#filter6_d_1_918)">
<rect x="100.848" y="59.3156" width="60.6061" height="188.821" rx="4" fill="#0077B5"/>
</g>
<g filter="url(#filter7_d_1_918)">
<rect x="185.697" y="95.8936" width="60.6061" height="152.243" rx="4" fill="#E4405F"/>
</g>
<g filter="url(#filter8_d_1_918)">
<rect x="270.545" y="150.266" width="60.6061" height="97.8707" rx="4" fill="#EA4C89"/>
</g>
<g filter="url(#filter9_d_1_918)">
<rect x="355.395" y="201.673" width="60.6061" height="46.4639" rx="4" fill="#F57D00"/>
</g>
<path d="M383.91 193.913H382.819V186.687L380.633 187.49V186.504L383.738 185.34H383.91V193.913ZM389.323 189.885L390.726 187.573H391.994L389.918 190.709L392.057 193.913H390.805L389.338 191.539L387.878 193.913H386.615L388.754 190.709L386.678 187.573H387.935L389.323 189.885Z" fill="#868686"/>
<path d="M300.075 142.506H294.487V141.728L297.44 138.447C297.878 137.949 298.179 137.546 298.343 137.236C298.51 136.927 298.593 136.605 298.593 136.271C298.593 135.826 298.457 135.461 298.186 135.175C297.918 134.89 297.56 134.747 297.111 134.747C296.572 134.747 296.153 134.901 295.854 135.207C295.555 135.513 295.405 135.941 295.405 136.49H294.32C294.32 135.704 294.572 135.069 295.076 134.586C295.584 134.099 296.263 133.855 297.111 133.855C297.904 133.855 298.53 134.064 298.99 134.481C299.452 134.899 299.683 135.452 299.683 136.141C299.683 136.982 299.148 137.982 298.076 139.141L295.791 141.619H300.075V142.506ZM303.463 138.478L304.867 136.167H306.135L304.058 139.302L306.197 142.506H304.945L303.479 140.132L302.018 142.506H300.756L302.895 139.302L300.818 136.167H302.076L303.463 138.478Z" fill="#868686"/>
<path d="M212.154 83.8548L212.587 79.6026H216.96V80.6044H213.511L213.25 82.9313C213.671 82.6844 214.146 82.5609 214.674 82.5609C215.454 82.5609 216.071 82.8183 216.527 83.3331C216.986 83.8444 217.215 84.5383 217.215 85.4148C217.215 86.2948 216.977 86.987 216.501 87.4913C216.027 87.9957 215.365 88.2478 214.513 88.2478C213.758 88.2478 213.142 88.0391 212.666 87.6218C212.189 87.2044 211.918 86.627 211.852 85.8896H212.874C212.944 86.3765 213.118 86.7452 213.396 86.9957C213.678 87.2426 214.05 87.3661 214.513 87.3661C215.017 87.3661 215.412 87.1939 215.697 86.8496C215.986 86.5052 216.13 86.0304 216.13 85.4252C216.13 84.8548 215.974 84.3974 215.661 84.0531C215.351 83.7052 214.939 83.5313 214.424 83.5313C213.951 83.5313 213.581 83.6357 213.313 83.8444L213.026 84.0791L212.154 83.8548ZM220.635 84.1052L222.039 81.7939H223.307L221.23 84.9296L223.369 88.1331H222.117L220.651 85.7591L219.19 88.1331H217.927L220.067 84.9296L217.99 81.7939H219.248L220.635 84.1052Z" fill="#868686"/>
<path d="M125.324 51.5552H124.233V44.3291L122.047 45.1326V44.1465L125.152 42.983H125.324V51.5552ZM128.994 47.2769L129.427 43.0247H133.799V44.0265H130.351L130.09 46.3534C130.511 46.1065 130.986 45.983 131.514 45.983C132.293 45.983 132.911 46.2404 133.366 46.7552C133.826 47.2665 134.055 47.9604 134.055 48.8369C134.055 49.7169 133.817 50.4091 133.34 50.9134C132.867 51.4178 132.205 51.67 131.353 51.67C130.598 51.67 129.982 51.4613 129.506 51.0439C129.029 50.6265 128.758 50.0491 128.692 49.3117H129.714C129.784 49.7987 129.958 50.1673 130.236 50.4178C130.518 50.6647 130.89 50.7882 131.353 50.7882C131.857 50.7882 132.252 50.616 132.537 50.2717C132.826 49.9273 132.97 49.4526 132.97 48.8473C132.97 48.2769 132.813 47.8195 132.5 47.4752C132.191 47.1273 131.779 46.9534 131.264 46.9534C130.791 46.9534 130.42 47.0578 130.153 47.2665L129.866 47.5013L128.994 47.2769ZM137.475 47.5273L138.879 45.216H140.146L138.07 48.3517L140.209 51.5552H138.957L137.491 49.1813L136.03 51.5552H134.767L136.906 48.3517L134.83 45.216H136.087L137.475 47.5273Z" fill="#868686"/>
<path d="M37.4766 8.20522H38.2905C38.8018 8.19826 39.2036 8.06435 39.4958 7.80348C39.7914 7.54261 39.9392 7.18956 39.9392 6.74435C39.9392 5.74261 39.4401 5.24174 38.4418 5.24174C37.9758 5.24174 37.6018 5.37565 37.3201 5.64348C37.0418 5.9113 36.9027 6.26609 36.9027 6.70783H35.8175C35.8175 6.03304 36.0644 5.4713 36.5584 5.02261C37.0523 4.57391 37.6801 4.34956 38.4418 4.34956C39.2488 4.34956 39.8801 4.56348 40.3358 4.9913C40.7914 5.41565 41.0192 6.00696 41.0192 6.76522C41.0192 7.13739 40.8992 7.49739 40.6592 7.84522C40.4192 8.19304 40.0923 8.45217 39.6784 8.62261C40.1479 8.77217 40.5097 9.01913 40.7636 9.36348C41.021 9.70435 41.1497 10.1235 41.1497 10.6209C41.1497 11.3861 40.8992 11.993 40.3984 12.4417C39.901 12.8904 39.2523 13.1148 38.4523 13.1148C37.6488 13.1148 36.9966 12.8991 36.4958 12.4678C35.9949 12.033 35.7444 11.4609 35.7444 10.7513H36.8297C36.8297 11.2 36.9758 11.56 37.2679 11.8313C37.5636 12.0991 37.9566 12.233 38.4471 12.233C38.9723 12.233 39.3723 12.0974 39.6471 11.8261C39.9253 11.5513 40.0644 11.1583 40.0644 10.647C40.0644 10.1496 39.9114 9.7687 39.6053 9.50435C39.3027 9.23652 38.8644 9.09913 38.2905 9.09217H37.4766V8.20522ZM47.9871 9.36348C47.9871 10.633 47.7697 11.5757 47.3349 12.1913C46.9036 12.807 46.2271 13.1148 45.3053 13.1148C44.394 13.1148 43.7193 12.8139 43.281 12.2122C42.8462 11.607 42.6201 10.7061 42.6027 9.50957V8.05913C42.6027 6.80696 42.8184 5.87652 43.2497 5.26783C43.6845 4.65565 44.3662 4.34956 45.2949 4.34956C46.2132 4.34956 46.8879 4.64348 47.3193 5.2313C47.754 5.81913 47.9766 6.72696 47.9871 7.95478V9.36348ZM46.9019 7.87652C46.9019 6.96174 46.7732 6.29391 46.5158 5.87304C46.2584 5.45217 45.8514 5.24174 45.2949 5.24174C44.7384 5.24174 44.3332 5.45043 44.0793 5.86783C43.8253 6.28522 43.6949 6.9287 43.6879 7.79826V9.53043C43.6879 10.4522 43.8219 11.1339 44.0897 11.5757C44.3575 12.0139 44.7627 12.233 45.3053 12.233C45.841 12.233 46.2375 12.0261 46.4949 11.6122C46.7558 11.1983 46.8914 10.5461 46.9019 9.65565V7.87652ZM51.6158 8.97217L53.0193 6.66087H54.2871L52.2106 9.79652L54.3497 13H53.0975L51.6314 10.6261L50.1706 13H48.908L51.0471 9.79652L48.9706 6.66087H50.228L51.6158 8.97217Z" fill="#868686"/>
<defs>
<filter id="filter0_d_1_918" x="0" y="12.7605" width="94.6061" height="261.376" filterUnits="userSpaceOnUse" color-interpolation-filters="sRGB">
<feFlood flood-opacity="0" result="BackgroundImageFix"/>
<feColorMatrix in="SourceAlpha" type="matrix" values="0 0 0 0 0 0 0 0 0 0 0 0 0 0 0 0 0 0 127 0" result="hardAlpha"/>
<feOffset dx="1" dy="9"/>
<feGaussianBlur stdDeviation="8.5"/>
<feComposite in2="hardAlpha" operator="out"/>
<feColorMatrix type="matrix" values="0 0 0 0 0.745833 0 0 0 0 0.745833 0 0 0 0 0.745833 0 0 0 0.25 0"/>
<feBlend mode="normal" in2="BackgroundImageFix" result="effect1_dropShadow_1_918"/>
<feBlend mode="normal" in="SourceGraphic" in2="effect1_dropShadow_1_918" result="shape"/>
</filter>
<filter id="filter1_d_1_918" x="0" y="246.068" width="94.6061" height="39.9315" filterUnits="userSpaceOnUse" color-interpolation-filters="sRGB">
<feFlood flood-opacity="0" result="BackgroundImageFix"/>
<feColorMatrix in="SourceAlpha" type="matrix" values="0 0 0 0 0 0 0 0 0 0 0 0 0 0 0 0 0 0 127 0" result="hardAlpha"/>
<feOffset dx="1" dy="9"/>
<feGaussianBlur stdDeviation="8.5"/>
<feComposite in2="hardAlpha" operator="out"/>
<feColorMatrix type="matrix" values="0 0 0 0 0.745833 0 0 0 0 0.745833 0 0 0 0 0.745833 0 0 0 0.25 0"/>
<feBlend mode="normal" in2="BackgroundImageFix" result="effect1_dropShadow_1_918"/>
<feBlend mode="normal" in="SourceGraphic" in2="effect1_dropShadow_1_918" result="shape"/>
</filter>
<filter id="filter2_d_1_918" x="84.8477" y="246.068" width="94.6061" height="39.9315" filterUnits="userSpaceOnUse" color-interpolation-filters="sRGB">
<feFlood flood-opacity="0" result="BackgroundImageFix"/>
<feColorMatrix in="SourceAlpha" type="matrix" values="0 0 0 0 0 0 0 0 0 0 0 0 0 0 0 0 0 0 127 0" result="hardAlpha"/>
<feOffset dx="1" dy="9"/>
<feGaussianBlur stdDeviation="8.5"/>
<feComposite in2="hardAlpha" operator="out"/>
<feColorMatrix type="matrix" values="0 0 0 0 0.745833 0 0 0 0 0.745833 0 0 0 0 0.745833 0 0 0 0.25 0"/>
<feBlend mode="normal" in2="BackgroundImageFix" result="effect1_dropShadow_1_918"/>
<feBlend mode="normal" in="SourceGraphic" in2="effect1_dropShadow_1_918" result="shape"/>
</filter>
<filter id="filter3_d_1_918" x="169.697" y="246.068" width="94.606" height="39.9315" filterUnits="userSpaceOnUse" color-interpolation-filters="sRGB">
<feFlood flood-opacity="0" result="BackgroundImageFix"/>
<feColorMatrix in="SourceAlpha" type="matrix" values="0 0 0 0 0 0 0 0 0 0 0 0 0 0 0 0 0 0 127 0" result="hardAlpha"/>
<feOffset dx="1" dy="9"/>
<feGaussianBlur stdDeviation="8.5"/>
<feComposite in2="hardAlpha" operator="out"/>
<feColorMatrix type="matrix" values="0 0 0 0 0.745833 0 0 0 0 0.745833 0 0 0 0 0.745833 0 0 0 0.25 0"/>
<feBlend mode="normal" in2="BackgroundImageFix" result="effect1_dropShadow_1_918"/>
<feBlend mode="normal" in="SourceGraphic" in2="effect1_dropShadow_1_918" result="shape"/>
</filter>
<filter id="filter4_d_1_918" x="254.545" y="246.068" width="94.606" height="39.9315" filterUnits="userSpaceOnUse" color-interpolation-filters="sRGB">
<feFlood flood-opacity="0" result="BackgroundImageFix"/>
<feColorMatrix in="SourceAlpha" type="matrix" values="0 0 0 0 0 0 0 0 0 0 0 0 0 0 0 0 0 0 127 0" result="hardAlpha"/>
<feOffset dx="1" dy="9"/>
<feGaussianBlur stdDeviation="8.5"/>
<feComposite in2="hardAlpha" operator="out"/>
<feColorMatrix type="matrix" values="0 0 0 0 0.745833 0 0 0 0 0.745833 0 0 0 0 0.745833 0 0 0 0.25 0"/>
<feBlend mode="normal" in2="BackgroundImageFix" result="effect1_dropShadow_1_918"/>
<feBlend mode="normal" in="SourceGraphic" in2="effect1_dropShadow_1_918" result="shape"/>
</filter>
<filter id="filter5_d_1_918" x="339.395" y="246.068" width="94.606" height="39.9315" filterUnits="userSpaceOnUse" color-interpolation-filters="sRGB">
<feFlood flood-opacity="0" result="BackgroundImageFix"/>
<feColorMatrix in="SourceAlpha" type="matrix" values="0 0 0 0 0 0 0 0 0 0 0 0 0 0 0 0 0 0 127 0" result="hardAlpha"/>
<feOffset dx="1" dy="9"/>
<feGaussianBlur stdDeviation="8.5"/>
<feComposite in2="hardAlpha" operator="out"/>
<feColorMatrix type="matrix" values="0 0 0 0 0.745833 0 0 0 0 0.745833 0 0 0 0 0.745833 0 0 0 0.25 0"/>
<feBlend mode="normal" in2="BackgroundImageFix" result="effect1_dropShadow_1_918"/>
<feBlend mode="normal" in="SourceGraphic" in2="effect1_dropShadow_1_918" result="shape"/>
</filter>
<filter id="filter6_d_1_918" x="84.8477" y="51.3156" width="94.6061" height="222.821" filterUnits="userSpaceOnUse" color-interpolation-filters="sRGB">
<feFlood flood-opacity="0" result="BackgroundImageFix"/>
<feColorMatrix in="SourceAlpha" type="matrix" values="0 0 0 0 0 0 0 0 0 0 0 0 0 0 0 0 0 0 127 0" result="hardAlpha"/>
<feOffset dx="1" dy="9"/>
<feGaussianBlur stdDeviation="8.5"/>
<feComposite in2="hardAlpha" operator="out"/>
<feColorMatrix type="matrix" values="0 0 0 0 0.745833 0 0 0 0 0.745833 0 0 0 0 0.745833 0 0 0 0.25 0"/>
<feBlend mode="normal" in2="BackgroundImageFix" result="effect1_dropShadow_1_918"/>
<feBlend mode="normal" in="SourceGraphic" in2="effect1_dropShadow_1_918" result="shape"/>
</filter>
<filter id="filter7_d_1_918" x="169.697" y="87.8936" width="94.606" height="186.243" filterUnits="userSpaceOnUse" color-interpolation-filters="sRGB">
<feFlood flood-opacity="0" result="BackgroundImageFix"/>
<feColorMatrix in="SourceAlpha" type="matrix" values="0 0 0 0 0 0 0 0 0 0 0 0 0 0 0 0 0 0 127 0" result="hardAlpha"/>
<feOffset dx="1" dy="9"/>
<feGaussianBlur stdDeviation="8.5"/>
<feComposite in2="hardAlpha" operator="out"/>
<feColorMatrix type="matrix" values="0 0 0 0 0.745833 0 0 0 0 0.745833 0 0 0 0 0.745833 0 0 0 0.25 0"/>
<feBlend mode="normal" in2="BackgroundImageFix" result="effect1_dropShadow_1_918"/>
<feBlend mode="normal" in="SourceGraphic" in2="effect1_dropShadow_1_918" result="shape"/>
</filter>
<filter id="filter8_d_1_918" x="254.545" y="142.266" width="94.606" height="131.871" filterUnits="userSpaceOnUse" color-interpolation-filters="sRGB">
<feFlood flood-opacity="0" result="BackgroundImageFix"/>
<feColorMatrix in="SourceAlpha" type="matrix" values="0 0 0 0 0 0 0 0 0 0 0 0 0 0 0 0 0 0 127 0" result="hardAlpha"/>
<feOffset dx="1" dy="9"/>
<feGaussianBlur stdDeviation="8.5"/>
<feComposite in2="hardAlpha" operator="out"/>
<feColorMatrix type="matrix" values="0 0 0 0 0.745833 0 0 0 0 0.745833 0 0 0 0 0.745833 0 0 0 0.25 0"/>
<feBlend mode="normal" in2="BackgroundImageFix" result="effect1_dropShadow_1_918"/>
<feBlend mode="normal" in="SourceGraphic" in2="effect1_dropShadow_1_918" result="shape"/>
</filter>
<filter id="filter9_d_1_918" x="339.395" y="193.673" width="94.606" height="80.4639" filterUnits="userSpaceOnUse" color-interpolation-filters="sRGB">
<feFlood flood-opacity="0" result="BackgroundImageFix"/>
<feColorMatrix in="SourceAlpha" type="matrix" values="0 0 0 0 0 0 0 0 0 0 0 0 0 0 0 0 0 0 127 0" result="hardAlpha"/>
<feOffset dx="1" dy="9"/>
<feGaussianBlur stdDeviation="8.5"/>
<feComposite in2="hardAlpha" operator="out"/>
<feColorMatrix type="matrix" values="0 0 0 0 0.745833 0 0 0 0 0.745833 0 0 0 0 0.745833 0 0 0 0.25 0"/>
<feBlend mode="normal" in2="BackgroundImageFix" result="effect1_dropShadow_1_918"/>
<feBlend mode="normal" in="SourceGraphic" in2="effect1_dropShadow_1_918" result="shape"/>
</filter>
</defs>
</svg>
