<svg width="70" height="75" viewBox="0 0 70 75" fill="none" xmlns="http://www.w3.org/2000/svg">
<rect width="70" height="75" fill="#1E1E1E"/>
<g clip-path="url(#clip0_0_1)">
<rect width="1440" height="6951" transform="translate(-1149 -56)" fill="white"/>
<rect x="-1148" y="-56" width="1440" height="856" fill="#E8F2FF"/>
<path d="M69.6213 26.0797C47.0103 -5.54768 21.82 0.454305 21.82 0.454305C18.5274 1.23862 9.80963 3.48216 3.64789 12.6653C3.58253 12.763 3.70545 12.8792 3.7991 12.807L6.70144 10.5791C9.65744 8.30914 11.1276 7.69087 12.8603 6.71415C14.2095 5.91421 16.7918 4.87497 20.0659 4.10238C22.1165 3.6189 28.1593 2.68124 34.2361 4.62884C35.6614 5.08594 46.2328 8.15189 50.9634 18.4036C52.1087 20.8855 52.7955 23.758 52.8384 27.1063C52.9828 38.3435 45.146 46.9094 36.8936 50.6854C23.494 56.8153 7.52385 48.5298 5.89464 47.9975C5.44685 47.851 16.9587 56.5516 31.0226 55.9734C52.9877 55.0699 66.6701 33.5946 69.6983 28.3887C70.1129 27.6757 70.1081 26.7751 69.6349 26.0992C69.63 26.0934 69.6261 26.0865 69.6213 26.0797Z" fill="#001236"/>
<path d="M41.8723 41.9191C39.8168 45.2058 36.3895 47.7834 32.4082 49.0756C31.4131 49.4028 30.3819 49.6255 29.3361 49.8052C28.2884 49.9683 27.223 50.0308 26.146 50.0406C23.9958 50.025 21.8144 49.6743 19.7267 48.974C18.6877 48.6146 17.6604 48.1956 16.6741 47.6857C15.6937 47.1671 14.7444 46.5791 13.8449 45.9169C12.9494 45.2507 12.084 44.5319 11.2997 43.7261C10.5163 42.9212 9.77872 42.0656 9.10753 41.1553C8.43828 40.244 7.85586 39.2683 7.33198 38.2603C6.82175 37.2455 6.37298 36.1974 6.00422 35.1172C5.30473 32.9469 4.92133 30.6711 4.88133 28.3963C4.8784 27.2594 4.93889 26.1206 5.10376 24.9924C5.25985 23.8643 5.48521 22.7421 5.82471 21.653C5.98275 21.1051 6.18665 20.5727 6.38079 20.0375C6.60029 19.512 6.80809 18.9826 7.06174 18.4747C7.29783 17.9581 7.5749 17.4619 7.84416 16.9637C8.13195 16.4754 8.42853 15.9929 8.75632 15.5319C9.06948 15.0611 9.42166 14.6196 9.76409 14.1723C10.128 13.7415 10.4831 13.3049 10.8733 12.9006C11.6313 12.0713 12.4733 11.3251 13.3562 10.6414C15.1083 9.25737 17.0799 8.17711 19.1452 7.42112C20.1735 7.03239 21.2369 6.74816 22.3071 6.54305C22.8388 6.42779 23.3802 6.36333 23.9148 6.28617C24.4543 6.23245 24.9919 6.18556 25.5304 6.17677C27.6796 6.09571 29.8044 6.377 31.8131 6.96011C35.8266 8.13609 39.3251 10.614 41.4772 13.8343L41.1484 14.1908C38.4305 11.7275 34.9945 10.0876 31.3917 9.5455C27.7947 8.97314 24.0368 9.4576 20.7267 10.9608C17.4116 12.4522 14.5581 14.937 12.6186 18.0049C10.6665 21.066 9.6558 24.7043 9.72702 28.328C9.75238 31.9526 10.8675 35.5616 12.9064 38.567C14.9327 41.5792 17.8555 43.9829 21.2115 45.3797C24.5626 46.7891 28.3352 47.1719 31.9136 46.4931C35.4998 45.8485 38.889 44.1128 41.5357 41.5724L41.8723 41.9191Z" fill="#001236"/>
<path d="M38.9702 38.5971C37.9087 39.1803 36.7858 39.6442 35.6259 39.9734C35.0454 40.1394 34.4581 40.2644 33.8611 40.364C33.263 40.4656 32.665 40.5389 32.0641 40.5828C29.668 40.7811 27.2174 40.4568 25.0409 39.4684C23.9512 38.983 22.9561 38.2983 22.0556 37.5315C21.1747 36.7306 20.3893 35.8115 19.7445 34.8084C19.0967 33.8063 18.5796 32.7212 18.2353 31.5843C17.888 30.4483 17.7211 29.2626 17.7104 28.0759C17.6928 25.7014 18.3787 23.3241 19.6518 21.3091C20.2898 20.3031 21.0664 19.385 21.9581 18.5948C22.8478 17.8027 23.8673 17.1678 24.957 16.6853C25.0789 16.6325 25.2019 16.5818 25.3257 16.5329C25.155 16.822 25.0097 17.1277 24.8955 17.4452C24.475 18.5948 24.4741 19.8929 24.8945 21.0034C25.3179 22.111 26.1433 23.078 27.3364 23.411L27.4154 23.4325C27.4408 23.4393 27.4681 23.4364 27.4925 23.4218C27.5393 23.3934 27.5549 23.3329 27.5276 23.286C27.3003 22.9031 27.1189 22.4968 26.9862 22.0768C26.8467 21.6597 26.7569 21.2261 26.7159 20.7905C26.6311 19.9182 26.7306 19.0304 27.035 18.2129C27.3208 17.3885 27.8057 16.6374 28.4232 16.0182C28.5442 15.8961 28.672 15.7808 28.8027 15.6705C29.8593 15.5523 30.9304 15.5552 31.987 15.6783C33.1782 15.8062 34.3791 16.069 35.5517 16.3649C36.7244 16.6745 37.8746 17.073 38.9887 17.5575L39.1546 17.1883C38.1799 16.3425 37.0932 15.6099 35.9283 15.0092C35.6376 14.8588 35.343 14.7074 35.0415 14.5756C34.7488 14.4417 34.462 14.3118 34.1567 14.1819C33.5508 13.9251 32.9109 13.7043 32.2465 13.509C29.5402 12.7481 26.5599 12.7706 23.679 13.716C22.9658 13.968 22.2498 14.2542 21.5659 14.6254C21.3903 14.7113 21.2225 14.808 21.0586 14.9115L20.562 15.2182C20.243 15.437 19.9211 15.6568 19.6147 15.8932C18.3806 16.8337 17.325 17.9834 16.4324 19.2492C16.2119 19.5676 16.0022 19.8948 15.8012 20.2269C15.6188 20.5687 15.4236 20.9067 15.2568 21.2583C14.9222 21.9606 14.6188 22.6834 14.3856 23.4325C13.9193 24.9298 13.6852 26.5072 13.6735 28.0866C13.6988 29.666 13.9476 31.258 14.4344 32.7622C14.9446 34.2585 15.6539 35.665 16.5446 36.9084C16.7602 37.2258 17.008 37.5149 17.2411 37.8148C17.488 38.1029 17.7309 38.393 17.9933 38.6665C18.5035 39.2252 19.0694 39.7253 19.6781 40.2087C19.8352 40.3299 19.9893 40.45 20.1581 40.5701C20.324 40.6893 20.482 40.785 20.6449 40.8915L21.1298 41.2011C21.2908 41.3046 21.4517 41.4072 21.6273 41.4892C21.9717 41.6621 22.3112 41.8379 22.6575 41.9971L23.717 42.4201C24.076 42.5402 24.436 42.6506 24.798 42.7512C25.1609 42.8469 25.5287 42.9113 25.8906 42.9885C26.2535 43.0608 26.6213 43.095 26.9833 43.1467C27.3452 43.1946 27.711 43.1956 28.071 43.2161C28.432 43.2259 28.79 43.2132 29.1461 43.2092C29.5012 43.1868 29.8544 43.1712 30.2036 43.1282C30.9012 43.0364 31.587 42.9299 32.2533 42.76C32.9167 42.5881 33.5752 42.3898 34.1869 42.1524C34.8084 41.9112 35.4454 41.6455 36.0298 41.3193C36.621 41.0018 37.1829 40.6414 37.7097 40.2459C37.9712 40.0437 38.2239 39.8337 38.4687 39.6178C38.7155 39.4059 38.9497 39.1793 39.1711 38.941L38.9702 38.5971Z" fill="#001236"/>
<path d="M7.87096 64.4881L7.6934 65.3242C7.06415 65.1415 6.47491 65.0497 5.92761 65.0497C5.34324 65.0497 4.8096 65.1454 4.32571 65.3378C3.84182 65.5293 3.4272 65.8037 3.0799 66.1602C2.73259 66.5167 2.46138 66.9553 2.26529 67.4759C2.0692 67.9965 1.97067 68.5864 1.97067 69.2438C1.97067 69.9011 2.06822 70.4911 2.26529 71.0116C2.46138 71.5322 2.73552 71.9708 3.08673 72.3273C3.43793 72.6838 3.85743 72.9583 4.3462 73.1497C4.83399 73.3411 5.37055 73.4378 5.95492 73.4378C6.511 73.4378 7.09147 73.3509 7.6934 73.1771L7.87096 73.9995C7.50609 74.0903 7.14513 74.1567 6.78904 74.1977C6.43296 74.2388 6.08175 74.2593 5.73542 74.2593C4.9413 74.2593 4.19498 74.1469 3.49744 73.9233C2.79893 73.6996 2.19212 73.3734 1.67702 72.9436C1.16094 72.5139 0.753146 71.9893 0.451692 71.3672C0.150239 70.747 0 70.0388 0 69.2438C0 68.4487 0.148288 67.7406 0.444863 67.1194C0.741439 66.4982 1.15021 65.9727 1.67019 65.5429C2.19017 65.1132 2.79698 64.787 3.49062 64.5633C4.18425 64.3396 4.92764 64.2273 5.72176 64.2273C6.06809 64.2273 6.42222 64.2478 6.78221 64.2888C7.14318 64.3308 7.50609 64.3972 7.87096 64.4881Z" fill="#001236"/>
<path d="M8.96594 64.448H11.2244L14.5238 68.6694L17.3852 64.448H18.3705L14.8389 69.6833V74.0414H13.0595V69.6969L8.96594 64.448Z" fill="#001236"/>
<path d="M22.854 64.448L26.29 72.1094L29.6986 64.448H30.602L26.331 74.0414H25.2081L20.9097 64.448H22.854Z" fill="#001236"/>
<path d="M31.5737 63.433C31.5737 63.1498 31.6742 62.9124 31.8752 62.72C32.0762 62.5286 32.3132 62.4319 32.5874 62.4319C32.8615 62.4319 33.0986 62.5276 33.2995 62.72C33.5005 62.9115 33.601 63.1498 33.601 63.433C33.601 63.726 33.5005 63.9673 33.2995 64.1597C33.0986 64.3512 32.8615 64.4479 32.5874 64.4479C32.3132 64.4479 32.0762 64.3521 31.8752 64.1597C31.6742 63.9673 31.5737 63.7251 31.5737 63.433ZM31.6967 74.0403V65.1316H33.4761V74.0403H31.6967Z" fill="#001236"/>
<path d="M34.5709 66.956C34.5709 66.4266 34.7095 65.9881 34.9885 65.6404C35.2665 65.2936 35.6138 65.0143 36.0284 64.8043C36.444 64.5943 36.8928 64.4458 37.3767 64.3589C37.8606 64.272 38.3074 64.229 38.7181 64.229C39.12 64.229 39.48 64.2612 39.799 64.3247C40.118 64.3892 40.4039 64.4751 40.6546 64.5855C40.9053 64.6949 41.1248 64.8189 41.3121 64.9557C41.4995 65.0924 41.6614 65.2301 41.798 65.3669C42.117 65.7048 42.3453 66.0887 42.4828 66.5185L41.6204 66.8066C41.5473 66.4774 41.397 66.1854 41.1687 65.9295C40.9775 65.7097 40.6897 65.5095 40.3063 65.3268C39.9229 65.1442 39.3932 65.0524 38.7181 65.0524C38.5171 65.0524 38.2849 65.0778 38.0196 65.1276C37.7552 65.1784 37.5064 65.2575 37.2733 65.3679C37.0401 65.4773 36.8421 65.6238 36.6782 65.8064C36.5143 65.9891 36.4313 66.2127 36.4313 66.4784C36.4313 66.8437 36.5845 67.1406 36.8899 67.3692C37.1952 67.5977 37.5767 67.8009 38.0332 67.9787C38.4898 68.1564 38.9844 68.3332 39.5181 68.5061C40.0517 68.6799 40.5473 68.8919 41.0029 69.1429C41.4595 69.3939 41.8399 69.7075 42.1463 70.0815C42.4516 70.4566 42.6048 70.9313 42.6048 71.5066C42.6048 72.037 42.4653 72.4775 42.1872 72.8291C41.9082 73.1807 41.5619 73.462 41.1473 73.672C40.7317 73.882 40.2819 74.0334 39.799 74.1242C39.3151 74.2151 38.8683 74.261 38.4576 74.261C38.0557 74.261 37.6957 74.2287 37.3767 74.1652C37.0577 74.1008 36.7718 74.0148 36.5211 73.9045C36.2704 73.7951 36.0509 73.672 35.8636 73.5343C35.6762 73.3975 35.5143 73.2559 35.3777 73.1094C35.0577 72.7802 34.8304 72.4013 34.6929 71.9715L35.4187 71.6834C35.5094 72.0125 35.6831 72.3046 35.9387 72.5605C36.1484 72.7802 36.4538 72.9805 36.8557 73.1631C37.2577 73.3458 37.7913 73.4376 38.4576 73.4376C38.6586 73.4376 38.8908 73.4122 39.1561 73.3624C39.4205 73.3126 39.6712 73.2295 39.9093 73.1153C40.1463 73.001 40.3473 72.8506 40.5112 72.663C40.6751 72.4755 40.758 72.2499 40.758 71.9842C40.758 71.7097 40.6692 71.4773 40.4907 71.2849C40.3132 71.0934 40.08 70.9215 39.7922 70.7711C39.5044 70.6207 39.1737 70.481 38.8 70.3531C38.4254 70.2251 38.0469 70.0923 37.6635 69.9556C37.2801 69.8188 36.9016 69.6655 36.527 69.4965C36.1523 69.3275 35.8216 69.1263 35.5348 68.8938C35.247 68.6604 35.0148 68.3869 34.8363 68.0714C34.6597 67.7579 34.5709 67.3858 34.5709 66.956Z" fill="#001236"/>
<path d="M43.5774 63.433C43.5774 63.1498 43.6779 62.9124 43.8788 62.72C44.0798 62.5286 44.3169 62.4319 44.591 62.4319C44.8651 62.4319 45.1022 62.5276 45.3032 62.72C45.5042 62.9115 45.6046 63.1498 45.6046 63.433C45.6046 63.726 45.5042 63.9673 45.3032 64.1597C45.1022 64.3512 44.8651 64.4479 44.591 64.4479C44.3169 64.4479 44.0798 64.3521 43.8788 64.1597C43.6779 63.9673 43.5774 63.7251 43.5774 63.433ZM43.7013 74.0403V65.1316H45.4807V74.0403H43.7013Z" fill="#001236"/>
<path d="M51.4359 64.2273C52.1568 64.2273 52.8163 64.3465 53.4144 64.5838C54.0114 64.8211 54.5236 65.1571 54.947 65.5908C55.3714 66.0245 55.7021 66.55 55.9392 67.1672C56.1762 67.7836 56.2952 68.4761 56.2952 69.2438C56.2952 70.0115 56.1762 70.703 55.9392 71.3203C55.7021 71.9366 55.3684 72.4621 54.9402 72.8967C54.5109 73.3304 53.9997 73.6664 53.4075 73.9037C52.8144 74.1411 52.1568 74.2602 51.4359 74.2602C50.7149 74.2602 50.0574 74.1411 49.4642 73.9037C48.8711 73.6664 48.3599 73.3304 47.9306 72.8967C47.5014 72.4631 47.1687 71.9376 46.9316 71.3203C46.6946 70.704 46.5756 70.0115 46.5756 69.2438C46.5756 68.4761 46.6936 67.7845 46.9316 67.1672C47.1687 66.5509 47.4994 66.0255 47.9238 65.5908C48.3482 65.1571 48.8594 64.8211 49.4574 64.5838C50.0554 64.3465 50.7149 64.2273 51.4359 64.2273ZM51.4359 73.4378C51.9198 73.4378 52.3412 73.3333 52.7022 73.1224C53.0622 72.9124 53.3617 72.6223 53.5988 72.2521C53.8358 71.8819 54.0163 71.4394 54.1392 70.9228C54.2621 70.407 54.3236 69.8474 54.3236 69.2438C54.3236 68.6314 54.2641 68.0697 54.146 67.5579C54.027 67.0461 53.8465 66.6056 53.6056 66.2354C53.3636 65.8653 53.0622 65.5752 52.7022 65.3652C52.3412 65.1552 51.9198 65.0497 51.4359 65.0497C50.952 65.0497 50.5296 65.1552 50.1696 65.3652C49.8086 65.5752 49.5081 65.8653 49.2662 66.2354C49.0243 66.6056 48.8438 67.0461 48.7257 67.5579C48.6067 68.0697 48.5482 68.6314 48.5482 69.2438C48.5482 69.8464 48.6096 70.4061 48.7326 70.9228C48.8555 71.4394 49.036 71.8819 49.273 72.2521C49.5101 72.6223 49.8116 72.9124 50.1764 73.1224C50.5413 73.3323 50.9618 73.4378 51.4359 73.4378Z" fill="#001236"/>
<path d="M58.2113 65.7773V74.0414H57.3899V64.448H59.4845L64.5633 72.7121V64.448H65.3847V74.0414H63.2902L58.2113 65.7773Z" fill="#001236"/>
</g>
<defs>
<clipPath id="clip0_0_1">
<rect width="1440" height="6951" fill="white" transform="translate(-1149 -56)"/>
</clipPath>
</defs>
</svg>
