<svg width="368" height="515" viewBox="0 0 368 515" fill="none" xmlns="http://www.w3.org/2000/svg">
<g clip-path="url(#clip0_1_1212)">
<path d="M285.079 91.2318C271.017 85.2892 268.172 60.2632 278.801 35.4046C289.431 10.546 309.268 -4.68726 323.329 1.25537C337.391 7.198 340.236 32.224 329.69 57.0826C319.144 81.9412 299.14 97.2581 285.079 91.2318Z" fill="#00E0FF"/>
<path d="M73.4038 296.127V203.472C73.4038 152.249 45.281 127.055 10.5459 147.059V239.714C10.5459 290.938 38.7524 316.215 73.4038 296.127Z" fill="#C2F4FF"/>
<path d="M41.8495 455.323L304.162 303.827V76.4171C304.162 65.62 297.634 60.6817 289.599 65.3689L56.4968 199.957C48.378 204.644 41.8495 217.115 41.8495 227.912V455.323Z" fill="white" stroke="black" stroke-width="2.49" stroke-linecap="round" stroke-linejoin="round"/>
<path d="M304.162 97.342L41.8495 248.754" stroke="black" stroke-width="2.49" stroke-linecap="round" stroke-linejoin="round"/>
<path d="M60.1796 219.124L23.6868 240.216" stroke="black" stroke-width="2.49" stroke-linecap="round" stroke-linejoin="round"/>
<path d="M218.706 328.184L284.242 290.268C285.174 289.671 285.926 288.832 286.418 287.841C286.921 286.887 287.18 285.823 287.171 284.744V134.923C287.171 132.747 285.916 131.742 284.242 132.663L218.706 170.495C217.808 171.131 217.075 171.971 216.566 172.946C216.056 173.921 215.786 175.003 215.776 176.103V325.924C215.776 328.1 217.115 329.104 218.706 328.184Z" stroke="black" stroke-width="2.49" stroke-linecap="round" stroke-linejoin="round"/>
<path d="M63.0256 417.993L192.759 343.082C194.433 342.162 195.688 339.651 195.688 337.558V187.737C195.688 185.561 194.433 184.556 192.759 185.477L63.0256 260.388C61.4353 261.308 60.1798 263.819 60.1798 265.996V415.817C60.1798 417.993 61.4353 418.997 63.0256 417.993Z" stroke="black" stroke-width="2.49" stroke-linecap="round" stroke-linejoin="round"/>
<path d="M245.824 195.353L261.643 186.314V189.495L255.198 193.177V215.358L252.353 217.032V194.851L245.824 198.618V195.353Z" fill="black"/>
<path d="M233.604 244.401L271.771 222.388V171.499L233.604 193.512V244.401Z" stroke="black" stroke-width="2.49" stroke-linecap="round" stroke-linejoin="round" stroke-dasharray="4.39 7.31"/>
<path d="M268.925 176.94L274.617 173.592V165.975L268.925 169.323V176.94Z" fill="white" stroke="black" stroke-width="2.49" stroke-linecap="round" stroke-linejoin="round"/>
<path d="M268.925 227.829L274.617 224.565V216.864L268.925 220.212V227.829Z" fill="white" stroke="black" stroke-width="2.49" stroke-linecap="round" stroke-linejoin="round"/>
<path d="M230.758 198.953L236.449 195.688V188.072L230.758 191.336V198.953Z" fill="white" stroke="black" stroke-width="2.49" stroke-linecap="round" stroke-linejoin="round"/>
<path d="M230.758 249.842L236.449 246.577V238.961L230.758 242.225V249.842Z" fill="white" stroke="black" stroke-width="2.49" stroke-linecap="round" stroke-linejoin="round"/>
<path d="M240.132 287.59L265.242 273.11C268.841 271.017 271.771 265.41 271.771 260.639C271.771 255.868 268.841 253.608 265.242 255.7L240.132 270.18C236.533 272.273 233.604 277.881 233.604 282.652C233.604 287.422 236.533 289.682 240.132 287.59Z" fill="white" stroke="black" stroke-width="2.49" stroke-linecap="round" stroke-linejoin="round"/>
<path d="M128.478 366.183L181.125 335.8C182.008 335.151 182.731 334.308 183.239 333.336C183.746 332.364 184.025 331.289 184.054 330.193V210.001C184.054 207.908 182.715 206.904 181.125 207.825L128.478 238.207C127.582 238.846 126.839 239.675 126.302 240.635C125.807 241.622 125.549 242.711 125.548 243.815V363.923C125.548 366.099 126.804 367.104 128.478 366.183Z" stroke="black" stroke-width="2.49" stroke-linecap="round" stroke-linejoin="round"/>
<path d="M183.134 207.825L126.553 366.267" stroke="black" stroke-width="2.49" stroke-linecap="round" stroke-linejoin="round"/>
<path d="M126.553 240.467L183.134 333.541" stroke="black" stroke-width="2.49" stroke-linecap="round" stroke-linejoin="round"/>
<path d="M103.285 472.816L170.83 433.812C171.701 433.17 172.416 432.341 172.922 431.385C173.479 430.418 173.768 429.32 173.759 428.204V278.383C173.759 276.29 172.42 275.286 170.83 276.207L103.285 315.21C101.695 316.131 100.355 318.642 100.355 320.818V470.639C100.355 472.732 101.695 473.736 103.285 472.816Z" fill="white" stroke="black" stroke-width="2.49" stroke-linecap="round" stroke-linejoin="round"/>
<path d="M115.504 388.949L158.609 364.091C160.2 363.17 161.539 360.659 161.539 358.483V301.065C161.539 298.889 160.2 297.885 158.609 298.805L115.504 323.664C114.621 324.314 113.898 325.157 113.39 326.129C112.883 327.101 112.604 328.176 112.575 329.272V386.773C112.575 388.866 113.914 389.87 115.504 388.949Z" stroke="black" stroke-width="2.49" stroke-linecap="round" stroke-linejoin="round"/>
<path d="M145.134 330.025C142.204 328.77 141.619 323.58 143.795 318.475C145.971 313.369 150.156 310.105 153.085 311.36C156.015 312.616 156.601 317.805 154.341 322.994C152.081 328.184 148.063 331.281 145.134 330.025Z" stroke="black" stroke-width="2.49" stroke-linecap="round" stroke-linejoin="round"/>
<path d="M141.954 357.981L138.103 351.368L129.901 337.14C128.813 335.298 126.134 336.805 125.046 339.902L116.844 363.589L112.575 375.976" stroke="black" stroke-width="2.49" stroke-linecap="round" stroke-linejoin="round"/>
<path d="M159.279 363.588L153.337 353.21L149.236 346.179C148.399 344.672 146.139 345.928 145.218 348.523L141.2 360.24L135.09 377.65" stroke="black" stroke-width="2.49" stroke-linecap="round" stroke-linejoin="round"/>
<path d="M130.989 405.773L158.86 389.619C159.672 389.064 160.334 388.316 160.786 387.443C161.278 386.575 161.538 385.595 161.539 384.597C161.539 382.672 160.367 381.751 158.86 382.588L130.989 398.742C130.173 399.298 129.509 400.048 129.056 400.925C128.603 401.802 128.375 402.777 128.394 403.764C128.394 405.689 129.566 406.61 130.989 405.773Z" fill="#00E0FF"/>
<path d="M115.17 427.116L158.86 401.923C159.693 401.356 160.358 400.575 160.786 399.663C161.275 398.824 161.535 397.872 161.539 396.901C161.539 394.976 160.367 394.055 158.86 394.892L115.17 420.085C114.403 420.666 113.774 421.409 113.328 422.262C112.835 423.129 112.576 424.11 112.575 425.107C112.575 427.032 113.747 427.953 115.17 427.116Z" fill="#C2F4FF"/>
<path d="M115.17 414.812L122.786 410.46C123.598 409.905 124.26 409.157 124.712 408.284C125.127 407.387 125.382 406.423 125.465 405.438C125.465 403.513 124.209 402.676 122.786 403.429L115.17 407.865C114.403 408.446 113.774 409.189 113.328 410.041C112.828 410.906 112.568 411.888 112.575 412.887V412.887C112.575 414.812 113.747 415.649 115.17 414.812Z" stroke="black" stroke-width="1.7" stroke-linecap="round" stroke-linejoin="round"/>
<path d="M118.936 436.239L134.504 427.284C135.316 426.729 135.978 425.981 136.429 425.107C136.922 424.24 137.182 423.259 137.183 422.262C137.183 420.337 136.011 419.416 134.504 420.253L118.936 429.292C118.129 429.852 117.469 430.599 117.011 431.469C116.573 432.353 116.344 433.327 116.342 434.314C116.342 436.239 117.513 437.076 118.936 436.239Z" fill="#C2F4FF"/>
<path d="M143.292 422.178L158.86 413.222C159.693 412.655 160.358 411.875 160.786 410.962C161.275 410.124 161.535 409.171 161.539 408.2V408.2C161.539 406.275 160.367 405.354 158.86 406.191L143.292 415.147C142.502 415.76 141.847 416.529 141.367 417.407C140.939 418.265 140.71 419.21 140.698 420.169V420.169C140.698 422.178 141.87 423.015 143.292 422.178Z" stroke="black" stroke-width="1.7" stroke-linecap="round" stroke-linejoin="round"/>
<path d="M151.328 429.292L158.861 424.856C159.688 424.319 160.353 423.566 160.786 422.68C161.224 421.795 161.453 420.822 161.455 419.834C161.455 417.909 160.284 417.072 158.861 417.909L151.328 422.261C150.559 422.864 149.907 423.601 149.403 424.438C148.964 425.322 148.735 426.296 148.733 427.283C148.733 429.209 149.905 430.129 151.328 429.292Z" fill="#00E0FF"/>
<path d="M8.1185 353.796C7.15604 354.408 6.3528 355.24 5.77494 356.223C5.21921 357.195 4.90356 358.285 4.85425 359.403C4.85425 361.496 6.27713 362.333 8.1185 361.329L49.3821 337.474C50.3483 336.831 51.1508 335.971 51.7257 334.963C52.3201 334.003 52.6654 332.91 52.7301 331.783C52.7301 329.69 51.2235 328.853 49.4658 329.858L8.1185 353.796Z" fill="#C2F4FF"/>
<path d="M13.6432 338.479C12.7243 339.116 11.9535 339.944 11.3833 340.906C10.8002 341.902 10.4564 343.019 10.3789 344.17C10.3789 346.263 11.8018 347.1 13.6432 346.012L25.4447 339.232C26.402 338.64 27.1825 337.802 27.7046 336.805C28.2877 335.809 28.6315 334.692 28.709 333.54C28.709 331.532 27.2861 330.611 25.4447 331.699L13.6432 338.479Z" fill="#C2F4FF"/>
<path d="M3.26444 332.453C2.32027 333.087 1.52148 333.914 0.920879 334.88C0.328045 335.866 0.0101337 336.993 0.000183105 338.144C0.000183105 340.237 1.42306 341.074 3.18074 339.985L14.9823 333.206C15.9627 332.616 16.7709 331.779 17.3259 330.779C17.9082 329.818 18.2258 328.721 18.2466 327.598C18.2466 325.505 16.8237 324.669 14.9823 325.673L3.26444 332.453Z" fill="#00E0FF"/>
<path d="M11.6339 315.629C10.6714 316.241 9.86815 317.073 9.29029 318.056C8.77028 319.073 8.45732 320.182 8.3696 321.321C8.3696 323.329 9.79248 324.25 11.6339 323.162L17.2417 319.898C18.199 319.306 18.9795 318.467 19.5016 317.47C20.0837 316.505 20.4279 315.415 20.506 314.29C20.506 312.197 19.0831 311.36 17.2417 312.365L11.6339 315.629Z" fill="white" stroke="black" stroke-width="1.7" stroke-linecap="round" stroke-linejoin="round"/>
<path d="M34.5674 326.51C33.587 327.099 32.7788 327.937 32.2238 328.937C31.6529 329.908 31.3095 330.995 31.2194 332.118C31.2194 334.21 32.726 335.047 34.4837 334.043L49.4658 325.422C50.3899 324.764 51.1844 323.941 51.8094 322.994C52.3294 321.978 52.6424 320.868 52.7301 319.73C52.7301 317.638 51.3072 316.801 49.4658 317.889L34.5674 326.51Z" fill="white" stroke="black" stroke-width="1.7" stroke-linecap="round" stroke-linejoin="round"/>
<path d="M24.5235 320.232C23.5663 320.824 22.7858 321.663 22.2637 322.66C21.6928 323.63 21.3494 324.718 21.2593 325.84C21.2593 327.933 22.6822 328.77 24.5235 327.765L49.4658 313.369C50.4462 312.779 51.2544 311.942 51.8094 310.942C52.3917 309.982 52.7094 308.884 52.7301 307.761C52.7301 305.669 51.3072 304.832 49.4658 305.836L24.5235 320.232Z" fill="#C2F4FF"/>
<path d="M28.3741 306.004C27.3937 306.593 26.5855 307.43 26.0305 308.431C25.4596 309.401 25.1162 310.489 25.0261 311.611C25.0261 313.704 26.5327 314.541 28.2904 313.536L49.5499 301.316C50.4491 300.657 51.2158 299.833 51.8098 298.889C52.3929 297.894 52.7367 296.776 52.8142 295.625C52.8142 293.532 51.3076 292.695 49.5499 293.784L28.3741 306.004Z" fill="#00E0FF"/>
<path d="M18.9161 478.089V478.423V478.591H18.9998L19.1672 478.758C19.2509 478.842 19.3346 478.926 19.3346 479.009H20.5901L36.4929 488.3L36.9951 488.551H37.0788L37.581 488.718L38.0832 488.886H45.5324L45.9509 488.718H46.1183L46.6205 488.467L62.8581 479.093C64.281 478.256 64.9506 477.252 64.9506 476.164V499.599C64.8925 500.219 64.6672 500.811 64.2986 501.312C63.93 501.813 63.4321 502.205 62.8581 502.445L46.7879 511.736L46.2857 512.07H46.1183L45.7835 512.238H45.6161L45.1976 512.405H38.418L37.9995 512.238H37.9158L37.4973 512.07H37.3299L36.9114 511.819L21.0086 502.529H20.2553V502.361H20.0879L19.9205 502.194L19.6694 501.943V502.696H19.502V502.529V501.859V501.608V478.005C19.502 478.005 18.9161 478.005 18.9161 478.089Z" fill="white" stroke="black" stroke-width="1.7" stroke-linecap="round" stroke-linejoin="round"/>
<path d="M21.0084 474.992C18.2463 476.582 18.2463 479.177 21.0084 480.767L36.9112 490.058C38.443 490.829 40.1344 491.231 41.8494 491.23C43.59 491.22 45.3061 490.819 46.8714 490.058L62.8579 480.767C65.62 479.177 65.62 476.582 62.8579 474.992L46.9551 465.785C45.4384 464.965 43.7412 464.535 42.0168 464.535C40.2924 464.535 38.5953 464.965 37.0786 465.785L21.0084 474.992Z" fill="white" stroke="black" stroke-width="1.7" stroke-linecap="round" stroke-linejoin="round"/>
<path d="M41.9333 455.741C35.2289 455.741 28.675 453.753 23.1005 450.028C17.526 446.303 13.1812 441.009 10.6155 434.815C8.04986 428.621 7.37859 421.805 8.68655 415.23C9.99452 408.654 13.223 402.614 17.9637 397.873C22.7045 393.133 28.7445 389.904 35.3201 388.596C41.8957 387.288 48.7115 387.96 54.9056 390.525C61.0996 393.091 66.3938 397.436 70.1186 403.01C73.8433 408.585 75.8314 415.139 75.8314 421.843C75.8425 426.298 74.9732 430.711 73.2736 434.828C71.5739 438.946 69.0775 442.687 65.9275 445.837C62.7776 448.987 59.0363 451.484 54.9186 453.183C50.8009 454.883 46.388 455.752 41.9333 455.741Z" fill="#00E0FF"/>
<path d="M41.9333 408.619V491.23" stroke="black" stroke-width="1.7" stroke-linecap="round" stroke-linejoin="round"/>
<path d="M41.9333 445.111L20.9249 424.019" stroke="black" stroke-width="1.7" stroke-linecap="round" stroke-linejoin="round"/>
<path d="M41.9333 426.53L35.9907 420.588" stroke="black" stroke-width="1.7" stroke-linecap="round" stroke-linejoin="round"/>
<path d="M311.946 314.373V314.541C311.946 314.625 311.946 314.625 312.03 314.625V314.792H312.114L312.281 314.959L312.448 315.21H312.532L312.699 315.378H313.788L329.69 324.668L330.193 324.92H330.276L330.695 325.087H330.778L331.281 325.254H337.307L337.893 325.087H337.977L338.395 324.92H338.562L338.897 324.752H339.148L339.651 324.501L355.637 317.136C357.06 316.299 357.73 315.294 357.73 314.29V337.642C357.672 338.261 357.446 338.853 357.078 339.355C356.709 339.856 356.211 340.248 355.637 340.488L339.567 349.778L339.065 350.029H338.897L338.562 350.197H338.479L338.06 350.364H331.448L331.03 350.197H330.946L330.527 350.029H330.36L329.941 349.778L314.039 340.571H313.034L312.867 340.404L312.616 340.153V339.985H312.365V339.818V339.651L312.03 316.299L311.946 314.373Z" fill="white" stroke="black" stroke-width="1.7" stroke-linecap="round" stroke-linejoin="round"/>
<path d="M313.955 311.277C311.193 312.867 311.193 315.462 313.955 317.052L329.858 326.342C331.423 327.104 333.139 327.504 334.88 327.514C336.595 327.515 338.286 327.114 339.818 326.342L355.888 317.052C358.65 315.462 358.65 312.867 355.888 311.277L339.986 302.07C338.434 301.27 336.709 300.867 334.964 300.898C333.245 300.867 331.547 301.27 330.025 302.07L313.955 311.277Z" fill="white" stroke="black" stroke-width="1.7" stroke-linecap="round" stroke-linejoin="round"/>
<path d="M346.681 284.409C342.51 284.409 338.432 283.172 334.963 280.854C331.495 278.537 328.791 275.243 327.195 271.389C325.598 267.535 325.181 263.294 325.994 259.202C326.808 255.111 328.817 251.352 331.767 248.403C334.717 245.453 338.475 243.444 342.566 242.63C346.658 241.816 350.899 242.234 354.753 243.83C358.607 245.427 361.901 248.13 364.219 251.599C366.536 255.067 367.773 259.145 367.773 263.317C367.773 268.911 365.551 274.276 361.596 278.231C357.64 282.187 352.275 284.409 346.681 284.409Z" fill="#00E0FF"/>
<path d="M346.681 253.775V322.325" stroke="black" stroke-width="1.7" stroke-linecap="round" stroke-linejoin="round"/>
<path d="M346.681 277.128L354.884 268.925" stroke="black" stroke-width="1.7" stroke-linecap="round" stroke-linejoin="round"/>
<path d="M346.681 271.687L340.739 265.744" stroke="black" stroke-width="1.7" stroke-linecap="round" stroke-linejoin="round"/>
<path d="M346.681 265.242L351.536 260.471" stroke="black" stroke-width="1.7" stroke-linecap="round" stroke-linejoin="round"/>
<path d="M325.589 268.925C319.746 268.925 314.033 267.192 309.175 263.946C304.316 260.699 300.529 256.085 298.293 250.686C296.056 245.287 295.471 239.346 296.611 233.615C297.751 227.884 300.565 222.619 304.697 218.487C308.829 214.355 314.094 211.541 319.825 210.401C325.557 209.261 331.497 209.846 336.896 212.083C342.295 214.319 346.909 218.106 350.156 222.965C353.402 227.823 355.135 233.536 355.135 239.379C355.135 247.215 352.022 254.73 346.481 260.271C340.94 265.812 333.425 268.925 325.589 268.925Z" fill="#C2F4FF"/>
<path d="M325.589 226.239V323.748" stroke="black" stroke-width="1.7" stroke-linecap="round" stroke-linejoin="round"/>
<path d="M325.589 249.59L333.792 241.388" stroke="black" stroke-width="1.7" stroke-linecap="round" stroke-linejoin="round"/>
<path d="M325.589 244.15L319.646 238.207" stroke="black" stroke-width="1.7" stroke-linecap="round" stroke-linejoin="round"/>
<path d="M325.589 255.617L320.818 250.762" stroke="black" stroke-width="1.7" stroke-linecap="round" stroke-linejoin="round"/>
</g>
<defs>
<clipPath id="clip0_1_1212">
<rect width="367.773" height="515" fill="white" transform="matrix(-1 0 0 1 367.773 0)"/>
</clipPath>
</defs>
</svg>
