<svg width="60" height="60" viewBox="0 0 60 60" fill="none" xmlns="http://www.w3.org/2000/svg">
<g clip-path="url(#clip0_1_1087)">
<path d="M44 0H16C7.16344 0 0 7.16344 0 16V44C0 52.8366 7.16344 60 16 60H44C52.8366 60 60 52.8366 60 44V16C60 7.16344 52.8366 0 44 0Z" fill="#F7F8FA"/>
<g clip-path="url(#clip1_1_1087)">
<path d="M30 40.8219C41.0457 40.8219 50 36.1607 50 30.4109C50 24.6611 41.0457 20 30 20C18.9543 20 10 24.6611 10 30.4109C10 36.1607 18.9543 40.8219 30 40.8219Z" fill="#8993BE"/>
<path fill-rule="evenodd" clip-rule="evenodd" d="M15.6193 36.5753L17.8112 25.4794H22.8795C25.0712 25.6164 26.1671 26.7122 26.1671 28.6302C26.1671 31.9178 23.5645 33.8356 21.2356 33.6986H18.7701L18.2221 36.5753H15.6193ZM19.3179 31.6439L20.0029 27.5342H21.7837C22.7426 27.5342 23.4274 27.9452 23.4274 28.767C23.2906 31.0959 22.1946 31.5069 20.9618 31.6439H19.3181H19.3179ZM25.6579 33.6986L27.8496 22.6028H30.4524L29.9045 25.4794H32.3701C34.562 25.6164 35.3839 26.7122 35.11 28.0822L34.151 33.6986H31.4114L32.3703 28.6302C32.5071 27.9452 32.5071 27.5342 31.5484 27.5342H29.4935L28.2607 33.6986H25.6579ZM33.9756 36.5753L36.1673 25.4794H41.2357C43.4276 25.6164 44.5235 26.7122 44.5235 28.6302C44.5235 31.9178 41.9207 33.8356 39.592 33.6986H37.1262L36.5782 36.5753H33.9756ZM37.674 31.6439L38.359 27.5342H40.14C41.0989 27.5342 41.7837 27.9452 41.7837 28.767C41.6468 31.0959 40.5509 31.5069 39.3181 31.6439H37.6742H37.674Z" fill="#232531"/>
</g>
</g>
<defs>
<clipPath id="clip0_1_1087">
<rect width="60" height="60" fill="white"/>
</clipPath>
<clipPath id="clip1_1_1087">
<rect width="40" height="20.944" fill="white" transform="translate(10 20)"/>
</clipPath>
</defs>
</svg>
