<svg width="60" height="60" viewBox="0 0 60 60" fill="none" xmlns="http://www.w3.org/2000/svg">
<g clip-path="url(#clip0_1_1025)">
<path d="M44 0H16C7.16344 0 0 7.16344 0 16V44C0 52.8366 7.16344 60 16 60H44C52.8366 60 60 52.8366 60 44V16C60 7.16344 52.8366 0 44 0Z" fill="#F7F8FA"/>
<mask id="mask0_1_1025" style="mask-type:alpha" maskUnits="userSpaceOnUse" x="15" y="15" width="31" height="30">
<path fill-rule="evenodd" clip-rule="evenodd" d="M36.3837 44.8717C36.8586 45.0569 37.4003 45.0449 37.8797 44.8143L44.0882 41.8269C44.7406 41.5129 45.1554 40.8526 45.1554 40.1283V19.8717C45.1554 19.1474 44.7406 18.4872 44.0882 18.1732L37.8797 15.1857C37.2506 14.883 36.5143 14.9571 35.9622 15.3585C35.8832 15.4159 35.8081 15.4799 35.7376 15.5505L23.8522 26.3938L18.6751 22.464C18.1932 22.0982 17.519 22.1282 17.0715 22.5353L15.411 24.0457C14.8635 24.5438 14.8629 25.4051 15.4097 25.9039L19.8994 29.9999L15.4097 34.096C14.8629 34.5949 14.8635 35.4562 15.411 35.9543L17.0715 37.4646C17.519 37.8718 18.1932 37.9017 18.6751 37.536L23.8522 33.6061L35.7376 44.4495C35.9257 44.6376 36.1464 44.7793 36.3837 44.8717ZM37.6212 23.1544L28.6028 29.9999L37.6212 36.8456V23.1544Z" fill="white"/>
</mask>
<g mask="url(#mask0_1_1025)">
<path d="M44.0871 18.1781L37.8737 15.1864C37.1546 14.8402 36.2951 14.9862 35.7306 15.5506L15.3903 34.0962C14.8433 34.5951 14.8438 35.4564 15.3917 35.9544L17.0531 37.4648C17.501 37.872 18.1755 37.9019 18.6577 37.5362L43.1521 18.9542C43.9738 18.3308 45.1542 18.9169 45.1542 19.9483V19.8762C45.1542 19.1522 44.7394 18.4921 44.0871 18.1781Z" fill="#0065A9"/>
<g filter="url(#filter0_d_1_1025)">
<path d="M44.087 41.8219L37.8736 44.8136C37.1545 45.1598 36.295 45.0137 35.7305 44.4494L15.3902 25.9038C14.8431 25.405 14.8437 24.5436 15.3915 24.0455L17.053 22.5352C17.5009 22.128 18.1754 22.098 18.6576 22.4639L43.152 41.0457C43.9737 41.6691 45.154 41.0831 45.154 40.0516V40.1238C45.154 40.8478 44.7392 41.5078 44.087 41.8219Z" fill="#007ACC"/>
</g>
<g filter="url(#filter1_d_1_1025)">
<path d="M37.87 44.8142C37.1506 45.1601 36.2911 45.014 35.7266 44.4495C36.4221 45.145 37.6113 44.6523 37.6113 43.6688V16.3311C37.6113 15.3475 36.4221 14.855 35.7266 15.5505C36.2911 14.986 37.1506 14.8398 37.87 15.1857L44.0823 18.1732C44.7351 18.4871 45.1502 19.1474 45.1502 19.8717V40.1283C45.1502 40.8526 44.7351 41.5129 44.0823 41.8268L37.87 44.8142Z" fill="#1F9CF0"/>
</g>
<g style="mix-blend-mode:overlay" opacity="0.25">
<path style="mix-blend-mode:overlay" opacity="0.25" fill-rule="evenodd" clip-rule="evenodd" d="M36.3642 44.872C36.8391 45.0569 37.3808 45.0451 37.8601 44.8145L44.0686 41.827C44.721 41.5131 45.1359 40.8528 45.1359 40.1285V19.872C45.1359 19.1476 44.721 18.4873 44.0686 18.1734L37.8601 15.1859C37.2311 14.8832 36.4947 14.9574 35.9425 15.3588C35.8637 15.4161 35.7885 15.4801 35.7179 15.5507L23.8326 26.394L18.6555 22.4642C18.1736 22.0983 17.4994 22.1283 17.0519 22.5355L15.3914 24.0459C14.8439 24.544 14.8433 25.4053 15.3901 25.9041L19.8798 30.0002L15.3901 34.0963C14.8433 34.5951 14.8439 35.4564 15.3914 35.9544L17.0519 37.4648C17.4994 37.8721 18.1736 37.902 18.6555 37.5362L23.8326 33.6063L35.7179 44.4497C35.906 44.6378 36.1268 44.7795 36.3642 44.872ZM37.6016 23.1545L28.5832 30.0002L37.6016 36.8458V23.1545Z" fill="url(#paint0_linear_1_1025)"/>
</g>
</g>
</g>
<defs>
<filter id="filter0_d_1_1025" x="-6.35312" y="0.874973" width="72.8406" height="65.4579" filterUnits="userSpaceOnUse" color-interpolation-filters="sRGB">
<feFlood flood-opacity="0" result="BackgroundImageFix"/>
<feColorMatrix in="SourceAlpha" type="matrix" values="0 0 0 0 0 0 0 0 0 0 0 0 0 0 0 0 0 0 127 0" result="hardAlpha"/>
<feOffset/>
<feGaussianBlur stdDeviation="10.6667"/>
<feColorMatrix type="matrix" values="0 0 0 0 0 0 0 0 0 0 0 0 0 0 0 0 0 0 0.25 0"/>
<feBlend mode="overlay" in2="BackgroundImageFix" result="effect1_dropShadow_1_1025"/>
<feBlend mode="normal" in="SourceGraphic" in2="effect1_dropShadow_1_1025" result="shape"/>
</filter>
<filter id="filter1_d_1_1025" x="14.3932" y="-6.3334" width="52.0904" height="72.6667" filterUnits="userSpaceOnUse" color-interpolation-filters="sRGB">
<feFlood flood-opacity="0" result="BackgroundImageFix"/>
<feColorMatrix in="SourceAlpha" type="matrix" values="0 0 0 0 0 0 0 0 0 0 0 0 0 0 0 0 0 0 127 0" result="hardAlpha"/>
<feOffset/>
<feGaussianBlur stdDeviation="10.6667"/>
<feColorMatrix type="matrix" values="0 0 0 0 0 0 0 0 0 0 0 0 0 0 0 0 0 0 0.25 0"/>
<feBlend mode="overlay" in2="BackgroundImageFix" result="effect1_dropShadow_1_1025"/>
<feBlend mode="normal" in="SourceGraphic" in2="effect1_dropShadow_1_1025" result="shape"/>
</filter>
<linearGradient id="paint0_linear_1_1025" x1="30.0582" y1="15.0002" x2="30.0582" y2="45.0001" gradientUnits="userSpaceOnUse">
<stop stop-color="white"/>
<stop offset="1" stop-color="white" stop-opacity="0"/>
</linearGradient>
<clipPath id="clip0_1_1025">
<rect width="60" height="60" fill="white"/>
</clipPath>
</defs>
</svg>
