<svg width="39" height="34" viewBox="0 0 39 34" fill="none" xmlns="http://www.w3.org/2000/svg">
<path d="M38.4049 17C38.4049 25.824 30.0029 33 19.6756 33C9.34827 33 0.94632 25.824 0.94632 17C0.94632 8.1776 9.34827 1 19.6756 1C30.0029 1 38.4049 8.1776 38.4049 17Z" stroke="#E4E4E4" stroke-width="0.5"/>
<path d="M27.58 14.6931C27.58 14.9987 27.4432 15.3059 27.1698 15.5395L20.6707 21.1187C20.4066 21.3443 20.0489 21.4707 19.6743 21.4707C19.3016 21.4707 18.9439 21.3443 18.6798 21.1187L12.177 15.5395C11.6301 15.0707 11.6301 14.3123 12.1808 13.8435C12.7314 13.3763 13.621 13.3779 14.1679 13.8467L19.6743 18.5715L25.1807 13.8467C25.7276 13.3779 26.6154 13.3763 27.166 13.8435C27.4432 14.0771 27.58 14.3859 27.58 14.6931Z" fill="black"/>
</svg>
