<svg width="25" height="22" viewBox="0 0 25 22" fill="none" xmlns="http://www.w3.org/2000/svg">
<path d="M1.21843 11C1.21843 5.485 6.46964 1 12.9242 1C19.3788 1 24.63 5.485 24.63 11C24.63 16.514 19.3788 21 12.9242 21C6.46964 21 1.21843 16.514 1.21843 11Z" stroke="#E4E4E4" stroke-width="0.5"/>
<path d="M7.98425 12.442C7.98425 12.251 8.0697 12.059 8.24061 11.913L12.3025 8.42603C12.4676 8.28503 12.6911 8.20603 12.9253 8.20603C13.1582 8.20603 13.3818 8.28503 13.5468 8.42603L17.6111 11.913C17.9529 12.206 17.9529 12.68 17.6088 12.973C17.2646 13.265 16.7086 13.264 16.3668 12.971L12.9253 10.018L9.48376 12.971C9.14195 13.264 8.5871 13.265 8.24295 12.973C8.0697 12.827 7.98425 12.634 7.98425 12.442Z" fill="black"/>
</svg>
