<svg width="299" height="56" viewBox="0 0 299 56" fill="none" xmlns="http://www.w3.org/2000/svg">
<path d="M298.621 26.0797C276.01 -5.54768 250.82 0.454304 250.82 0.454304C247.527 1.23862 238.81 3.48216 232.648 12.6653C232.582 12.763 232.705 12.8792 232.799 12.807L235.701 10.5791C238.657 8.30914 240.128 7.69087 241.86 6.71415C243.209 5.91421 245.792 4.87497 249.066 4.10238C251.117 3.6189 257.159 2.68124 263.236 4.62883C264.661 5.08594 275.233 8.15189 279.963 18.4036C281.109 20.8855 281.795 23.758 281.838 27.1063C281.983 38.3435 274.146 46.9094 265.894 50.6854C252.494 56.8153 236.524 48.5298 234.895 47.9975C234.447 47.851 245.959 56.5516 260.023 55.9734C281.988 55.0699 295.67 33.5946 298.698 28.3887C299.113 27.6757 299.108 26.7751 298.635 26.0992C298.63 26.0934 298.626 26.0865 298.621 26.0797Z" fill="white"/>
<path d="M270.872 41.9191C268.817 45.2058 265.39 47.7834 261.408 49.0756C260.413 49.4028 259.382 49.6255 258.336 49.8052C257.288 49.9683 256.223 50.0308 255.146 50.0406C252.996 50.025 250.814 49.6743 248.727 48.974C247.688 48.6146 246.66 48.1956 245.674 47.6857C244.694 47.1671 243.744 46.5791 242.845 45.9169C241.949 45.2507 241.084 44.5319 240.3 43.7261C239.516 42.9212 238.779 42.0656 238.108 41.1553C237.438 40.244 236.856 39.2683 236.332 38.2603C235.822 37.2455 235.373 36.1974 235.004 35.1172C234.305 32.9469 233.921 30.6711 233.881 28.3963C233.878 27.2594 233.939 26.1206 234.104 24.9924C234.26 23.8643 234.485 22.7421 234.825 21.653C234.983 21.1051 235.187 20.5727 235.381 20.0375C235.6 19.512 235.808 18.9826 236.062 18.4747C236.298 17.9581 236.575 17.4619 236.844 16.9637C237.132 16.4754 237.429 15.9929 237.756 15.5319C238.07 15.0611 238.422 14.6196 238.764 14.1723C239.128 13.7415 239.483 13.3049 239.873 12.9006C240.631 12.0713 241.473 11.3251 242.356 10.6414C244.108 9.25737 246.08 8.17711 248.145 7.42112C249.174 7.03239 250.237 6.74816 251.307 6.54305C251.839 6.42779 252.38 6.36333 252.915 6.28617C253.454 6.23245 253.992 6.18556 254.53 6.17677C256.68 6.09571 258.804 6.377 260.813 6.96011C264.827 8.13609 268.325 10.614 270.477 13.8343L270.148 14.1908C267.43 11.7275 263.995 10.0876 260.392 9.5455C256.795 8.97314 253.037 9.4576 249.727 10.9608C246.412 12.4522 243.558 14.937 241.619 18.0049C239.667 21.066 238.656 24.7043 238.727 28.328C238.752 31.9526 239.868 35.5616 241.906 38.567C243.933 41.5792 246.856 43.9829 250.212 45.3797C253.563 46.7891 257.335 47.1719 260.914 46.4931C264.5 45.8485 267.889 44.1128 270.536 41.5724L270.872 41.9191Z" fill="white"/>
<path d="M267.97 38.5971C266.909 39.1803 265.786 39.6442 264.626 39.9734C264.045 40.1394 263.458 40.2644 262.861 40.364C262.263 40.4656 261.665 40.5389 261.064 40.5828C258.668 40.7811 256.217 40.4568 254.041 39.4684C252.951 38.983 251.956 38.2983 251.056 37.5315C250.175 36.7306 249.389 35.8115 248.745 34.8084C248.097 33.8063 247.58 32.7212 247.235 31.5843C246.888 30.4483 246.721 29.2626 246.71 28.0759C246.693 25.7014 247.379 23.3241 248.652 21.3091C249.29 20.3031 250.066 19.385 250.958 18.5948C251.848 17.8027 252.867 17.1678 253.957 16.6853C254.079 16.6325 254.202 16.5818 254.326 16.5329C254.155 16.822 254.01 17.1277 253.896 17.4452C253.475 18.5948 253.474 19.8929 253.895 21.0034C254.318 22.111 255.143 23.078 256.336 23.411L256.415 23.4325C256.441 23.4393 256.468 23.4364 256.493 23.4218C256.539 23.3934 256.555 23.3329 256.528 23.286C256.3 22.9031 256.119 22.4968 255.986 22.0768C255.847 21.6597 255.757 21.2261 255.716 20.7905C255.631 19.9182 255.731 19.0304 256.035 18.2129C256.321 17.3885 256.806 16.6374 257.423 16.0182C257.544 15.8961 257.672 15.7808 257.803 15.6705C258.859 15.5523 259.93 15.5552 260.987 15.6783C262.178 15.8062 263.379 16.069 264.552 16.3649C265.724 16.6745 266.875 17.073 267.989 17.5575L268.155 17.1883C267.18 16.3425 266.093 15.6099 264.928 15.0092C264.638 14.8588 264.343 14.7074 264.042 14.5756C263.749 14.4417 263.462 14.3118 263.157 14.1819C262.551 13.9251 261.911 13.7043 261.247 13.509C258.54 12.7481 255.56 12.7706 252.679 13.716C251.966 13.968 251.25 14.2542 250.566 14.6254C250.39 14.7113 250.223 14.808 250.059 14.9115L249.562 15.2182C249.243 15.437 248.921 15.6568 248.615 15.8932C247.381 16.8337 246.325 17.9834 245.432 19.2492C245.212 19.5676 245.002 19.8948 244.801 20.2269C244.619 20.5687 244.424 20.9067 244.257 21.2583C243.922 21.9606 243.619 22.6834 243.386 23.4325C242.919 24.9298 242.685 26.5072 242.673 28.0866C242.699 29.666 242.948 31.258 243.434 32.7622C243.945 34.2585 244.654 35.665 245.545 36.9084C245.76 37.2258 246.008 37.5149 246.241 37.8148C246.488 38.1029 246.731 38.393 246.993 38.6665C247.504 39.2252 248.069 39.7253 248.678 40.2087C248.835 40.3299 248.989 40.45 249.158 40.5701C249.324 40.6893 249.482 40.785 249.645 40.8915L250.13 41.2011C250.291 41.3046 250.452 41.4072 250.627 41.4892C250.972 41.6621 251.311 41.8379 251.658 41.9971L252.717 42.4201C253.076 42.5402 253.436 42.6506 253.798 42.7512C254.161 42.8469 254.529 42.9113 254.891 42.9885C255.254 43.0608 255.621 43.095 255.983 43.1467C256.345 43.1946 256.711 43.1956 257.071 43.2161C257.432 43.2259 257.79 43.2132 258.146 43.2092C258.501 43.1868 258.854 43.1712 259.204 43.1282C259.901 43.0364 260.587 42.9299 261.253 42.76C261.917 42.5881 262.575 42.3898 263.187 42.1524C263.808 41.9112 264.445 41.6455 265.03 41.3193C265.621 41.0018 266.183 40.6414 266.71 40.2459C266.971 40.0437 267.224 39.8337 267.469 39.6178C267.716 39.4059 267.95 39.1793 268.171 38.941L267.97 38.5971Z" fill="white"/>
<path d="M26 12.8578L25.4135 15.6081C23.3349 15.0073 21.3884 14.7053 19.5806 14.7053C17.6502 14.7053 15.8875 15.0202 14.289 15.6531C12.6906 16.2828 11.321 17.1857 10.1738 18.3584C9.02652 19.5311 8.13064 20.9737 7.4829 22.6862C6.83515 24.3987 6.50967 26.3393 6.50967 28.5016C6.50967 30.6639 6.83193 32.6045 7.4829 34.317C8.13064 36.0295 9.03619 37.4721 10.1963 38.6448C11.3565 39.8175 12.7422 40.7204 14.3567 41.3501C15.968 41.9798 17.7405 42.2979 19.6708 42.2979C21.5077 42.2979 23.4251 42.012 25.4135 41.4401L26 44.1453C24.7947 44.4441 23.6024 44.6626 22.4261 44.7976C21.2499 44.9325 20.0897 45 18.9457 45C16.3225 45 13.8572 44.6305 11.553 43.8948C9.24566 43.159 7.2412 42.0859 5.53966 40.6722C3.8349 39.2585 2.48785 37.5331 1.49207 35.4865C0.496282 33.4463 0 31.1169 0 28.5016C0 25.8863 0.489836 23.5569 1.46951 21.5135C2.44918 19.4701 3.79946 17.7415 5.51711 16.3278C7.23476 14.9141 9.23922 13.841 11.5305 13.1052C13.8218 12.3695 16.2774 12 18.9006 12C20.0446 12 21.2144 12.0675 22.4036 12.2024C23.5959 12.3406 24.7947 12.559 26 12.8578Z" fill="white"/>
<path d="M29 13H36.6846L47.9112 27.081L57.6473 13H61L48.9834 30.4628V45H42.9286V30.5085L29 13Z" fill="white"/>
<path d="M74.8205 13L86.8737 38.5557L98.831 13H102L87.0174 45H83.0784L68 13H74.8205Z" fill="white"/>
<path d="M104 9.36348C104 8.41186 104.347 7.61448 105.041 6.96803C105.735 6.32487 106.553 6 107.5 6C108.447 6 109.265 6.32159 109.959 6.96803C110.653 7.61119 111 8.41186 111 9.36348C111 10.3479 110.653 11.1584 109.959 11.8049C109.265 12.448 108.447 12.7729 107.5 12.7729C106.553 12.7729 105.735 12.4513 105.041 11.8049C104.347 11.1584 104 10.3446 104 9.36348ZM104.424 45V15.0699H110.569V45H104.424Z" fill="white"/>
<path d="M115 20.9705C115 19.2291 115.448 17.7865 116.351 16.6427C117.251 15.5021 118.375 14.5832 119.717 13.8924C121.062 13.2016 122.514 12.7133 124.08 12.4273C125.646 12.1414 127.092 12 128.421 12C129.722 12 130.887 12.106 131.92 12.3149C132.952 12.5269 133.877 12.8096 134.689 13.1727C135.5 13.5326 136.21 13.9406 136.817 14.3904C137.423 14.8402 137.947 15.2932 138.389 15.7431C139.421 16.8547 140.16 18.1174 140.605 19.5311L137.814 20.4789C137.578 19.3962 137.091 18.4355 136.353 17.5937C135.734 16.8708 134.802 16.2121 133.562 15.6113C132.321 15.0105 130.606 14.7085 128.421 14.7085C127.771 14.7085 127.02 14.792 126.161 14.9559C125.305 15.123 124.5 15.3832 123.746 15.7463C122.991 16.1061 122.35 16.5881 121.82 17.1889C121.289 17.7897 121.021 18.5255 121.021 19.3994C121.021 20.601 121.517 21.5777 122.505 22.3296C123.493 23.0814 124.728 23.7497 126.205 24.3344C127.683 24.9192 129.283 25.5007 131.01 26.0694C132.737 26.6413 134.341 27.3385 135.816 28.1643C137.293 28.99 138.525 30.0213 139.516 31.2519C140.504 32.4856 141 34.0471 141 35.9396C141 37.6842 140.549 39.1332 139.649 40.2899C138.746 41.4465 137.625 42.3718 136.283 43.0626C134.938 43.7534 133.483 44.2514 131.92 44.5502C130.354 44.849 128.908 45 127.579 45C126.278 45 125.113 44.894 124.08 44.6851C123.048 44.4731 122.123 44.1904 121.311 43.8273C120.5 43.4674 119.79 43.0626 119.183 42.6096C118.577 42.1598 118.053 41.6939 117.611 41.212C116.575 40.1292 115.84 38.8826 115.395 37.4689L117.744 36.5211C118.037 37.6038 118.599 38.5645 119.426 39.4063C120.105 40.1292 121.094 40.7879 122.394 41.3887C123.695 41.9895 125.422 42.2915 127.579 42.2915C128.229 42.2915 128.98 42.208 129.839 42.0441C130.695 41.8803 131.506 41.6072 132.277 41.2312C133.044 40.8553 133.694 40.3605 134.225 39.7437C134.755 39.1268 135.023 38.3846 135.023 37.5107C135.023 36.6078 134.736 35.8432 134.158 35.2102C133.584 34.5805 132.829 34.015 131.898 33.5202C130.966 33.0254 129.896 32.566 128.687 32.1451C127.474 31.7242 126.249 31.2872 125.009 30.8374C123.768 30.3876 122.543 29.8832 121.33 29.3273C120.118 28.7715 119.048 28.1096 118.119 27.345C117.188 26.5771 116.437 25.6774 115.859 24.6397C115.287 23.6083 115 22.3842 115 20.9705Z" fill="white"/>
<path d="M144 9.36348C144 8.41186 144.297 7.61448 144.892 6.96803C145.487 6.32487 146.189 6 147 6C147.811 6 148.513 6.32159 149.108 6.96803C149.703 7.61119 150 8.41186 150 9.36348C150 10.3479 149.703 11.1584 149.108 11.8049C148.513 12.448 147.811 12.7729 147 12.7729C146.189 12.7729 145.487 12.4513 144.892 11.8049C144.297 11.1584 144 10.3446 144 9.36348ZM144.367 45V15.0699H149.633V45H144.367Z" fill="white"/>
<path d="M169.502 12C171.801 12 173.904 12.3919 175.812 13.1726C177.716 13.9533 179.349 15.0584 180.7 16.4848C182.053 17.9112 183.108 19.6396 183.864 21.67C184.62 23.6971 185 25.9749 185 28.5C185 31.0251 184.62 33.2997 183.864 35.33C183.108 37.3572 182.044 39.0856 180.678 40.5152C179.309 41.9416 177.679 43.0467 175.79 43.8274C173.898 44.6081 171.801 45 169.502 45C167.202 45 165.105 44.6081 163.213 43.8274C161.321 43.0467 159.691 41.9416 158.322 40.5152C156.953 39.0888 155.892 37.3604 155.136 35.33C154.38 33.3029 154 31.0251 154 28.5C154 25.9749 154.376 23.7003 155.136 21.67C155.892 19.6428 156.947 17.9144 158.3 16.4848C159.654 15.0584 161.284 13.9533 163.191 13.1726C165.099 12.3919 167.202 12 169.502 12ZM169.502 42.295C171.045 42.295 172.389 41.9512 173.54 41.2573C174.688 40.5666 175.644 39.6124 176.4 38.3949C177.156 37.1773 177.732 35.722 178.124 34.0225C178.516 32.3262 178.712 30.4854 178.712 28.5C178.712 26.4857 178.522 24.6384 178.145 22.955C177.766 21.2716 177.19 19.8227 176.422 18.6051C175.65 17.3876 174.688 16.4334 173.54 15.7427C172.389 15.052 171.045 14.705 169.502 14.705C167.958 14.705 166.611 15.052 165.463 15.7427C164.312 16.4334 163.353 17.3876 162.582 18.6051C161.81 19.8227 161.234 21.2716 160.858 22.955C160.478 24.6384 160.291 26.4857 160.291 28.5C160.291 30.4822 160.488 32.323 160.88 34.0225C161.272 35.722 161.847 37.1773 162.603 38.3949C163.359 39.6124 164.321 40.5666 165.485 41.2573C166.648 41.948 167.989 42.295 169.502 42.295Z" fill="white"/>
<path d="M191.671 17.4341V45H189V13H195.812L212.329 40.5659V13H215V45H208.188L191.671 17.4341Z" fill="white"/>
</svg>
