<svg width="320" height="341" viewBox="0 0 320 341" fill="none" xmlns="http://www.w3.org/2000/svg">
<g clip-path="url(#clip0_1_1135)">
<path fill-rule="evenodd" clip-rule="evenodd" d="M318.127 122.176C318.051 120.859 317.883 119.561 317.628 118.307C317.333 116.392 316.848 114.57 316.192 112.911C315.482 110.975 314.599 109.225 313.57 107.718C313.152 106.934 312.668 106.249 312.134 105.682C311.472 104.877 310.784 104.129 310.074 103.442L230.979 28.9149C229.544 27.5913 228.482 26.9804 228.295 26.7768L225.735 25.3514L224.362 24.7406L221.615 23.9261L220.242 23.7224L217.433 23.5188L214.623 23.7224L213.25 23.9261L210.441 24.7406L209.005 25.4532L206.446 26.8786L205.01 27.9986L203.886 29.0167L184.471 47.343L165.057 65.7712L145.642 84.1993L126.227 102.526L106.812 120.954L87.46 139.28L68.0452 157.708L48.6305 176.136L29.2158 194.463L9.801 212.891L10.0507 212.687L9.801 212.891L8.17791 214.622C7.54692 215.38 6.94252 216.196 6.36753 217.065C5.45994 218.459 4.66299 220.032 3.99531 221.749C3.62567 222.663 3.29206 223.615 2.99648 224.599C2.87162 225.312 2.62192 226.126 2.49706 226.839C2.37221 227.552 2.30978 227.857 2.18493 228.366C2.04475 229.167 1.94043 229.984 1.87279 230.81C1.81037 231.726 1.74794 233.05 1.74794 233.966V236.715C1.73616 237.463 1.75702 238.212 1.81037 238.955C1.82133 239.503 1.86312 240.048 1.93522 240.584C2.00268 241.343 2.10705 242.092 2.24736 242.824C2.38578 243.62 2.55253 244.401 2.74677 245.165C2.8449 245.658 2.97027 246.135 3.12133 246.591C3.35405 247.47 3.62527 248.321 3.93288 249.136C4.12016 249.442 4.55715 250.663 5.30627 251.987C5.79951 252.944 6.34256 253.83 6.92937 254.634C7.51068 255.502 8.13733 256.286 8.80217 256.976L9.86343 258.096L9.67615 257.892L9.86343 258.096L17.7916 265.528L25.7199 272.96L33.6481 280.393L41.5138 287.927L49.4421 295.359L57.3703 302.792L65.236 310.224L73.1643 317.656L81.0925 325.089L88.9582 332.521H89.0207C89.889 333.349 90.7852 334.097 91.705 334.761L94.2645 336.186L95.6379 336.797L98.3847 337.612L99.7581 337.815L102.567 338.019L105.377 337.815L106.75 337.612L109.497 336.797C109.986 336.621 110.466 336.382 110.932 336.084L113.492 334.659L114.928 333.539C115.336 333.24 115.732 332.9 116.114 332.521L116.364 332.317L116.114 332.521L135.529 314.195L154.943 295.767L174.296 277.338L193.71 259.012L213.125 240.584L232.54 222.156L251.955 203.829L271.369 185.401L290.784 167.075L310.137 148.647L310.324 148.443L310.137 148.647C310.826 147.994 311.493 147.28 312.134 146.509L313.945 143.963L315.193 141.724C315.568 140.909 316.005 139.687 316.317 138.873C316.595 138.169 316.825 137.418 317.004 136.633C317.317 135.438 317.588 134.214 317.815 132.968C317.928 132.231 318.012 131.483 318.065 130.728C318.14 130.021 318.182 129.307 318.19 128.59C318.179 128.247 318.2 127.904 318.252 127.572V124.721C318.237 123.87 318.195 123.02 318.127 122.176Z" fill="white"/>
<path d="M230.542 30.2384C230.752 30.391 230.988 30.4131 231.207 30.3005C231.425 30.1879 231.611 29.9485 231.728 29.6275C231.843 29.3028 231.874 28.9179 231.815 28.556C231.757 28.1941 231.614 27.8841 231.416 27.6931L230.542 30.2384ZM231.104 27.4894C230.897 27.3502 230.664 27.3465 230.455 27.4792C230.246 27.6119 230.076 27.8707 229.98 28.2021C229.929 28.3677 229.9 28.5489 229.895 28.7341C229.889 28.9193 229.908 29.1042 229.949 29.277C229.99 29.4498 230.053 29.6065 230.134 29.737C230.215 29.8676 230.311 29.969 230.417 30.0348L231.104 27.4894ZM231.416 27.6931L231.104 27.4894L230.417 30.0348L230.542 30.2384L231.416 27.6931ZM318.127 122.175L319.875 121.768L318.127 122.175ZM317.628 118.307L319.313 117.492L317.628 118.307ZM316.192 112.91L314.694 114.438L316.192 112.91ZM313.57 107.718L314.819 105.58L313.57 107.718ZM312.134 105.682L311.135 107.922L312.134 105.682ZM310.074 103.442L311.011 100.998H310.948L310.074 103.442ZM230.979 28.9148L231.853 26.4713L230.979 28.9148ZM228.295 26.7767L227.671 29.4239L228.295 26.7767ZM225.735 25.3514L226.235 22.6024L225.735 25.3514ZM224.362 24.7405L223.925 27.4894L224.362 24.7405ZM221.615 23.926L221.428 26.7767L221.615 23.926ZM220.242 23.7224V20.8716V23.7224ZM217.433 23.5187V20.668V23.5187ZM214.623 23.7224L214.499 20.8716L214.623 23.7224ZM213.25 23.926L213 21.0752L213.25 23.926ZM210.441 24.7405L210.878 27.5912L210.441 24.7405ZM209.005 25.4532L208.506 22.7042H208.443L209.005 25.4532ZM206.446 26.8786L207.07 29.5257L206.446 26.8786ZM205.01 27.9985L205.821 30.5438L205.01 27.9985ZM203.886 29.0166L203.012 26.4713C202.607 26.8364 202.307 27.4488 202.178 28.1741C202.049 28.8995 202.102 29.6785 202.325 30.3402C202.43 30.6777 202.576 30.9766 202.754 31.218C202.932 31.4594 203.139 31.6383 203.362 31.7434C203.584 31.8485 203.818 31.8776 204.048 31.8288C204.278 31.7801 204.499 31.6546 204.698 31.4601L203.886 29.0166ZM204.011 28.9148L204.822 31.3583C205.021 31.1875 205.197 30.9537 205.339 30.6708C205.481 30.3878 205.588 30.0612 205.652 29.7103C205.716 29.3594 205.736 28.9912 205.711 28.6274C205.687 28.2635 205.618 27.9112 205.509 27.5912C205.41 27.2588 205.271 26.9624 205.1 26.7198C204.929 26.4772 204.729 26.2933 204.514 26.1793C204.298 26.0652 204.07 26.0233 203.845 26.056C203.619 26.0886 203.399 26.1953 203.199 26.3695L204.011 28.9148ZM203.886 29.0166L203.012 26.4713L203.886 29.0166ZM184.471 47.3429L185.345 49.7865L184.471 47.3429ZM165.057 65.7711L164.183 63.3276L165.057 65.7711ZM145.642 84.1992L146.516 86.6427L145.642 84.1992ZM126.227 102.526L125.353 100.082L126.227 102.526ZM106.812 120.954L107.686 123.397L106.812 120.954ZM87.46 139.28L86.586 136.836L87.46 139.28ZM68.0453 157.708L67.1713 155.265L68.0453 157.708ZM48.6305 176.136L49.5045 178.58L48.6305 176.136ZM29.2158 194.463L28.3418 192.019L29.2158 194.463ZM9.80101 212.891L8.92704 210.447C8.69919 210.606 8.49466 210.842 8.32701 211.14C8.15937 211.437 8.03244 211.79 7.95464 212.173C7.87685 212.557 7.84996 212.963 7.87578 213.365C7.90159 213.767 7.97952 214.156 8.10438 214.505C8.22924 214.854 8.39818 215.156 8.6 215.39C8.80182 215.625 9.03191 215.787 9.275 215.865C9.51809 215.943 9.76863 215.937 10.01 215.845C10.2514 215.754 10.478 215.579 10.675 215.334L9.80101 212.891ZM10.0507 212.687L10.7998 215.334C11.2109 215.003 11.5296 214.431 11.6918 213.731C11.854 213.032 11.8476 212.259 11.6738 211.567C11.4831 210.879 11.1327 210.343 10.6997 210.075C10.2666 209.808 9.78628 209.832 9.36403 210.142L10.0507 212.687ZM9.80101 212.891L8.92704 210.447L9.80101 212.891ZM8.17792 214.622L9.23917 216.861L8.17792 214.622ZM6.36754 217.065L5.18143 215.029L6.36754 217.065ZM3.99532 221.748L5.49356 223.174L3.99532 221.748ZM2.99649 224.599L1.43582 223.479L2.99649 224.599ZM2.49707 226.839L0.811549 225.821L2.49707 226.839ZM2.18494 228.366L3.87046 229.181L2.18494 228.366ZM1.87281 230.81L3.62076 231.115L1.87281 230.81ZM1.81038 238.955L3.55833 238.751L1.81038 238.955ZM1.93523 240.584L3.68318 240.177L1.93523 240.584ZM2.24737 242.824L0.561842 243.638L2.24737 242.824ZM2.74678 245.165L1.06126 246.082L2.74678 245.165ZM3.12134 246.591L4.74444 245.471L3.12134 246.591ZM3.93289 249.136L5.43114 247.609L3.93289 249.136ZM5.30628 251.987L6.61725 250.154L5.30628 251.987ZM6.92938 254.634L5.74327 256.772L6.92938 254.634ZM8.80219 256.976L9.80101 254.634L8.80219 256.976ZM9.86344 258.096L8.98947 260.539C9.38683 260.931 9.86328 261.049 10.314 260.867C10.7647 260.686 11.1528 260.22 11.3929 259.572C11.633 258.924 11.7054 258.147 11.5941 257.412C11.4829 256.677 11.1972 256.044 10.7998 255.652L9.86344 258.096ZM9.67616 257.892L10.675 255.55C10.3019 255.107 9.83657 254.923 9.38048 255.037C8.92438 255.152 8.51454 255.556 8.24034 256.161C8.10048 256.464 8.00045 256.81 7.94652 257.178C7.89259 257.547 7.88593 257.929 7.92697 258.302C7.968 258.675 8.05583 259.03 8.18496 259.345C8.31408 259.66 8.48171 259.928 8.67733 260.132L9.67616 257.892ZM9.86344 258.096L8.98947 260.539L9.86344 258.096ZM17.7917 265.528L16.9177 267.971L17.7917 265.528ZM25.7199 272.96L24.8459 275.506L25.7199 272.96ZM33.6481 280.393L34.522 277.949L33.6481 280.393ZM41.5139 287.927L40.6399 290.37L41.5139 287.927ZM49.4421 295.359L50.316 292.814L49.4421 295.359ZM57.3703 302.791L56.4963 305.235L57.3703 302.791ZM65.2361 310.224L66.11 307.78L65.2361 310.224ZM73.1643 317.656L74.0382 315.213L73.1643 317.656ZM81.0925 325.089L80.2185 327.634L81.0925 325.089ZM88.9583 332.521L89.9571 330.179H89.8322L88.9583 332.521ZM89.0207 332.521L88.0219 334.964H88.1467L89.0207 332.521ZM91.705 334.761L92.3293 332.114L91.705 334.761ZM94.2645 336.186L94.764 333.437L94.2645 336.186ZM95.6379 336.797L95.2009 339.546L95.6379 336.797ZM98.3847 337.611L98.1974 340.462L98.3847 337.611ZM99.7581 337.815L99.6333 340.666L99.7581 337.815ZM102.567 338.019V335.168V338.019ZM105.377 337.815V340.666V337.815ZM106.75 337.611L106.937 340.462L106.75 337.611ZM109.497 336.797L109.934 339.546L109.497 336.797ZM110.933 336.084L110.433 333.437L110.933 336.084ZM113.492 334.659L112.868 332.012L113.492 334.659ZM114.928 333.539L115.739 336.084L114.928 333.539ZM116.114 332.521L116.925 335.066C116.988 335.066 116.988 335.066 116.988 334.964L116.114 332.521ZM116.364 332.317L117.362 334.557C117.553 334.345 117.715 334.071 117.838 333.752C117.962 333.433 118.043 333.077 118.078 332.704C118.114 332.332 118.101 331.952 118.043 331.588C117.984 331.223 117.88 330.882 117.737 330.586C117.463 329.981 117.053 329.577 116.597 329.463C116.141 329.348 115.675 329.533 115.302 329.975L116.364 332.317ZM116.114 332.521L115.24 330.077C114.834 330.455 114.537 331.081 114.414 331.816C114.292 332.551 114.353 333.336 114.584 333.997C114.816 334.659 115.2 335.143 115.65 335.343C116.101 335.544 116.582 335.444 116.988 335.066L116.114 332.521ZM135.529 314.195L136.403 316.638L135.529 314.195ZM154.943 295.766L154.069 293.323L154.943 295.766ZM174.296 277.338L173.422 274.895L174.296 277.338ZM193.71 259.012L194.584 261.455L193.71 259.012ZM213.125 240.584L212.251 238.14L213.125 240.584ZM232.54 222.156L233.414 224.701L232.54 222.156ZM251.955 203.829L251.081 201.386L251.955 203.829ZM271.37 185.401L270.496 182.958L271.37 185.401ZM290.784 167.075L291.658 169.518L290.784 167.075ZM310.137 148.647L309.263 146.203L310.137 148.647ZM311.323 150.785C311.511 150.571 311.672 150.299 311.796 149.983C311.92 149.668 312.005 149.316 312.045 148.947C312.086 148.578 312.082 148.2 312.033 147.834C311.984 147.468 311.891 147.122 311.76 146.814C311.629 146.507 311.461 146.244 311.268 146.042C311.075 145.84 310.859 145.702 310.633 145.635C310.407 145.569 310.175 145.576 309.951 145.656C309.726 145.736 309.514 145.888 309.325 146.101L311.323 150.785ZM310.137 148.647L309.263 146.203C308.924 146.625 308.691 147.234 308.609 147.916C308.526 148.598 308.599 149.305 308.814 149.905C309.028 150.506 309.37 150.958 309.775 151.176C310.179 151.394 310.619 151.364 311.011 151.09L310.137 148.647ZM312.134 146.509L313.195 148.749L312.134 146.509ZM313.945 143.963L315.131 146L313.945 143.963ZM315.193 141.723L313.757 139.891L315.193 141.723ZM316.317 138.873L317.815 140.298L316.317 138.873ZM317.004 136.633L318.627 137.753L317.004 136.633ZM317.815 132.968L319.501 133.68L317.815 132.968ZM318.065 130.728L319.813 131.135L318.065 130.728ZM318.19 128.59L316.442 128.386L318.19 128.59ZM319.875 121.768C319.765 120.319 319.577 118.888 319.313 117.492L316.005 119.019C316.19 120.188 316.315 121.38 316.379 122.583L319.875 121.768ZM319.313 117.492C318.931 115.353 318.386 113.3 317.69 111.383L314.694 114.438C315.218 115.894 315.657 117.428 316.005 119.019L319.313 117.492ZM317.69 111.383C316.875 109.273 315.911 107.326 314.819 105.58L312.384 109.754C313.293 111.118 314.072 112.697 314.694 114.438L317.69 111.383ZM314.819 105.58L313.195 103.34L311.135 108.023C311.582 108.54 311.999 109.119 312.384 109.754L314.819 105.58ZM313.195 103.34L311.011 100.998L309.138 105.885L311.135 107.922L313.195 103.34ZM310.948 100.998L271.432 63.7348L231.853 26.4713L230.105 31.4601C243.257 43.8813 256.449 56.2685 269.684 68.6218L309.2 105.885L310.948 100.998ZM231.853 26.4713C230.9 25.6108 229.921 24.8292 228.919 24.1296L227.671 29.4239C227.796 29.5257 228.794 30.2384 230.105 31.4601L231.853 26.4713ZM228.919 24.1296L226.235 22.6024L225.174 28.1003L227.671 29.4239L228.919 24.1296ZM226.235 22.6024L224.737 21.9915L223.925 27.4894L225.174 28.1003L226.235 22.6024ZM224.737 21.9915L221.803 21.0752L221.428 26.7767L223.925 27.4894L224.737 21.9915ZM221.803 21.0752L220.304 20.8716L220.117 26.5731L221.428 26.7767L221.803 21.0752ZM220.304 20.8716L217.433 20.668V26.3695L220.117 26.5731L220.304 20.8716ZM217.433 20.668L214.499 20.8716L214.748 26.5731L217.433 26.3695V20.668ZM214.499 20.8716L213 21.0752L213.437 26.7767L214.748 26.5731L214.499 20.8716ZM213 21.0752C212.563 21.177 211.003 21.5843 210.004 21.9915L210.878 27.5912C211.721 27.2383 212.575 26.9663 213.437 26.7767L213 21.0752ZM210.004 21.9915L208.506 22.7042L209.567 28.1003L210.878 27.5912L210.004 21.9915ZM208.443 22.7042L205.821 24.2314L207.07 29.5257L209.567 28.1003L208.443 22.7042ZM205.821 24.2314L204.261 25.3514L205.821 30.5438L207.07 29.5257L205.821 24.2314ZM204.261 25.3514L203.012 26.4713L204.698 31.4601L205.821 30.5438L204.261 25.3514ZM204.76 31.4601L203.199 26.3695H203.012L204.76 31.4601ZM203.199 26.3695H203.012L204.698 31.3583H204.822L203.199 26.3695ZM203.012 26.4713L183.597 44.8994L185.345 49.7865L204.76 31.4601L203.012 26.4713ZM183.597 44.8994L164.183 63.3276L165.931 68.2146L185.345 49.7865L183.597 44.8994ZM164.183 63.3276L144.768 81.6539L146.516 86.6427L165.931 68.2146L164.183 63.3276ZM144.768 81.6539L125.353 100.082L127.101 104.969L146.516 86.6427L144.768 81.6539ZM125.353 100.082L105.938 118.51L107.686 123.397L127.101 104.969L125.353 100.082ZM105.938 118.51L86.586 136.836L88.334 141.825L107.686 123.397L105.938 118.51ZM86.586 136.836L67.1713 155.265L68.9192 160.152L88.334 141.825L86.586 136.836ZM67.1713 155.265L47.7565 173.693L49.5045 178.58L68.9192 160.152L67.1713 155.265ZM47.7565 173.693L28.3418 192.019L30.0897 197.008L49.5045 178.58L47.7565 173.693ZM28.3418 192.019L8.92704 210.447L10.675 215.334L30.0897 197.008L28.3418 192.019ZM10.675 215.334H10.7998L9.36403 210.142L8.92704 210.447L10.675 215.334ZM9.36403 210.142L8.92704 210.447L10.675 215.334H10.7998L9.36403 210.142ZM8.92704 210.447L7.17909 212.28L9.23917 216.861L10.7374 215.334L8.92704 210.447ZM7.17909 212.28C6.48527 213.141 5.81853 214.058 5.18143 215.029L7.55365 219.203C7.99064 218.49 8.73976 217.574 9.23917 216.861L7.17909 212.28ZM5.18143 215.029C4.17031 216.59 3.26988 218.332 2.49707 220.221L5.49356 223.174C6.05447 221.689 6.74891 220.351 7.55365 219.203L5.18143 215.029ZM2.49707 220.221C2.08081 221.25 1.72546 222.341 1.43582 223.479L4.61959 225.821C4.86182 224.898 5.15431 224.012 5.49356 223.174L2.49707 220.221ZM1.43582 223.479L0.811549 225.821L4.12017 227.755C4.24844 227.086 4.41567 226.438 4.61959 225.821L1.43582 223.479ZM0.811549 225.821C0.733366 226.409 0.629047 226.988 0.499415 227.552L3.87046 229.181L4.12017 227.755L0.811549 225.821ZM0.499415 227.552C0.374561 228.468 0.249707 229.588 0.187281 230.403L3.62076 231.115C3.68318 230.504 3.80804 229.69 3.87046 229.181L0.499415 227.552ZM0.187281 230.403C0.0656716 231.546 0.00302556 232.704 0 233.864L3.4959 234.068C3.50424 233.081 3.54592 232.095 3.62076 231.115L0.187281 230.403ZM0 233.966V236.715H3.4959V233.966H0ZM0 236.817C0 237.529 0.0624269 238.446 0.0624269 239.26L3.55833 238.751C3.50641 238.076 3.48554 237.395 3.4959 236.715L0 236.817ZM0.0624269 239.26C0.127678 239.832 0.169389 240.41 0.187281 240.991L3.68318 240.177C3.61944 239.707 3.57771 239.231 3.55833 238.751L0.0624269 239.26ZM0.187281 240.991C0.275495 241.886 0.400633 242.771 0.561842 243.638L3.93289 242.009C3.79027 241.424 3.70597 240.805 3.68318 240.177L0.187281 240.991ZM0.561842 243.638C0.686695 244.351 0.936403 245.369 1.06126 246.082L4.36988 244.147C4.19622 243.451 4.05025 242.736 3.93289 242.009L0.561842 243.638ZM1.06126 246.184L1.49824 247.813L4.74444 245.471L4.36988 244.147L1.06126 246.184ZM1.49824 247.813C1.81038 248.729 2.18494 249.849 2.49707 250.561L5.43114 247.609C5.16635 246.928 4.93666 246.213 4.74444 245.471L1.49824 247.813ZM2.49707 250.561C2.91298 251.774 3.41593 252.902 3.99532 253.921L6.61725 250.154C5.99298 248.932 5.55599 247.813 5.43114 247.609L2.49707 250.561ZM3.99532 253.921L5.74327 256.772L8.11549 252.598L6.61725 250.154L3.99532 253.921ZM5.74327 256.772C6.36754 257.688 7.30394 258.706 7.80336 259.317L9.80101 254.634C9.21034 254.021 8.64709 253.341 8.11549 252.598L5.74327 256.772ZM7.80336 259.317L8.98947 260.539L10.7998 255.652L9.80101 254.634L7.80336 259.317ZM10.7374 255.652H10.675L8.67733 260.234H8.73976L8.98947 260.539L10.7374 255.652ZM8.67733 260.234H8.73976L8.98947 260.539L10.7374 255.652H10.675L8.67733 260.234ZM8.98947 260.539L16.9177 267.971L18.6656 263.084L10.7374 255.652L8.98947 260.539ZM16.9177 267.971L24.8459 275.506L26.5938 270.517L18.6656 263.084L16.9177 267.971ZM24.8459 275.506L32.7741 282.938L34.522 277.949L26.5938 270.517L24.8459 275.506ZM32.7741 282.938L40.6399 290.37L42.3878 285.381L34.522 277.949L32.7741 282.938ZM40.6399 290.37L48.5681 297.803L50.316 292.814L42.3878 285.381L40.6399 290.37ZM48.5681 297.803L56.4963 305.235L58.2443 300.348L50.316 292.814L48.5681 297.803ZM56.4963 305.235L64.3621 312.667L66.11 307.78L58.2443 300.348L56.4963 305.235ZM64.3621 312.667L72.2903 320.1L74.0382 315.213L66.11 307.78L64.3621 312.667ZM72.2903 320.1L80.2185 327.634L81.9665 322.645L74.0382 315.213L72.2903 320.1ZM80.2185 327.634L88.0843 335.066L89.8322 330.077L81.9665 322.645L80.2185 327.634ZM88.0219 334.964L89.9571 330.179L88.0219 334.964ZM88.1467 335.066C89.0931 335.948 90.0731 336.73 91.0808 337.408L92.3293 332.114C92.2045 332.012 91.2056 331.299 89.8322 330.077L88.1467 335.066ZM91.0808 337.408L93.7027 338.935L94.764 333.437L92.3293 332.114L91.0808 337.408ZM93.7027 338.935L95.2009 339.546L96.0749 334.048L94.764 333.437L93.7027 338.935ZM95.2009 339.546L98.1974 340.462L98.572 334.761L96.0749 334.048L95.2009 339.546ZM98.1974 340.462L99.6333 340.666L99.883 334.964L98.572 334.761L98.1974 340.462ZM99.6333 340.666L102.567 340.87V335.168L99.883 334.964L99.6333 340.666ZM102.567 340.87L105.439 340.666L105.252 334.964L102.567 335.168V340.87ZM105.439 340.666L106.937 340.462L106.563 334.761L105.252 334.964L105.439 340.666ZM106.937 340.462C107.437 340.36 108.935 339.953 109.934 339.546L109.122 333.946C108.248 334.353 106.875 334.659 106.563 334.761L106.937 340.462ZM109.934 339.546L111.494 338.833L110.433 333.437L109.122 333.946L109.934 339.546ZM111.494 338.833L114.179 337.306L112.868 332.012L110.433 333.437L111.494 338.833ZM114.179 337.306L115.739 336.084L114.179 330.994L112.868 332.012L114.179 337.306ZM115.739 336.084L116.925 335.066L115.302 330.077L114.179 330.994L115.739 336.084ZM116.988 334.964L117.238 334.761L117.362 334.557L115.302 329.975H115.178C115.178 329.949 115.184 329.923 115.196 329.904C115.208 329.884 115.223 329.874 115.24 329.874L116.988 334.964ZM115.302 329.975H115.24C115.223 329.975 115.208 329.986 115.196 330.005C115.184 330.024 115.178 330.05 115.178 330.077C115.178 330.05 115.184 330.024 115.196 330.005C115.208 329.986 115.223 329.975 115.24 329.975L116.988 334.964L117.238 334.659H117.362L115.302 329.975ZM116.988 335.066L136.403 316.638L134.655 311.649L115.24 330.077L116.988 335.066ZM136.403 316.638L155.817 298.21L154.069 293.323L134.655 311.649L136.403 316.638ZM155.817 298.21L175.232 279.884L173.422 274.895L154.069 293.323L155.817 298.21ZM175.232 279.884L194.584 261.455L192.837 256.568L173.422 274.895L175.232 279.884ZM194.584 261.455L213.999 243.027L212.251 238.14L192.837 256.568L194.584 261.455ZM213.999 243.027L233.414 224.701L231.666 219.712L212.251 238.14L213.999 243.027ZM233.414 224.701L252.829 206.273L251.081 201.386L231.666 219.712L233.414 224.701ZM252.829 206.273L272.243 187.845L270.496 182.958L251.081 201.386L252.829 206.273ZM272.243 187.845L291.658 169.518L289.848 164.53L270.496 182.958L272.243 187.845ZM291.658 169.518L311.011 151.09L309.263 146.203L289.848 164.53L291.658 169.518ZM311.011 151.09L311.26 150.785H311.323L309.325 146.101H309.263L311.011 151.09ZM309.325 146.101C309.308 146.101 309.293 146.112 309.281 146.131C309.269 146.15 309.263 146.176 309.263 146.203L311.011 151.09L311.26 150.785H311.323L309.325 146.101ZM311.073 151.09C311.809 150.38 312.518 149.598 313.195 148.749L311.073 144.269L309.263 146.203L311.073 151.09ZM313.195 148.749C313.869 147.887 314.515 146.969 315.131 146L312.696 141.927L311.073 144.269L313.195 148.749ZM315.131 146C315.641 145.201 316.121 144.351 316.567 143.454L313.757 139.891C313.473 140.658 313.115 141.346 312.696 141.927L315.131 146ZM316.567 143.454C317.004 142.436 317.503 141.214 317.815 140.298L314.881 137.346C314.536 138.228 314.161 139.078 313.757 139.891L316.567 143.454ZM317.815 140.298C318.146 139.505 318.419 138.651 318.627 137.753L315.38 135.615C315.24 136.211 315.073 136.789 314.881 137.346L317.815 140.298ZM318.627 137.753C318.824 137.06 318.991 136.346 319.126 135.615C319.251 135.004 319.376 134.495 319.501 133.68L316.13 132.153C316.073 132.717 315.968 133.266 315.817 133.782C315.699 134.41 315.553 135.022 315.38 135.615L318.627 137.753ZM319.501 133.68C319.635 132.842 319.739 131.992 319.813 131.135L316.317 130.422C316.285 131.007 316.222 131.586 316.13 132.153L319.501 133.68ZM319.813 131.135C319.875 130.422 319.875 129.506 319.938 128.793L316.442 128.386C316.434 129.069 316.392 129.75 316.317 130.422L319.813 131.135ZM319.938 128.895C319.927 128.451 319.948 128.007 320 127.572H316.442V128.386L319.938 128.895ZM320 127.572V124.823H316.504V127.673L320 127.572ZM320 124.721C320 124.313 319.938 122.583 319.875 121.768L316.379 122.583C316.441 122.947 316.462 123.326 316.442 123.703C316.442 124.11 316.504 124.619 316.504 124.823L320 124.721Z" fill="black"/>
<path fill-rule="evenodd" clip-rule="evenodd" d="M306.828 103.849C312.509 109.245 312.572 117.899 306.891 123.295L112.868 307.169C107.187 312.566 98.0105 312.566 92.2672 307.169L13.1724 232.744C7.49155 227.348 7.49156 218.694 13.11 213.298L207.195 29.4239C212.813 24.0278 222.053 24.0278 227.733 29.4239L306.828 103.849Z" fill="#FFB800"/>
<path fill-rule="evenodd" clip-rule="evenodd" d="M92.0796 284.363C97.9477 289.963 107.437 289.963 113.305 284.363H92.0796Z" fill="white"/>
<path d="M92.0796 284.363C97.9477 289.963 107.437 289.963 113.305 284.363" stroke="black" stroke-width="1.445" stroke-linecap="round" stroke-linejoin="round"/>
<path fill-rule="evenodd" clip-rule="evenodd" d="M228.17 7.1269C222.302 1.629 212.813 1.629 206.945 7.22871L228.17 7.1269Z" fill="white"/>
<path d="M228.17 7.1269C222.302 1.629 212.813 1.629 206.945 7.22871" stroke="black" stroke-width="1.445" stroke-linecap="round" stroke-linejoin="round"/>
<path d="M296.902 70.0473H297.027L300.398 73.3053L307.577 80.025L307.14 81.2467L307.577 80.025C310.636 82.8757 312.321 86.7446 312.321 90.9189C312.321 95.0933 310.698 99.064 307.702 101.915L113.617 285.891C110.311 288.701 106.638 290.169 102.911 290.169C99.1827 290.169 95.51 288.701 92.2044 285.891L89.083 283.04L13.1096 211.465C10.1131 208.615 8.36511 204.746 8.36511 200.47C8.36511 196.194 10.0506 192.426 13.0471 189.576L13.4841 190.797L13.0471 189.576L207.07 5.59972C210.388 2.85403 214.056 1.4231 217.776 1.4231C221.496 1.4231 225.164 2.85403 228.482 5.59972L233.851 10.6904L239.22 15.6792L239.407 15.8828C239.727 16.359 239.927 17.0121 239.969 17.7155C239.992 18.0784 239.971 18.4454 239.907 18.795C239.843 19.1446 239.736 19.4699 239.594 19.7517L239.344 20.0572L238.283 21.0753L296.902 70.0473ZM296.902 70.0473H296.84H296.902ZM296.902 70.0473H296.84H296.902ZM296.84 70.0473C296.017 69.5758 295.127 69.5051 294.28 69.8437L294.03 70.0473H296.84ZM296.84 70.0473H294.03H296.84ZM294.03 70.0473L292.969 71.0654L294.03 70.0473ZM294.03 70.0473L292.969 71.0654L294.03 70.0473ZM292.969 71.0654C291.21 72.4685 289.278 73.1978 287.319 73.1978C285.361 73.1978 283.429 72.4685 281.67 71.0654L281.233 72.2872L281.67 71.0654L238.283 30.2384C236.785 28.8131 236.223 27.0822 236.223 25.7587C236.223 24.4351 236.785 22.6025 238.283 21.1771L292.969 71.0654Z" fill="white" stroke="black" stroke-width="2.8" stroke-linecap="round" stroke-linejoin="round"/>
<path fill-rule="evenodd" clip-rule="evenodd" d="M210.379 34.4128C210.878 34.9218 210.878 35.6345 210.379 36.1436C210.09 36.3932 209.769 36.5237 209.442 36.5237C209.116 36.5237 208.794 36.3932 208.506 36.1436L200.827 28.9149C200.328 28.4058 200.328 27.5913 200.827 27.1841C201.105 26.9345 201.416 26.8036 201.733 26.8036C202.049 26.8036 202.361 26.9345 202.638 27.1841L210.379 34.4128Z" fill="#FFB800"/>
<path fill-rule="evenodd" clip-rule="evenodd" d="M211.439 29.4239C211.939 29.933 211.939 30.7475 211.439 31.1547C211.151 31.4043 210.829 31.5349 210.503 31.5349C210.176 31.5349 209.855 31.4043 209.566 31.1547L203.948 25.9623C203.842 25.8789 203.753 25.7487 203.691 25.5867C203.629 25.4246 203.596 25.2372 203.596 25.046C203.596 24.8547 203.629 24.6673 203.691 24.5053C203.753 24.3432 203.842 24.213 203.948 24.1297C204.245 23.928 204.563 23.8242 204.884 23.8242C205.206 23.8242 205.524 23.928 205.821 24.1297L211.439 29.4239Z" fill="#FFEEC2"/>
<path fill-rule="evenodd" clip-rule="evenodd" d="M216.684 28.4058C216.789 28.4892 216.878 28.6194 216.941 28.7814C217.003 28.9435 217.036 29.1309 217.036 29.3221C217.036 29.5134 217.003 29.7008 216.941 29.8628C216.878 30.0249 216.789 30.1551 216.684 30.2384C216.387 30.4401 216.069 30.5439 215.747 30.5439C215.426 30.5439 215.108 30.4401 214.811 30.2384L207.133 22.9079C206.633 22.5007 206.633 21.6862 207.133 21.1771C207.41 20.9275 207.721 20.7966 208.038 20.7966C208.354 20.7966 208.666 20.9275 208.943 21.1771L216.684 28.4058Z" fill="#FFB800"/>
<path fill-rule="evenodd" clip-rule="evenodd" d="M313.883 108.736C313.883 108.736 320.437 124.008 310.387 136.837C296.715 152.516 301.709 153.534 290.66 165.751C290.473 165.955 291.721 165.751 291.721 165.751C291.721 165.751 309.575 152.007 312.01 147.425C314.444 142.844 317.566 139.993 318.752 130.83C319.938 121.666 316.192 108.227 313.883 108.736Z" fill="black"/>
<path fill-rule="evenodd" clip-rule="evenodd" d="M85.0249 103.544L64.9234 122.685C61.4275 125.943 61.4275 131.237 64.9234 134.597L155.879 220.221C159.375 223.479 165.056 223.479 168.49 220.221L188.591 201.182C192.087 197.823 192.087 192.528 188.591 189.168L97.6351 103.544C95.6929 101.877 93.5243 101.037 91.33 101.1C89.1351 101.028 86.9652 101.869 85.0249 103.544Z" fill="#FFEEC2"/>
<path fill-rule="evenodd" clip-rule="evenodd" d="M188.591 176.238C192.087 179.496 192.087 184.79 188.591 188.15L168.49 207.189C165.056 210.447 159.375 210.447 155.879 207.189L64.9234 121.565C61.4275 118.307 61.4275 112.911 64.9234 109.653L85.0249 90.6135C88.4584 87.2537 94.1392 87.2537 97.6351 90.6135L188.591 176.238Z" fill="white"/>
<path d="M188.591 176.238C192.087 179.496 192.087 184.79 188.591 188.15L168.49 207.189C165.056 210.447 159.375 210.447 155.879 207.189L64.9234 121.565C61.4275 118.307 61.4275 112.911 64.9234 109.653L85.0249 90.6135C88.4584 87.2537 94.1392 87.2537 97.6351 90.6135L188.591 176.238Z" stroke="black" stroke-width="2.8" stroke-linecap="round" stroke-linejoin="round"/>
<path d="M71.7283 93.9733L81.4669 103.136" stroke="black" stroke-width="2.8" stroke-linecap="round" stroke-linejoin="round"/>
<path fill-rule="evenodd" clip-rule="evenodd" d="M137.152 137.651C138.463 138.873 138.463 140.909 137.152 142.131C136.415 142.731 135.603 143.044 134.78 143.044C133.956 143.044 133.144 142.731 132.408 142.131L109.809 120.954C108.498 119.63 108.498 117.696 109.809 116.372C110.557 115.771 111.379 115.458 112.212 115.458C113.046 115.458 113.868 115.771 114.616 116.372L137.152 137.651Z" fill="#FFEEC2"/>
<path fill-rule="evenodd" clip-rule="evenodd" d="M125.166 139.28C126.477 140.502 126.477 142.538 125.166 143.76C124.429 144.36 123.617 144.673 122.794 144.673C121.97 144.673 121.158 144.36 120.422 143.76L104.503 128.793C103.192 127.572 103.192 125.535 104.503 124.314C105.239 123.713 106.052 123.401 106.875 123.401C107.698 123.401 108.511 123.713 109.247 124.314L125.166 139.28Z" fill="#FFB800"/>
<path fill-rule="evenodd" clip-rule="evenodd" d="M136.153 149.665C137.527 150.887 137.526 152.923 136.216 154.145C135.468 154.746 134.646 155.059 133.812 155.059C132.979 155.059 132.156 154.746 131.409 154.145L127.476 150.378C126.165 149.156 126.165 147.12 127.476 145.898C128.212 145.297 129.025 144.985 129.848 144.985C130.671 144.985 131.484 145.297 132.22 145.898L136.153 149.665Z" fill="#FFB800"/>
<path fill-rule="evenodd" clip-rule="evenodd" d="M102.692 103.747C105.127 105.987 106.375 109.042 106.375 111.994C106.375 114.947 105.189 118.001 102.754 120.343C100.031 122.621 97.0134 123.809 93.9523 123.809C90.8911 123.809 87.874 122.621 85.1501 120.343C82.7155 118.001 81.4669 115.049 81.4669 111.994C81.4669 108.94 82.653 105.987 85.0877 103.747L84.9004 103.544L85.0877 103.747C87.8115 101.469 90.8287 100.281 93.8899 100.281C96.951 100.281 99.9682 101.469 102.692 103.747Z" fill="#FFB800"/>
<path fill-rule="evenodd" clip-rule="evenodd" d="M175.357 30.8493L116.8 86.3374C114.366 88.679 114.366 92.4461 116.8 94.686L202.325 175.22C203.694 176.324 205.2 176.898 206.726 176.898C208.253 176.898 209.759 176.324 211.127 175.22L269.746 119.63C272.118 117.39 272.119 113.623 269.684 111.383L184.221 30.8493C182.852 29.6937 181.331 29.0996 179.789 29.1185C178.247 29.0871 176.723 29.6818 175.357 30.8493Z" fill="#FFEEC2"/>
<path fill-rule="evenodd" clip-rule="evenodd" d="M269.684 98.9622C272.119 101.304 272.118 105.071 269.746 107.311L211.127 162.901C209.759 164.005 208.253 164.579 206.726 164.579C205.2 164.579 203.694 164.005 202.325 162.901L116.8 82.3666C114.366 80.0249 114.366 76.3597 116.8 74.018L175.357 18.5299C176.728 17.378 178.247 16.777 179.789 16.777C181.331 16.777 182.851 17.378 184.221 18.5299L269.684 98.9622Z" fill="white"/>
<path d="M269.684 98.9621C272.119 101.304 272.119 105.071 269.746 107.311L211.127 162.901C209.759 164.005 208.253 164.579 206.726 164.579C205.2 164.579 203.694 164.005 202.325 162.901L116.8 82.3666C114.366 80.0249 114.366 76.3597 116.8 74.018L175.357 18.5299C176.728 17.378 178.247 16.777 179.789 16.777C181.331 16.777 182.851 17.378 184.221 18.5299L269.684 98.9621Z" stroke="black" stroke-width="2.8" stroke-linecap="round" stroke-linejoin="round"/>
<path fill-rule="evenodd" clip-rule="evenodd" d="M254.639 101.508C254.701 101.609 254.826 101.711 254.826 101.915C254.826 102.118 254.639 102.627 254.202 102.729C253.765 102.831 252.204 103.035 249.333 103.137C245.901 103.258 242.471 102.814 239.095 101.813C236.719 101.096 234.424 99.7913 232.29 97.944L231.354 97.0277C230.842 96.3802 230.299 95.8014 229.731 95.2969C228.286 93.9018 226.7 92.9365 225.049 92.4462C222.906 91.8396 220.727 91.6346 218.556 91.8353C213.063 92.1407 205.072 93.5661 192.087 95.3987C186.781 96.1114 182.473 96.1114 178.978 95.2969C175.482 94.4824 172.86 93.2607 170.924 91.428C169.532 90.1836 168.368 88.356 167.553 86.1338C166.889 84.2814 166.544 82.1708 166.555 80.025C166.555 75.9525 167.678 71.7781 169.114 68.5201C170.55 65.2621 170.675 63.9385 170.737 62.3095C170.747 61.6395 170.641 60.9784 170.432 60.4021C170.222 59.8258 169.917 59.3577 169.551 59.0515C168.613 58.342 167.588 57.9936 166.555 58.0334C164.934 58.0714 163.321 58.413 161.748 59.0515C159.287 60.0514 156.783 60.7323 154.257 61.0878C151.849 61.4416 149.422 61.1318 147.077 60.1715C145.403 59.3928 143.79 58.2995 142.271 56.9135C141.291 55.9663 140.353 54.9118 139.461 53.7573L138.463 52.7391C136.393 50.9326 134.121 49.8245 131.783 49.4811C129.167 49.1078 126.539 49.0398 123.917 49.2775C120.609 49.6581 117.316 50.3379 114.054 51.3137C113.785 51.4464 113.495 51.4101 113.242 51.2119C112.93 50.4992 113.117 50.092 113.492 49.9902C113.866 49.8884 115.989 49.1757 119.485 48.463C123.563 47.6017 127.687 47.4651 131.783 48.0557C134.49 48.3955 137.126 49.6433 139.524 51.721C139.926 52.0564 140.303 52.4663 140.647 52.9428C141.508 54.0076 142.404 54.9933 143.332 55.8953C144.703 57.188 146.172 58.1807 147.702 58.8479C149.09 59.4356 150.513 59.777 151.947 59.866C154.756 59.9678 157.752 59.0515 161.186 57.728C162.966 57.0359 164.787 56.6604 166.617 56.608C167.997 56.5904 169.363 57.0775 170.612 58.0334C171.1 58.4562 171.508 59.0864 171.794 59.8572C172.08 60.628 172.232 61.5106 172.235 62.4114C172.173 64.1422 171.611 66.3821 170.487 69.0292C169.417 71.4761 168.653 74.2442 168.24 77.1742C167.806 80.0648 168.051 83.1157 168.927 85.7265C169.675 87.701 170.73 89.317 171.986 90.4099C173.671 92.0389 176.043 93.2607 179.29 93.9733C183.48 94.7477 187.71 94.7477 191.9 93.9733C206.445 92.0389 214.748 90.3081 220.429 90.4099C222.122 90.3835 223.813 90.5879 225.486 91.0208C227.357 91.5967 229.152 92.6991 230.792 94.2788L232.54 96.1114L233.351 96.9259C235.223 98.5926 237.246 99.7612 239.344 100.388C241.505 101.09 243.697 101.498 245.899 101.609C248.585 101.823 251.276 101.72 253.952 101.304C254.188 101.264 254.427 101.335 254.639 101.508Z" fill="#FFB800"/>
<path fill-rule="evenodd" clip-rule="evenodd" d="M197.893 91.8353C198.187 92.0513 198.441 92.3917 198.628 92.8214C198.814 93.251 198.927 93.7542 198.954 94.2788C198.934 94.8065 198.824 95.3146 198.636 95.7461C198.449 96.1776 198.191 96.5156 197.893 96.7223C197.113 97.4388 196.228 97.7911 195.333 97.7404C194.419 97.7891 193.514 97.4376 192.711 96.7223C192.413 96.5156 192.156 96.1776 191.968 95.7461C191.781 95.3146 191.671 94.8065 191.65 94.2788C191.663 93.7478 191.771 93.2344 191.959 92.8007C192.147 92.367 192.409 92.0317 192.711 91.8353C193.491 91.1188 194.377 90.7665 195.271 90.8172C196.184 90.7782 197.088 91.1291 197.893 91.8353Z" fill="#FFB800"/>
<path fill-rule="evenodd" clip-rule="evenodd" d="M196.644 92.9552C197.019 93.3625 197.206 93.7697 197.206 94.2788C197.186 94.545 197.124 94.798 197.026 95.0124C196.927 95.2269 196.795 95.3953 196.644 95.5006C196.247 95.8734 195.791 96.0502 195.333 96.0096C194.855 96.0584 194.378 95.8817 193.96 95.5006C193.809 95.3953 193.677 95.2269 193.579 95.0124C193.48 94.798 193.418 94.545 193.398 94.2788C193.398 93.7697 193.585 93.3625 193.96 92.9552C194.369 92.6319 194.816 92.4581 195.271 92.4462C195.746 92.4465 196.216 92.6205 196.644 92.9552Z" fill="white"/>
<path fill-rule="evenodd" clip-rule="evenodd" d="M212.876 138.16C212.938 140.298 212.064 142.436 210.316 144.065C208.398 145.74 206.249 146.582 204.074 146.509C201.899 146.573 199.751 145.732 197.831 144.065L186.906 133.68C185.158 132.051 184.284 129.913 184.284 127.775C184.284 125.637 185.096 123.499 186.844 121.87C188.764 120.204 190.912 119.363 193.086 119.427C195.261 119.354 197.411 120.195 199.329 121.87L210.316 132.153C212.002 133.782 212.876 136.022 212.876 138.16Z" fill="white"/>
<path fill-rule="evenodd" clip-rule="evenodd" d="M210.504 131.95C214.125 135.411 214.125 140.807 210.566 144.269C207.008 147.731 201.202 147.629 197.581 144.269L186.657 133.986C183.098 130.524 183.036 125.128 186.594 121.666C190.153 118.205 195.958 118.307 199.579 121.666L210.504 131.95Z" fill="white"/>
<path d="M210.504 131.95C214.125 135.411 214.125 140.807 210.566 144.269C207.008 147.731 201.202 147.629 197.581 144.269L186.657 133.986C183.098 130.524 183.036 125.128 186.594 121.666C190.153 118.205 195.958 118.307 199.579 121.666L210.504 131.95Z" stroke="black" stroke-width="1.445" stroke-linecap="round" stroke-linejoin="round"/>
<path fill-rule="evenodd" clip-rule="evenodd" d="M198.955 118.612C200.578 120.139 201.389 122.074 201.389 124.008C201.389 125.943 200.578 127.979 199.017 129.404C197.255 130.954 195.275 131.726 193.274 131.644C191.273 131.713 189.296 130.941 187.531 129.404C185.97 127.979 185.158 125.943 185.158 124.008C185.158 122.074 185.907 120.139 187.531 118.612C189.299 117.138 191.257 116.369 193.243 116.369C195.229 116.369 197.186 117.138 198.955 118.612Z" fill="#FFB800"/>
<path fill-rule="evenodd" clip-rule="evenodd" d="M167.179 180.209C167.345 180.331 167.479 180.549 167.554 180.82L168.865 185.401C169.177 186.521 168.178 187.438 167.054 187.132L162.122 185.91L161.498 185.605C160.936 184.994 160.874 184.18 161.436 183.569L165.057 180.209C165.379 179.905 165.745 179.745 166.118 179.745C166.49 179.745 166.856 179.905 167.179 180.209Z" fill="#FFB800"/>
<path d="M160 15.0684L173.796 28.1004" stroke="black" stroke-width="2.8" stroke-linecap="round" stroke-linejoin="round"/>
<path fill-rule="evenodd" clip-rule="evenodd" d="M217.62 84.3011C219.243 85.8283 219.243 88.3736 217.62 89.9008L212.376 94.8896C211.456 95.6421 210.441 96.0339 209.411 96.0339C208.381 96.0339 207.366 95.6421 206.446 94.8896L202.513 91.1226H198.955V87.8645L185.158 74.8325C183.473 73.3053 183.473 70.76 185.158 69.2328L190.34 64.244C191.26 63.4915 192.275 63.0997 193.305 63.0997C194.334 63.0997 195.35 63.4915 196.27 64.244L217.62 84.3011Z" fill="#FFB800"/>
<path fill-rule="evenodd" clip-rule="evenodd" d="M207.445 78.4978C208.006 79.0069 208.006 79.8214 207.445 80.3304C207.145 80.5806 206.814 80.7111 206.477 80.7111C206.141 80.7111 205.809 80.5806 205.509 80.3304L192.837 68.4184C192.275 67.9093 192.275 67.0948 192.837 66.5857C193.136 66.3355 193.468 66.2051 193.804 66.2051C194.141 66.2051 194.473 66.3355 194.772 66.5857L207.445 78.4978Z" fill="#FFEEC2"/>
<path fill-rule="evenodd" clip-rule="evenodd" d="M198.205 75.8506C198.767 76.3597 198.767 77.1742 198.205 77.6833C197.905 77.9334 197.574 78.0639 197.237 78.0639C196.901 78.0639 196.569 77.9334 196.27 77.6833L189.59 71.4727C189.028 70.9636 189.028 70.1491 189.59 69.6401C189.896 69.3637 190.239 69.2188 190.589 69.2188C190.938 69.2188 191.282 69.3637 191.588 69.6401L198.205 75.8506Z" fill="#FFEEC2"/>
<path fill-rule="evenodd" clip-rule="evenodd" d="M33.586 153.839L10.051 176.136C7.42911 178.58 7.42911 182.551 10.051 185.096L47.8193 220.629C49.291 221.837 50.9159 222.467 52.5637 222.467C54.2115 222.467 55.8364 221.837 57.3081 220.629L80.8431 198.332C83.465 195.888 83.465 191.816 80.8431 189.372L43.0748 153.839C41.6286 152.511 39.9897 151.843 38.3304 151.905C36.67 151.827 35.0287 152.497 33.586 153.839Z" fill="#FFEEC2"/>
<path fill-rule="evenodd" clip-rule="evenodd" d="M86.2116 200.775L62.6767 223.072C60.0547 225.516 60.0547 229.588 62.6767 232.032L100.445 267.564C101.908 268.822 103.536 269.479 105.189 269.479C106.843 269.479 108.471 268.822 109.934 267.564L133.469 245.267C136.091 242.824 136.091 238.751 133.469 236.308L95.7005 200.775C94.2379 199.526 92.6066 198.896 90.956 198.942C89.3045 198.883 87.6712 199.514 86.2116 200.775Z" fill="#FFEEC2"/>
<path fill-rule="evenodd" clip-rule="evenodd" d="M138.837 247.711L115.302 270.008C112.68 272.553 112.68 276.524 115.302 279.069L153.071 314.602C155.692 317.045 160 317.045 162.559 314.602L186.094 292.305C188.716 289.76 188.716 285.789 186.094 283.243L148.326 247.711C146.864 246.462 145.232 245.832 143.582 245.878C141.93 245.819 140.297 246.449 138.837 247.711Z" fill="#FFEEC2"/>
<path fill-rule="evenodd" clip-rule="evenodd" d="M186.22 271.331C188.904 273.877 188.904 277.847 186.282 280.393L162.747 302.69C161.275 303.898 159.651 304.528 158.003 304.528C156.355 304.528 154.73 303.898 153.258 302.69L115.49 267.157C112.868 264.612 112.806 260.641 115.428 258.096L138.963 235.799C141.585 233.355 145.83 233.355 148.514 235.799L186.22 271.331Z" fill="white"/>
<path d="M186.094 271.535C188.716 274.08 188.716 278.051 186.094 280.596L162.559 302.893C160 305.337 155.692 305.337 153.071 302.893L115.302 267.361C112.68 264.815 112.68 260.845 115.302 258.299L138.837 236.002C140.309 234.794 141.934 234.164 143.582 234.164C145.229 234.164 146.854 234.794 148.326 236.002L186.094 271.535Z" stroke="black" stroke-width="2.8" stroke-linecap="round" stroke-linejoin="round"/>
<path fill-rule="evenodd" clip-rule="evenodd" d="M133.469 216.963C136.091 219.509 136.091 223.479 133.469 225.923L109.934 248.22C108.471 249.477 106.843 250.134 105.189 250.134C103.536 250.134 101.908 249.477 100.445 248.22L62.6767 212.687C60.0547 210.244 60.0547 206.171 62.6767 203.728L86.2116 181.431C87.6833 180.222 89.3082 179.593 90.956 179.593C92.6038 179.593 94.2287 180.222 95.7005 181.431L133.469 216.963Z" fill="white"/>
<path d="M133.469 216.963C136.091 219.509 136.091 223.479 133.469 225.923L109.934 248.22C108.471 249.477 106.843 250.134 105.189 250.134C103.536 250.134 101.908 249.477 100.445 248.22L62.6767 212.687C60.0547 210.244 60.0547 206.171 62.6767 203.728L86.2116 181.431C87.6833 180.222 89.3082 179.593 90.956 179.593C92.6038 179.593 94.2287 180.222 95.7005 181.431L133.469 216.963Z" stroke="black" stroke-width="2.8" stroke-linecap="round" stroke-linejoin="round"/>
<path fill-rule="evenodd" clip-rule="evenodd" d="M80.8431 160.763C83.465 163.206 83.465 167.279 80.8431 169.722L57.3081 192.019C55.8455 193.276 54.2171 193.933 52.5637 193.933C50.9104 193.933 49.2819 193.276 47.8193 192.019L10.051 156.486C7.42911 154.043 7.42911 149.97 10.051 147.527L33.586 125.23C35.0577 124.021 36.6826 123.392 38.3304 123.392C39.9782 123.392 41.6031 124.021 43.0748 125.23L80.8431 160.763Z" fill="white"/>
<path d="M80.8431 160.763C83.465 163.206 83.465 167.279 80.8431 169.722L57.3081 192.019C55.8455 193.276 54.2171 193.933 52.5637 193.933C50.9104 193.933 49.2819 193.276 47.8193 192.019L10.051 156.486C7.42911 154.043 7.42911 149.97 10.051 147.527L33.586 125.23C35.0577 124.021 36.6826 123.392 38.3304 123.392C39.9782 123.392 41.6031 124.021 43.0748 125.23L80.8431 160.763Z" stroke="black" stroke-width="2.8" stroke-linecap="round" stroke-linejoin="round"/>
<path d="M168.927 158.115L136.528 188.761" stroke="black" stroke-width="1.445" stroke-linecap="round" stroke-linejoin="round"/>
<path fill-rule="evenodd" clip-rule="evenodd" d="M138.65 288.741C138.65 288.741 142.895 294.036 147.827 291.898C152.759 289.759 157.566 289.352 159.876 291.388C162.185 293.425 167.304 297.905 170.988 294.443C170.988 294.443 164.682 302.079 162.56 302.893C160.437 303.708 157.815 307.984 150.199 300.144C144.206 293.934 138.65 288.741 138.65 288.741Z" fill="black"/>
<path fill-rule="evenodd" clip-rule="evenodd" d="M49.4423 143.149C50.6284 144.269 50.6284 146.102 49.4423 147.221C48.7862 147.775 48.0584 148.064 47.3198 148.064C46.5812 148.064 45.8533 147.775 45.1973 147.221L35.4587 138.058C34.2726 136.938 34.2726 135.106 35.4587 133.986C36.1147 133.432 36.8426 133.143 37.5812 133.143C38.3198 133.143 39.0477 133.432 39.7037 133.986L49.4423 143.149Z" fill="#FFB800"/>
<path fill-rule="evenodd" clip-rule="evenodd" d="M53.8116 162.086C54.9977 163.206 54.9977 165.039 53.8116 166.159C53.1356 166.663 52.4011 166.923 51.6579 166.923C50.9147 166.923 50.1801 166.663 49.5042 166.159L28.8409 146.611C27.6548 145.491 27.6548 143.76 28.8409 142.64C29.5079 142.086 30.246 141.797 30.9946 141.797C31.7432 141.797 32.4813 142.086 33.1483 142.64L53.8116 162.086Z" fill="#FFEEC2"/>
<path fill-rule="evenodd" clip-rule="evenodd" d="M111.557 207.189C112.743 208.309 112.743 210.142 111.557 211.262C110.9 211.815 110.173 212.104 109.434 212.104C108.695 212.104 107.968 211.815 107.311 211.262L89.0204 194.055C87.8343 192.935 87.8343 191.103 89.0204 189.983C89.6765 189.429 90.4043 189.141 91.1429 189.141C91.8816 189.141 92.6094 189.429 93.2655 189.983L111.557 207.189Z" fill="#FFEEC2"/>
<path fill-rule="evenodd" clip-rule="evenodd" d="M95.2633 206.477C96.4495 207.597 96.4495 209.429 95.3258 210.549C94.6587 211.103 93.9207 211.392 93.172 211.392C92.4234 211.392 91.6854 211.103 91.0183 210.549L81.2797 201.386C80.0936 200.266 80.0936 198.433 81.2797 197.313C81.9468 196.759 82.6848 196.47 83.4335 196.47C84.1821 196.47 84.9201 196.759 85.5872 197.313L95.2633 206.477Z" fill="#FFB800"/>
<path fill-rule="evenodd" clip-rule="evenodd" d="M111.058 222.054C112.244 223.174 112.244 225.007 111.058 226.126C110.402 226.68 109.674 226.969 108.935 226.969C108.197 226.969 107.469 226.68 106.813 226.126L97.074 216.963C95.8879 215.843 95.8879 214.011 97.074 212.891C97.7301 212.337 98.4579 212.048 99.1966 212.048C99.9352 212.048 100.663 212.337 101.319 212.891L111.058 222.054Z" fill="#FFB800"/>
<path fill-rule="evenodd" clip-rule="evenodd" d="M169.551 267.564C170.925 268.786 170.925 270.924 169.551 272.248C168.78 272.899 167.923 273.239 167.054 273.239C166.185 273.239 165.329 272.899 164.557 272.248L140.773 249.849C139.337 248.525 139.337 246.489 140.773 245.165C141.544 244.514 142.401 244.174 143.27 244.174C144.139 244.174 144.995 244.514 145.767 245.165L169.551 267.564Z" fill="#FFEEC2"/>
<path fill-rule="evenodd" clip-rule="evenodd" d="M154.382 268.582C155.755 269.906 155.755 272.044 154.382 273.368C153.602 273.974 152.748 274.288 151.884 274.288C151.02 274.288 150.167 273.974 149.387 273.368L132.657 257.587C131.221 256.263 131.221 254.125 132.657 252.801C133.429 252.15 134.285 251.81 135.154 251.81C136.023 251.81 136.879 252.15 137.651 252.801L154.382 268.582Z" fill="#FFB800"/>
</g>
<defs>
<clipPath id="clip0_1_1135">
<rect width="320" height="340.87" fill="white"/>
</clipPath>
</defs>
</svg>
