<svg width="18" height="13" viewBox="0 0 18 13" fill="none" xmlns="http://www.w3.org/2000/svg">
<path d="M17.6235 1.98075C17.5218 1.59771 17.3213 1.2481 17.042 0.966947C16.7626 0.685793 16.4144 0.482956 16.032 0.37875C14.6287 8.9407e-08 9 0 9 0C9 0 3.37125 8.9407e-08 1.96725 0.37875C1.58506 0.48314 1.23697 0.68605 0.957808 0.967186C0.678646 1.24832 0.478194 1.59783 0.3765 1.98075C0 3.39375 0 6.34125 0 6.34125C0 6.34125 0 9.28875 0.3765 10.7017C0.478189 11.0848 0.678732 11.4344 0.958043 11.7156C1.23736 11.9967 1.58563 12.1995 1.968 12.3038C3.37125 12.6825 9 12.6825 9 12.6825C9 12.6825 14.6288 12.6825 16.0328 12.3038C16.4152 12.1996 16.7635 11.9968 17.0428 11.7156C17.3221 11.4345 17.5226 11.0848 17.6243 10.7017C18 9.28875 18 6.34125 18 6.34125C18 6.34125 18 3.39375 17.6235 1.98075ZM7.15875 9.01725V3.66525L11.8635 6.34125L7.15875 9.01725Z" fill="#494949"/>
</svg>
