<svg width="25" height="25" viewBox="0 0 25 25" fill="none" xmlns="http://www.w3.org/2000/svg">
<path d="M22.7342 17.2V5.05859C22.7342 3.85149 21.7563 2.95623 20.5689 3.05682H20.509C18.4135 3.23788 15.2304 4.31422 13.4542 5.44084L13.2845 5.55149C12.9952 5.73256 12.5162 5.73256 12.2268 5.55149L11.9773 5.40061C10.2012 4.28404 7.02797 3.21777 4.93247 3.04676C3.74502 2.94617 2.7771 3.85149 2.7771 5.04853V17.2C2.7771 18.1657 3.55543 19.071 4.51337 19.1917L4.80275 19.232C6.9681 19.5237 10.3109 20.6302 12.2268 21.6864L12.2667 21.7065C12.5361 21.8574 12.9652 21.8574 13.2247 21.7065C15.1405 20.6403 18.4933 19.5237 20.6687 19.232L20.998 19.1917C21.9559 19.071 22.7342 18.1657 22.7342 17.2Z" stroke="black" stroke-opacity="0.6" stroke-width="1.5" stroke-linecap="round" stroke-linejoin="round"/>
<path d="M12.7557 5.88345V20.9722" stroke="black" stroke-opacity="0.6" stroke-width="1.5" stroke-linecap="round" stroke-linejoin="round"/>
<path d="M8.51477 8.90118H6.26959" stroke="black" stroke-opacity="0.6" stroke-width="1.5" stroke-linecap="round" stroke-linejoin="round"/>
<path d="M9.26316 11.9189H6.26959" stroke="black" stroke-opacity="0.6" stroke-width="1.5" stroke-linecap="round" stroke-linejoin="round"/>
</svg>
