<svg width="30" height="29" viewBox="0 0 30 29" fill="none" xmlns="http://www.w3.org/2000/svg">
<path d="M26.8295 22.1541C26.8295 22.584 26.7326 23.0258 26.5265 23.4556C26.3204 23.8855 26.0538 24.2914 25.7023 24.6735C25.1083 25.3183 24.4538 25.784 23.7144 26.0825C22.9871 26.381 22.1992 26.5362 21.3507 26.5362C20.1144 26.5362 18.7932 26.2496 17.3992 25.6646C16.0053 25.0795 14.6114 24.2914 13.2295 23.3004C11.8356 22.2974 10.5144 21.1869 9.25378 19.9571C8.00529 18.7153 6.87802 17.4138 5.87196 16.0526C4.87802 14.6914 4.07802 13.3302 3.4962 11.981C2.91438 10.6198 2.62347 9.31829 2.62347 8.0765C2.62347 7.26456 2.76893 6.48844 3.05984 5.77202C3.35075 5.04366 3.81135 4.375 4.45378 3.77799C5.22953 3.02575 6.07802 2.6556 6.97499 2.6556C7.31438 2.6556 7.65378 2.72724 7.95681 2.87053C8.27196 3.01381 8.55075 3.22874 8.76893 3.53918L11.581 7.44366C11.7992 7.74217 11.9568 8.0168 12.0659 8.27948C12.175 8.53023 12.2356 8.78098 12.2356 9.00784C12.2356 9.29441 12.1507 9.58097 11.981 9.8556C11.8235 10.1302 11.5932 10.4168 11.3023 10.7034L10.381 11.6466C10.2477 11.778 10.1871 11.9332 10.1871 12.1243C10.1871 12.2198 10.1992 12.3034 10.2235 12.3989C10.2598 12.4944 10.2962 12.566 10.3204 12.6377C10.5386 13.0317 10.9144 13.5452 11.4477 14.1661C11.9932 14.7869 12.575 15.4198 13.2053 16.0526C13.8598 16.6855 14.4901 17.2705 15.1326 17.8078C15.7629 18.3332 16.2841 18.6914 16.6962 18.9063C16.7568 18.9302 16.8295 18.966 16.9144 19.0019C17.0114 19.0377 17.1083 19.0496 17.2174 19.0496C17.4235 19.0496 17.581 18.978 17.7144 18.8466L18.6356 17.9511C18.9386 17.6526 19.2295 17.4258 19.5083 17.2825C19.7871 17.1153 20.0659 17.0317 20.3689 17.0317C20.5992 17.0317 20.8417 17.0795 21.1083 17.1869C21.375 17.2944 21.6538 17.4496 21.9568 17.6526L25.9689 20.4586C26.2841 20.6735 26.5023 20.9243 26.6356 21.2228C26.7568 21.5213 26.8295 21.8198 26.8295 22.1541Z" stroke="white" stroke-width="1.5" stroke-miterlimit="10"/>
<path d="M22.6235 11.0138C22.6235 10.2974 22.0538 9.19888 21.2053 8.30336C20.4295 7.47948 19.3992 6.83471 18.381 6.83471" stroke="white" stroke-width="1.5" stroke-linecap="round" stroke-linejoin="round"/>
<path d="M26.8659 11.0138C26.8659 6.39292 23.072 2.6556 18.381 2.6556" stroke="white" stroke-width="1.5" stroke-linecap="round" stroke-linejoin="round"/>
</svg>
