<svg width="60" height="60" viewBox="0 0 60 60" fill="none" xmlns="http://www.w3.org/2000/svg">
<rect width="60" height="60" rx="12" fill="#EAFFEE"/>
<path d="M25.4749 30.0001L28.4874 33.0251L34.5249 26.9751" stroke="#006534" stroke-width="1.5" stroke-linecap="round" stroke-linejoin="round"/>
<path d="M28.4374 18.0629C29.2999 17.3254 30.7124 17.3254 31.5874 18.0629L33.5624 19.7629C33.9374 20.0879 34.6374 20.3504 35.1374 20.3504H37.2624C38.5874 20.3504 39.6749 21.4379 39.6749 22.7629V24.8879C39.6749 25.3754 39.9374 26.0879 40.2624 26.4629L41.9624 28.4379C42.6999 29.3004 42.6999 30.7129 41.9624 31.5879L40.2624 33.5629C39.9374 33.9379 39.6749 34.6379 39.6749 35.1379V37.2629C39.6749 38.5879 38.5874 39.6754 37.2624 39.6754H35.1374C34.6499 39.6754 33.9374 39.9379 33.5624 40.2629L31.5874 41.9629C30.7249 42.7004 29.3124 42.7004 28.4374 41.9629L26.4624 40.2629C26.0874 39.9379 25.3874 39.6754 24.8874 39.6754H22.7249C21.3999 39.6754 20.3124 38.5879 20.3124 37.2629V35.1254C20.3124 34.6379 20.0499 33.9379 19.7374 33.5629L18.0499 31.5754C17.3249 30.7129 17.3249 29.3129 18.0499 28.4504L19.7374 26.4629C20.0499 26.0879 20.3124 25.3879 20.3124 24.9004V22.7504C20.3124 21.4254 21.3999 20.3379 22.7249 20.3379H24.8874C25.3749 20.3379 26.0874 20.0754 26.4624 19.7504L28.4374 18.0629Z" stroke="#006534" stroke-width="1.5" stroke-linecap="round" stroke-linejoin="round"/>
</svg>
