<svg width="60" height="60" viewBox="0 0 60 60" fill="none" xmlns="http://www.w3.org/2000/svg">
<rect width="60" height="60" rx="12" fill="#FBFFEA"/>
<path d="M34.4875 30.325C38.029 30.325 40.9 27.454 40.9 23.9125C40.9 20.371 38.029 17.5 34.4875 17.5C30.946 17.5 28.075 20.371 28.075 23.9125C28.075 27.454 30.946 30.325 34.4875 30.325Z" stroke="#532301" stroke-width="1.5" stroke-miterlimit="10"/>
<path d="M22.95 39.3C25.0763 39.3 26.8 37.5763 26.8 35.45C26.8 33.3237 25.0763 31.6 22.95 31.6C20.8237 31.6 19.1 33.3237 19.1 35.45C19.1 37.5763 20.8237 39.3 22.95 39.3Z" stroke="#532301" stroke-width="1.5" stroke-miterlimit="10"/>
<path d="M35.775 42.5C37.5423 42.5 38.975 41.0673 38.975 39.3C38.975 37.5327 37.5423 36.1 35.775 36.1C34.0077 36.1 32.575 37.5327 32.575 39.3C32.575 41.0673 34.0077 42.5 35.775 42.5Z" stroke="#532301" stroke-width="1.5" stroke-miterlimit="10"/>
</svg>
