<svg width="60" height="60" viewBox="0 0 60 60" fill="none" xmlns="http://www.w3.org/2000/svg">
<rect width="60" height="60" rx="12" fill="#EEEAFF"/>
<path d="M26.25 31.25C25.425 31.6625 24.7375 32.275 24.225 33.0375C23.9375 33.475 23.9375 34.025 24.225 34.4625C24.7375 35.225 25.425 35.8375 26.25 36.25" stroke="#610084" stroke-width="1.5" stroke-linecap="round" stroke-linejoin="round"/>
<path d="M34.0125 31.25C34.8375 31.6625 35.525 32.275 36.0375 33.0375C36.325 33.475 36.325 34.025 36.0375 34.4625C35.525 35.225 34.8375 35.8375 34.0125 36.25" stroke="#610084" stroke-width="1.5" stroke-linecap="round" stroke-linejoin="round"/>
<path d="M26.25 42.5H33.75C40 42.5 42.5 40 42.5 33.75V26.25C42.5 20 40 17.5 33.75 17.5H26.25C20 17.5 17.5 20 17.5 26.25V33.75C17.5 40 20 42.5 26.25 42.5Z" stroke="#610084" stroke-width="1.5" stroke-linecap="round" stroke-linejoin="round"/>
<path d="M17.7875 25.0125L41.8125 25" stroke="#610084" stroke-width="1.5" stroke-linecap="round" stroke-linejoin="round"/>
</svg>
