<svg width="60" height="60" viewBox="0 0 60 60" fill="none" xmlns="http://www.w3.org/2000/svg">
<rect width="60" height="60" rx="12" fill="#FFEAEA"/>
<path d="M37.5 23.95C37.425 23.9375 37.3375 23.9375 37.2625 23.95C35.5375 23.8875 34.1625 22.475 34.1625 20.725C34.1625 18.9375 35.6 17.5 37.3875 17.5C39.175 17.5 40.6125 18.95 40.6125 20.725C40.6 22.475 39.225 23.8875 37.5 23.95Z" stroke="#7D0303" stroke-width="1.5" stroke-linecap="round" stroke-linejoin="round"/>
<path d="M36.2125 33.05C37.925 33.3375 39.8125 33.0375 41.1375 32.15C42.9 30.975 42.9 29.05 41.1375 27.875C39.8 26.9875 37.8875 26.6875 36.175 26.9875" stroke="#7D0303" stroke-width="1.5" stroke-linecap="round" stroke-linejoin="round"/>
<path d="M22.4625 23.95C22.5375 23.9375 22.625 23.9375 22.7 23.95C24.425 23.8875 25.8 22.475 25.8 20.725C25.8 18.9375 24.3625 17.5 22.575 17.5C20.7875 17.5 19.35 18.95 19.35 20.725C19.3625 22.475 20.7375 23.8875 22.4625 23.95Z" stroke="#7D0303" stroke-width="1.5" stroke-linecap="round" stroke-linejoin="round"/>
<path d="M23.75 33.05C22.0375 33.3375 20.15 33.0375 18.825 32.15C17.0625 30.975 17.0625 29.05 18.825 27.875C20.1625 26.9875 22.075 26.6875 23.7875 26.9875" stroke="#7D0303" stroke-width="1.5" stroke-linecap="round" stroke-linejoin="round"/>
<path d="M30 33.2875C29.925 33.275 29.8375 33.275 29.7625 33.2875C28.0375 33.225 26.6625 31.8125 26.6625 30.0625C26.6625 28.275 28.1 26.8375 29.8875 26.8375C31.675 26.8375 33.1125 28.2875 33.1125 30.0625C33.1 31.8125 31.725 33.2375 30 33.2875Z" stroke="#7D0303" stroke-width="1.5" stroke-linecap="round" stroke-linejoin="round"/>
<path d="M26.3625 37.2251C24.6 38.4001 24.6 40.3251 26.3625 41.5001C28.3625 42.8376 31.6375 42.8376 33.6375 41.5001C35.4 40.3251 35.4 38.4001 33.6375 37.2251C31.65 35.9001 28.3625 35.9001 26.3625 37.2251Z" stroke="#7D0303" stroke-width="1.5" stroke-linecap="round" stroke-linejoin="round"/>
</svg>
