<svg width="372" height="416" viewBox="0 0 372 416" fill="none" xmlns="http://www.w3.org/2000/svg">
<path d="M346.682 208.001C346.682 178.266 337.123 149.319 319.415 125.431C301.708 101.543 276.79 83.9784 248.338 75.3296C219.886 66.6807 189.407 67.4056 161.398 77.3971C133.39 87.3886 109.335 106.118 92.7832 130.821L207.999 208.001H346.682Z" fill="#C621E1" stroke="white" stroke-width="7"/>
<path d="M92.783 130.82C82.0556 146.831 74.7835 164.901 71.4308 183.879C68.0781 202.856 68.7183 222.324 73.3107 241.041C77.903 259.757 86.3466 277.311 98.1028 292.582C109.859 307.853 124.67 320.507 141.59 329.735L207.999 208L92.783 130.82Z" fill="#EC8989" stroke="white" stroke-width="7"/>
<path d="M141.59 329.734C162.711 341.254 186.466 347.081 210.521 346.644C234.576 346.206 258.103 339.519 278.791 327.24C299.48 314.96 316.617 297.51 328.52 276.604C340.423 255.698 346.682 232.056 346.682 208H207.999L141.59 329.734Z" fill="#67FF5A" stroke="white" stroke-width="7"/>
<path d="M248.338 75.3299L258.423 42.1621L248.338 75.3299Z" fill="#10A9B2"/>
<path d="M263.945 26.0914C264.482 26.0957 265.018 26.198 265.555 26.3983C266.092 26.5985 266.582 26.9309 267.026 27.3954C267.469 27.8556 267.825 28.4842 268.093 29.2811C268.362 30.0779 268.496 31.0772 268.496 32.2789C268.496 33.4423 268.385 34.4757 268.163 35.3791C267.946 36.2782 267.631 37.0368 267.217 37.6547C266.808 38.2725 266.31 38.7413 265.722 39.0609C265.138 39.3805 264.477 39.5403 263.74 39.5403C263.007 39.5403 262.353 39.3954 261.778 39.1056C261.207 38.8116 260.738 38.4047 260.371 37.8848C260.009 37.3606 259.777 36.7534 259.675 36.063H261.234C261.375 36.6639 261.654 37.1603 262.072 37.5524C262.494 37.9402 263.05 38.1341 263.74 38.1341C264.75 38.1341 265.547 37.693 266.131 36.8109C266.719 35.9288 267.013 34.6824 267.013 33.0716H266.911C266.672 33.4295 266.388 33.7385 266.06 33.9984C265.732 34.2583 265.368 34.4586 264.967 34.5993C264.567 34.7399 264.141 34.8102 263.689 34.8102C262.939 34.8102 262.251 34.6248 261.624 34.2541C261.002 33.8791 260.504 33.3656 260.129 32.7136C259.758 32.0574 259.572 31.3074 259.572 30.4636C259.572 29.6625 259.751 28.9295 260.109 28.2647C260.472 27.5957 260.979 27.063 261.631 26.6667C262.287 26.2704 263.058 26.0787 263.945 26.0914ZM263.945 27.4977C263.408 27.4977 262.924 27.6319 262.494 27.9004C262.067 28.1646 261.729 28.5225 261.477 28.9743C261.23 29.4217 261.107 29.9181 261.107 30.4636C261.107 31.0091 261.226 31.5055 261.464 31.9529C261.707 32.3961 262.038 32.7498 262.455 33.014C262.877 33.274 263.357 33.4039 263.893 33.4039C264.298 33.4039 264.675 33.3251 265.025 33.1674C265.374 33.0055 265.679 32.786 265.939 32.5091C266.203 32.2278 266.41 31.9103 266.559 31.5566C266.708 31.1987 266.783 30.8258 266.783 30.438C266.783 29.9267 266.659 29.4473 266.412 28.9998C266.169 28.5524 265.832 28.1902 265.402 27.9132C264.976 27.6362 264.49 27.4977 263.945 27.4977ZM275.612 26.2704V39.3613H274.026V27.9324H273.95L270.754 30.0545V28.4437L274.026 26.2704H275.612ZM279.377 39.3613V38.2108L283.698 33.4806C284.205 32.9267 284.622 32.4451 284.95 32.036C285.279 31.6227 285.521 31.2349 285.679 30.8727C285.841 30.5062 285.922 30.1227 285.922 29.7221C285.922 29.2619 285.811 28.8635 285.59 28.5268C285.372 28.1902 285.074 27.9302 284.695 27.747C284.316 27.5637 283.889 27.4721 283.416 27.4721C282.914 27.4721 282.475 27.5765 282.1 27.7853C281.729 27.9899 281.441 28.2775 281.237 28.6483C281.036 29.019 280.936 29.4537 280.936 29.9522H279.428C279.428 29.1852 279.605 28.5119 279.958 27.9324C280.312 27.3528 280.794 26.9011 281.403 26.5772C282.017 26.2534 282.705 26.0914 283.468 26.0914C284.235 26.0914 284.914 26.2534 285.507 26.5772C286.099 26.9011 286.563 27.3379 286.9 27.8876C287.237 28.4373 287.405 29.0488 287.405 29.7221C287.405 30.2037 287.318 30.6745 287.143 31.1348C286.972 31.5907 286.674 32.1 286.248 32.6625C285.826 33.2207 285.24 33.9025 284.49 34.7079L281.55 37.8528V37.9551H287.635V39.3613H279.377Z" fill="#10A9B2"/>
<path d="M73.3108 241.039L39.6387 249.299L73.3108 241.039Z" fill="#10A9B2"/>
<path d="M10.4812 246.679C9.73118 246.679 9.05575 246.53 8.4549 246.232C7.85405 245.933 7.37251 245.524 7.0103 245.004C6.64808 244.484 6.44993 243.892 6.41584 243.227H7.94993C8.00959 243.82 8.27805 244.31 8.75533 244.697C9.23686 245.081 9.81214 245.273 10.4812 245.273C11.0181 245.273 11.4954 245.147 11.913 244.896C12.3349 244.644 12.6651 244.299 12.9038 243.86C13.1467 243.417 13.2681 242.916 13.2681 242.358C13.2681 241.787 13.1424 241.278 12.891 240.83C12.6438 240.379 12.3029 240.023 11.8683 239.763C11.4336 239.503 10.9371 239.371 10.3789 239.366C9.97834 239.362 9.56712 239.424 9.14524 239.552C8.72337 239.675 8.37607 239.835 8.10334 240.031L6.62038 239.852L7.413 233.409H14.2141V234.815H8.74254L8.28232 238.676H8.35902C8.62749 238.463 8.96413 238.286 9.36896 238.146C9.77379 238.005 10.1957 237.935 10.6346 237.935C11.4357 237.935 12.1495 238.126 12.7759 238.51C13.4066 238.889 13.9009 239.409 14.2589 240.07C14.6211 240.73 14.8022 241.484 14.8022 242.332C14.8022 243.168 14.6147 243.913 14.2397 244.57C13.869 245.222 13.3576 245.737 12.7056 246.116C12.0536 246.491 11.3121 246.679 10.4812 246.679ZM21.5091 233.23C22.046 233.234 22.5829 233.337 23.1199 233.537C23.6568 233.737 24.1468 234.07 24.59 234.534C25.0332 234.994 25.389 235.623 25.6575 236.42C25.926 237.217 26.0602 238.216 26.0602 239.418C26.0602 240.581 25.9494 241.614 25.7278 242.518C25.5105 243.417 25.1951 244.175 24.7818 244.793C24.3727 245.411 23.8741 245.88 23.286 246.2C22.7022 246.519 22.0417 246.679 21.3045 246.679C20.5716 246.679 19.9174 246.534 19.3422 246.244C18.7711 245.95 18.3024 245.543 17.9359 245.023C17.5737 244.499 17.3414 243.892 17.2392 243.202H18.7988C18.9395 243.803 19.2186 244.299 19.6362 244.691C20.0581 245.079 20.6142 245.273 21.3045 245.273C22.3145 245.273 23.1113 244.832 23.6951 243.95C24.2832 243.067 24.5772 241.821 24.5772 240.21H24.475C24.2363 240.568 23.9529 240.877 23.6248 241.137C23.2967 241.397 22.9324 241.597 22.5318 241.738C22.1312 241.879 21.7051 241.949 21.2534 241.949C20.5034 241.949 19.8152 241.763 19.1887 241.393C18.5666 241.018 18.068 240.504 17.693 239.852C17.3223 239.196 17.1369 238.446 17.1369 237.602C17.1369 236.801 17.3159 236.068 17.6738 235.403C18.036 234.734 18.5431 234.202 19.1951 233.805C19.8514 233.409 20.6227 233.217 21.5091 233.23ZM21.5091 234.636C20.9721 234.636 20.4885 234.771 20.0581 235.039C19.6319 235.303 19.2931 235.661 19.0417 236.113C18.7946 236.56 18.671 237.057 18.671 237.602C18.671 238.148 18.7903 238.644 19.0289 239.092C19.2718 239.535 19.6021 239.888 20.0197 240.153C20.4416 240.413 20.921 240.543 21.4579 240.543C21.8627 240.543 22.2399 240.464 22.5893 240.306C22.9387 240.144 23.2434 239.925 23.5034 239.648C23.7676 239.366 23.9743 239.049 24.1234 238.695C24.2726 238.337 24.3471 237.964 24.3471 237.577C24.3471 237.065 24.2235 236.586 23.9764 236.138C23.7335 235.691 23.3968 235.329 22.9664 235.052C22.5403 234.775 22.0545 234.636 21.5091 234.636ZM28.267 243.815V242.511L34.0199 233.409H34.9659V235.429H34.3267L29.9801 242.307V242.409H37.7273V243.815H28.267ZM34.429 246.5V243.419V242.812V233.409H35.9375V246.5H34.429Z" fill="#10A9B2"/>
<path d="M278.791 327.24L296.489 357.05L278.791 327.24Z" fill="#10A9B2"/>
<path d="M298.252 354.25L304.108 342.668V342.565H297.358V341.159H305.744V342.642L299.914 354.25H298.252ZM306.765 351.565V350.261L312.518 341.159H313.464V343.179H312.825L308.478 350.057V350.159H316.225V351.565H306.765ZM312.927 354.25V351.169V350.562V341.159H314.436V354.25H312.927ZM322.891 354.429C321.928 354.429 321.107 354.167 320.43 353.643C319.752 353.114 319.234 352.349 318.876 351.348C318.518 350.342 318.339 349.128 318.339 347.705C318.339 346.29 318.518 345.082 318.876 344.08C319.239 343.075 319.759 342.308 320.436 341.779C321.118 341.246 321.936 340.98 322.891 340.98C323.845 340.98 324.661 341.246 325.339 341.779C326.021 342.308 326.54 343.075 326.898 344.08C327.261 345.082 327.442 346.29 327.442 347.705C327.442 349.128 327.263 350.342 326.905 351.348C326.547 352.349 326.029 353.114 325.352 353.643C324.674 354.167 323.854 354.429 322.891 354.429ZM322.891 353.023C323.845 353.023 324.587 352.562 325.115 351.642C325.643 350.722 325.908 349.409 325.908 347.705C325.908 346.571 325.786 345.606 325.543 344.809C325.305 344.012 324.96 343.405 324.508 342.987C324.06 342.57 323.521 342.361 322.891 342.361C321.945 342.361 321.205 342.827 320.673 343.761C320.14 344.69 319.874 346.004 319.874 347.705C319.874 348.838 319.993 349.801 320.232 350.594C320.47 351.386 320.813 351.989 321.261 352.403C321.712 352.816 322.256 353.023 322.891 353.023Z" fill="#10A9B2"/>
</svg>
