<svg width="129" height="128" viewBox="0 0 129 128" fill="none" xmlns="http://www.w3.org/2000/svg">
<circle cx="64.5" cy="64" r="40" fill="#039BE5"/>
<path fill-rule="evenodd" clip-rule="evenodd" d="M70.88 57.4622C71.2133 56.9779 71.8775 56.8544 72.3636 57.1865L71.7974 58.0093C72.3636 57.1865 72.3634 57.1864 72.3636 57.1865L72.3692 57.1903L72.3828 57.1997L72.4334 57.2347C72.4771 57.265 72.5404 57.3091 72.6204 57.3655C72.7803 57.4783 73.0076 57.6406 73.2798 57.8406C73.8229 58.2395 74.5512 58.7932 75.2833 59.4063C76.0095 60.0145 76.767 60.7042 77.3521 61.3748C77.6442 61.7096 77.9153 62.0645 78.1185 62.4228C78.3124 62.7649 78.5003 63.2063 78.5003 63.6905C78.5003 64.1747 78.3125 64.6161 78.1186 64.9582C77.9154 65.3165 77.6444 65.6715 77.3523 66.0065C76.7673 66.6774 76.0098 67.3675 75.2835 67.9761C74.5515 68.5896 73.8232 69.1436 73.2801 69.5429C73.0079 69.7431 72.7806 69.9055 72.6207 70.0183C72.5407 70.0748 72.4775 70.1189 72.4338 70.1493L72.3832 70.1843L72.3695 70.1937L72.3642 70.1973C72.364 70.1974 72.3639 70.1975 71.7602 69.3207L72.3642 70.1973C71.8782 70.5296 71.2137 70.4066 70.8803 69.9223C70.5469 69.4382 70.6704 68.7763 71.1563 68.444L71.1591 68.4421L71.1697 68.4348L71.214 68.4042C71.2534 68.3769 71.312 68.3359 71.3871 68.2829C71.5375 68.1768 71.7534 68.0225 72.013 67.8316C72.5336 67.4489 73.2236 66.9237 73.9098 66.3486C74.6018 65.7686 75.2626 65.1606 75.7413 64.6116C75.981 64.3367 76.1531 64.1013 76.2603 63.9123C76.3292 63.7907 76.3536 63.7191 76.362 63.6905C76.3536 63.662 76.3292 63.5904 76.2603 63.4689C76.1533 63.2801 75.9812 63.0448 75.7414 62.7701C75.2628 62.2214 74.6021 61.6138 73.9101 61.0342C73.2239 60.4595 72.5339 59.9348 72.0133 59.5523C71.7537 59.3616 71.5378 59.2074 71.3875 59.1014C71.3124 59.0484 71.2537 59.0075 71.2143 58.9802L71.17 58.9496L71.1594 58.9423L71.1571 58.9407C71.1571 58.9407 71.157 58.9407 71.1571 58.9407C70.6711 58.6086 70.5468 57.9465 70.88 57.4622Z" fill="white"/>
<path fill-rule="evenodd" clip-rule="evenodd" d="M56.0319 69.9218C55.7463 70.4062 55.1769 70.5296 54.7603 70.1975L55.2456 69.3747C54.7603 70.1975 54.7604 70.1976 54.7603 70.1975L54.7555 70.1937L54.7438 70.1843L54.7004 70.1494C54.663 70.1191 54.6088 70.075 54.5402 70.0185C54.4031 69.9057 54.2083 69.7435 53.975 69.5435C53.5095 69.1445 52.8852 68.5909 52.2577 67.9778C51.6352 67.3695 50.9859 66.6799 50.4844 66.0092C50.234 65.6744 50.0017 65.3195 49.8275 64.9612C49.6613 64.6191 49.5003 64.1778 49.5003 63.6935C49.5003 63.2094 49.6613 62.768 49.8275 62.4259C50.0016 62.0675 50.2339 61.7125 50.4843 61.3776C50.9857 60.7066 51.635 60.0166 52.2575 59.4079C52.8849 58.7944 53.5092 58.2404 53.9747 57.8411C54.208 57.641 54.4028 57.4786 54.5399 57.3657C54.6085 57.3092 54.6627 57.2651 54.7001 57.2348L54.7435 57.1998L54.7552 57.1904L54.7598 57.1867C54.7599 57.1866 54.76 57.1865 55.2775 58.0633L54.7598 57.1867C55.1763 56.8545 55.7459 56.9775 56.0317 57.4617C56.3175 57.9459 56.2116 58.6077 55.7951 58.94L55.7928 58.9419L55.7836 58.9492L55.7457 58.9798C55.7119 59.0072 55.6616 59.0481 55.5973 59.1011C55.4684 59.2072 55.2833 59.3615 55.0608 59.5524C54.6145 59.9351 54.0232 60.4603 53.435 61.0354C52.8418 61.6154 52.2754 62.2235 51.8652 62.7724C51.6597 63.0474 51.5121 63.2827 51.4203 63.4717C51.3612 63.5933 51.3403 63.665 51.3331 63.6935C51.3403 63.7221 51.3612 63.7936 51.4202 63.9151C51.512 64.104 51.6595 64.3392 51.865 64.614C52.2753 65.1626 52.8416 65.7702 53.4347 66.3498C54.0229 66.9245 54.6143 67.4493 55.0605 67.8317C55.283 68.0225 55.4681 68.1766 55.597 68.2826C55.6614 68.3356 55.7116 68.3765 55.7454 68.4038L55.7833 68.4344L55.7925 68.4417L55.7945 68.4433C55.7944 68.4433 55.7945 68.4434 55.7945 68.4433C56.211 68.7754 56.3175 69.4375 56.0319 69.9218Z" fill="white"/>
<path fill-rule="evenodd" clip-rule="evenodd" d="M68.2453 57.6008C68.6884 57.9331 68.7782 58.5618 68.4459 59.0049L60.4721 69.6366C60.1397 70.0798 59.5111 70.1696 59.0679 69.8372C58.6248 69.5049 58.535 68.8762 58.8674 68.4331L66.8411 57.8014C67.1735 57.3583 67.8021 57.2684 68.2453 57.6008Z" fill="white"/>
</svg>
