<svg width="60" height="60" viewBox="0 0 60 60" fill="none" xmlns="http://www.w3.org/2000/svg">
<g clip-path="url(#clip0_1_1066)">
<path d="M44 0H16C7.16344 0 0 7.16344 0 16V44C0 52.8366 7.16344 60 16 60H44C52.8366 60 60 52.8366 60 44V16C60 7.16344 52.8366 0 44 0Z" fill="#F7F8FA"/>
<path fill-rule="evenodd" clip-rule="evenodd" d="M30.3794 15C21.8823 15 15 21.8823 15 30.3794C15 37.1848 19.4024 42.9328 25.5157 44.9706C26.2846 45.1052 26.573 44.6438 26.573 44.2401C26.573 43.8748 26.5538 42.6637 26.5538 41.3757C22.6897 42.087 21.69 40.4337 21.3825 39.5686C21.2094 39.1264 20.4597 37.7615 19.8061 37.3963C19.2678 37.1079 18.4988 36.3966 19.7868 36.3774C20.998 36.3582 21.8631 37.4924 22.1514 37.9538C23.5356 40.2799 25.7464 39.6263 26.6307 39.2226C26.7652 38.2229 27.169 37.5501 27.6111 37.1656C24.1892 36.7811 20.6135 35.4546 20.6135 29.572C20.6135 27.8995 21.2094 26.5153 22.1899 25.4388C22.0361 25.0543 21.4978 23.4779 22.3437 21.3632C22.3437 21.3632 23.6317 20.9595 26.573 22.9396C27.8034 22.5936 29.1106 22.4206 30.4179 22.4206C31.7251 22.4206 33.0324 22.5936 34.2627 22.9396C37.204 20.9403 38.492 21.3632 38.492 21.3632C39.3379 23.4779 38.7996 25.0543 38.6458 25.4388C39.6263 26.5153 40.2222 27.8803 40.2222 29.572C40.2222 35.4738 36.6273 36.7811 33.2054 37.1656C33.7629 37.6462 34.2435 38.5689 34.2435 40.0108C34.2435 42.0678 34.2243 43.721 34.2243 44.2401C34.2243 44.6438 34.5126 45.1244 35.2816 44.9706C41.3565 42.9328 45.7588 37.1656 45.7588 30.3794C45.7588 21.8823 38.8765 15 30.3794 15Z" fill="#1B1F23"/>
</g>
<defs>
<clipPath id="clip0_1_1066">
<rect width="60" height="60" fill="white"/>
</clipPath>
</defs>
</svg>
