<svg width="129" height="128" viewBox="0 0 129 128" fill="none" xmlns="http://www.w3.org/2000/svg">
<circle cx="64.5" cy="63" r="40" fill="#00838F"/>
<path fill-rule="evenodd" clip-rule="evenodd" d="M49.5 72.2103C49.5 71.561 50.0264 71.0347 50.6757 71.0347H61.4709C62.1202 71.0347 62.6466 71.561 62.6466 72.2103C62.6466 72.8597 62.1202 73.386 61.4709 73.386H50.6757C50.0264 73.386 49.5 72.8597 49.5 72.2103Z" fill="white"/>
<path fill-rule="evenodd" clip-rule="evenodd" d="M68.4086 67.8343C69.4667 66.7765 71.0191 66.4973 72.7861 66.4973C74.5531 66.4973 76.1055 66.7765 77.1636 67.8343C78.2217 68.8922 78.5013 70.4446 78.5013 72.2126C78.5013 73.9805 78.2217 75.5329 77.1636 76.5908C76.1055 77.6486 74.5531 77.9278 72.7861 77.9278C71.0191 77.9278 69.4667 77.6486 68.4086 76.5908C67.3505 75.5329 67.0709 73.9805 67.0709 72.2126C67.0709 70.4446 67.3505 68.8922 68.4086 67.8343ZM70.0711 69.4972C69.7104 69.8577 69.4222 70.5751 69.4222 72.2126C69.4222 73.85 69.7104 74.5674 70.0711 74.9279C70.4318 75.2886 71.1492 75.5764 72.7861 75.5764C74.423 75.5764 75.1404 75.2886 75.5011 74.9279C75.8618 74.5674 76.15 73.85 76.15 72.2126C76.15 70.5751 75.8618 69.8577 75.5011 69.4972C75.1404 69.1365 74.423 68.8487 72.7861 68.8487C71.1492 68.8487 70.4318 69.1365 70.0711 69.4972Z" fill="white"/>
<path fill-rule="evenodd" clip-rule="evenodd" d="M65.3533 54.7162C65.3533 54.0669 65.8796 53.5405 66.5289 53.5405H77.3227C77.972 53.5405 78.4984 54.0669 78.4984 54.7162C78.4984 55.3655 77.972 55.8919 77.3227 55.8919H66.5289C65.8796 55.8919 65.3533 55.3655 65.3533 54.7162Z" fill="white"/>
<path fill-rule="evenodd" clip-rule="evenodd" d="M50.838 50.3375C51.8961 49.2796 53.4488 49 55.2167 49C56.9841 49 58.5363 49.2797 59.5943 50.3377C60.6523 51.3956 60.932 52.9479 60.932 54.7152C60.932 56.4832 60.6523 58.0356 59.5942 59.0935C58.5361 60.1513 56.9837 60.4305 55.2167 60.4305C53.4491 60.4305 51.8963 60.1513 50.8381 59.0936C49.7796 58.0357 49.5 56.4831 49.5 54.7152C49.5 52.9479 49.7797 51.3955 50.838 50.3375ZM52.5004 52.0004C52.1395 52.3612 51.8514 53.0786 51.8514 54.7152C51.8514 56.3527 52.1396 57.07 52.5003 57.4305C52.8612 57.7912 53.579 58.0791 55.2167 58.0791C56.8536 58.0791 57.571 57.7912 57.9318 57.4306C58.2924 57.07 58.5806 56.3527 58.5806 54.7152C58.5806 53.0786 58.2925 52.3611 57.9317 52.0003C57.5708 51.6395 56.8533 51.3514 55.2167 51.3514C53.5793 51.3514 52.8614 51.6395 52.5004 52.0004Z" fill="white"/>
</svg>
