<svg width="60" height="60" viewBox="0 0 60 60" fill="none" xmlns="http://www.w3.org/2000/svg">
<g clip-path="url(#clip0_1_1080)">
<path d="M44 0H16C7.16344 0 0 7.16344 0 16V44C0 52.8366 7.16344 60 16 60H44C52.8366 60 60 52.8366 60 44V16C60 7.16344 52.8366 0 44 0Z" fill="#F7F8FA"/>
<g clip-path="url(#clip1_1_1080)">
<path d="M15 15H45V45H15V15Z" fill="#F0DB4F"/>
<path d="M42.5447 37.8453C42.3251 36.4765 41.4325 35.3273 38.789 34.255C37.8707 33.833 36.8469 33.5307 36.5418 32.8349C36.4334 32.4299 36.4192 32.2018 36.4876 31.9565C36.6844 31.1609 37.634 30.9128 38.3869 31.1409C38.8717 31.3035 39.3308 31.6771 39.6074 32.2731C40.9021 31.4347 40.8992 31.4404 41.8032 30.8644C41.4724 30.351 41.2956 30.1143 41.0789 29.8948C40.3004 29.025 39.2395 28.5773 37.5428 28.6115C37.249 28.6486 36.9525 28.6885 36.6587 28.7256C35.8118 28.9395 35.0047 29.3843 34.5313 29.9803C33.1112 31.5915 33.5161 34.4119 35.2443 35.5725C36.9467 36.8501 39.4477 37.141 39.7671 38.3358C40.0779 39.7988 38.692 40.2721 37.3146 40.1039C36.2994 39.8929 35.7348 39.3767 35.1245 38.4385C34.001 39.0887 34.001 39.0887 32.846 39.7531C33.1198 40.352 33.4078 40.6229 33.8669 41.1419C36.0399 43.3463 41.4781 43.2379 42.4534 39.9014C42.4933 39.7873 42.7557 39.0231 42.5447 37.8453ZM31.3089 28.7883H28.5028C28.5028 31.2122 28.4915 33.6191 28.4915 36.043C28.4915 37.5858 28.5713 39.0003 28.3204 39.4337C27.9097 40.2864 26.846 40.1809 26.3612 40.0154C25.8679 39.773 25.6169 39.428 25.3261 38.9404C25.2462 38.8006 25.1863 38.6923 25.1663 38.6837C24.405 39.1485 23.6464 39.6162 22.885 40.0811C23.2643 40.8596 23.8232 41.5354 24.539 41.9746C25.6083 42.6162 27.0456 42.813 28.5485 42.4679C29.5266 42.1827 30.3707 41.5925 30.8127 40.6942C31.4515 39.5164 31.3146 38.0906 31.3089 36.5136C31.3232 33.9413 31.3089 31.3691 31.3089 28.7883Z" fill="#323330"/>
</g>
</g>
<defs>
<clipPath id="clip0_1_1080">
<rect width="60" height="60" fill="white"/>
</clipPath>
<clipPath id="clip1_1_1080">
<rect width="30" height="30" fill="white" transform="translate(15 15)"/>
</clipPath>
</defs>
</svg>
