<svg width="97" height="16" viewBox="0 0 97 16" fill="none" xmlns="http://www.w3.org/2000/svg">
<path d="M20.5209 2.77511L20.2836 3.88801C19.4425 3.64488 18.6549 3.52267 17.9233 3.52267C17.1422 3.52267 16.4289 3.65009 15.7821 3.90621C15.1353 4.16103 14.5811 4.52636 14.1168 5.0009C13.6526 5.47545 13.2901 6.0592 13.028 6.75216C12.7659 7.44512 12.6341 8.23039 12.6341 9.10537C12.6341 9.98035 12.7645 10.7656 13.028 11.4586C13.2901 12.1515 13.6565 12.7353 14.126 13.2098C14.5954 13.6844 15.1561 14.0497 15.8095 14.3045C16.4615 14.5594 17.1787 14.6881 17.9598 14.6881C18.7031 14.6881 19.479 14.5724 20.2836 14.3409L20.5209 15.4356C20.0332 15.5565 19.5507 15.645 19.0748 15.6996C18.5988 15.7542 18.1293 15.7815 17.6664 15.7815C16.6049 15.7815 15.6073 15.632 14.675 15.3342C13.7413 15.0365 12.9302 14.6023 12.2416 14.0302C11.5518 13.4582 11.0067 12.76 10.6038 11.9318C10.2008 11.1062 10 10.1637 10 9.10537C10 8.04707 10.1982 7.10449 10.5946 6.27762C10.9911 5.45074 11.5375 4.75128 12.2325 4.17923C12.9276 3.60718 13.7387 3.17294 14.6658 2.87522C15.593 2.57749 16.5867 2.42798 17.6481 2.42798C18.1111 2.42798 18.5844 2.45528 19.0656 2.50989C19.5481 2.56579 20.0332 2.6542 20.5209 2.77511Z" fill="#001236"/>
<path d="M21.735 2.83252H24.8446L29.3874 8.53043L33.3271 2.83252H34.6838L29.8213 9.89887V15.7814H27.3712V9.91733L21.735 2.83252Z" fill="#001236"/>
<path d="M40.2764 2.83252L45.1537 13.1737L49.9923 2.83252H51.2746L45.2119 15.7814H43.618L37.5165 2.83252H40.2764Z" fill="#001236"/>
<path d="M52.0836 1.36104C52.0836 0.975963 52.224 0.6533 52.5048 0.391715C52.7856 0.131458 53.1169 0 53.4999 0C53.8829 0 54.2142 0.13013 54.495 0.391715C54.7758 0.651972 54.9162 0.975963 54.9162 1.36104C54.9162 1.75939 54.7758 2.08737 54.495 2.34895C54.2142 2.60921 53.8829 2.74067 53.4999 2.74067C53.1169 2.74067 52.7856 2.61054 52.5048 2.34895C52.224 2.08737 52.0836 1.75806 52.0836 1.36104ZM52.2554 15.7814V3.67016H54.7417V15.7814H52.2554Z" fill="#001236"/>
<path d="M56.5347 6.0579C56.5347 5.35324 56.7161 4.76949 57.0815 4.30665C57.4456 3.84511 57.9004 3.47327 58.4434 3.19374C58.9876 2.91422 59.5753 2.7166 60.209 2.60089C60.8427 2.48518 61.4278 2.42798 61.9657 2.42798C62.4921 2.42798 62.9635 2.47088 63.3813 2.55539C63.799 2.6412 64.1734 2.7556 64.5017 2.90252C64.83 3.04813 65.1175 3.21325 65.3628 3.39527C65.6081 3.57728 65.8202 3.76059 65.999 3.94261C66.4168 4.39245 66.7158 4.9034 66.8959 5.47545L65.7665 5.85898C65.6707 5.42084 65.4739 5.03211 65.175 4.69148C64.9246 4.39895 64.5477 4.13243 64.0456 3.88931C63.5435 3.64619 62.8498 3.52398 61.9657 3.52398C61.7025 3.52398 61.3984 3.55778 61.0509 3.62409C60.7047 3.69169 60.3789 3.797 60.0736 3.94391C59.7682 4.08952 59.5089 4.28454 59.2943 4.52766C59.0796 4.77078 58.971 5.06851 58.971 5.42214C58.971 5.90839 59.1716 6.30362 59.5715 6.60785C59.9714 6.91207 60.4709 7.1825 61.0688 7.41912C61.6667 7.65574 62.3145 7.89106 63.0133 8.12118C63.7121 8.3526 64.3612 8.63473 64.9578 8.96886C65.5557 9.30299 66.054 9.72033 66.4551 10.2183C66.855 10.7175 67.0556 11.3494 67.0556 12.1151C67.0556 12.8211 66.8729 13.4075 66.5088 13.8755C66.1434 14.3435 65.6899 14.718 65.1469 14.9975C64.6026 15.277 64.0137 15.4785 63.3813 15.5995C62.7476 15.7204 62.1624 15.7815 61.6246 15.7815C61.0982 15.7815 60.6268 15.7386 60.209 15.6541C59.7912 15.5682 59.4169 15.4538 59.0886 15.3069C58.7602 15.1613 58.4728 14.9975 58.2275 14.8142C57.9822 14.6322 57.7701 14.4436 57.5912 14.2486C57.1722 13.8105 56.8745 13.306 56.6944 12.734L57.6449 12.3505C57.7637 12.7886 57.9911 13.1773 58.3258 13.518C58.6005 13.8105 59.0004 14.077 59.5268 14.3201C60.0531 14.5633 60.752 14.6855 61.6246 14.6855C61.8878 14.6855 62.1918 14.6517 62.5393 14.5854C62.8856 14.5191 63.2139 14.4085 63.5256 14.2564C63.8361 14.1043 64.0993 13.9041 64.3139 13.6545C64.5285 13.4049 64.6371 13.1045 64.6371 12.7509C64.6371 12.3856 64.5209 12.0761 64.2871 11.82C64.0545 11.5652 63.7492 11.3364 63.3723 11.1362C62.9954 10.9359 62.5623 10.75 62.073 10.5797C61.5824 10.4094 61.0867 10.2326 60.5846 10.0506C60.0825 9.86854 59.5868 9.66442 59.0962 9.4395C58.6056 9.21458 58.1725 8.94676 57.7969 8.63733C57.42 8.32661 57.116 7.96257 56.8822 7.54263C56.6509 7.12529 56.5347 6.62995 56.5347 6.0579Z" fill="#001236"/>
<path d="M68.2701 1.36104C68.2701 0.975963 68.3905 0.6533 68.6312 0.391715C68.8719 0.131458 69.1558 0 69.4841 0C69.8124 0 70.0963 0.13013 70.337 0.391715C70.5777 0.651972 70.698 0.975963 70.698 1.36104C70.698 1.75939 70.5777 2.08737 70.337 2.34895C70.0963 2.60921 69.8124 2.74067 69.4841 2.74067C69.1558 2.74067 68.8719 2.61054 68.6312 2.34895C68.3905 2.08737 68.2701 1.75806 68.2701 1.36104ZM68.4185 15.7814V3.67016H70.5497V15.7814H68.4185Z" fill="#001236"/>
<path d="M78.5892 2.42798C79.5197 2.42798 80.3708 2.58657 81.1427 2.90247C81.9132 3.21837 82.5742 3.66557 83.1207 4.24277C83.6684 4.81996 84.0952 5.51935 84.4012 6.34094C84.7071 7.16124 84.8607 8.08293 84.8607 9.10472C84.8607 10.1265 84.7071 11.0469 84.4012 11.8685C84.0952 12.6888 83.6646 13.3882 83.1119 13.9667C82.5579 14.5439 81.8981 14.9911 81.1338 15.307C80.3683 15.6229 79.5197 15.7815 78.5892 15.7815C77.6588 15.7815 76.8102 15.6229 76.0447 15.307C75.2791 14.9911 74.6194 14.5439 74.0654 13.9667C73.5114 13.3895 73.082 12.6901 72.7761 11.8685C72.4701 11.0482 72.3165 10.1265 72.3165 9.10472C72.3165 8.08293 72.4689 7.16254 72.7761 6.34094C73.082 5.52065 73.5089 4.82126 74.0566 4.24277C74.6043 3.66557 75.264 3.21837 76.0358 2.90247C76.8077 2.58657 77.6588 2.42798 78.5892 2.42798ZM78.5892 14.6869C79.2138 14.6869 79.7577 14.5478 80.2235 14.267C80.6881 13.9875 81.0747 13.6014 81.3806 13.1087C81.6866 12.616 81.9195 12.0271 82.0782 11.3394C82.2368 10.653 82.3161 9.90811 82.3161 9.10472C82.3161 8.28963 82.2393 7.54213 82.087 6.86094C81.9334 6.17974 81.7004 5.59345 81.3894 5.10076C81.0772 4.60806 80.6881 4.22196 80.2235 3.94246C79.7577 3.66296 79.2138 3.52257 78.5892 3.52257C77.9647 3.52257 77.4196 3.66296 76.955 3.94246C76.4891 4.22196 76.1013 4.60806 75.7891 5.10076C75.4768 5.59345 75.2439 6.17974 75.0915 6.86094C74.9379 7.54213 74.8624 8.28963 74.8624 9.10472C74.8624 9.90681 74.9417 10.6517 75.1003 11.3394C75.259 12.0271 75.4919 12.616 75.7979 13.1087C76.1038 13.6014 76.4929 13.9875 76.9638 14.267C77.4347 14.5465 77.9773 14.6869 78.5892 14.6869Z" fill="#001236"/>
<path d="M87.5599 4.62679V15.7814H86.4789V2.83252H89.2352L95.9188 13.9871V2.83252H96.9998V15.7814H94.2434L87.5599 4.62679Z" fill="#001236"/>
<rect y="6" width="6" height="6" fill="#001236"/>
</svg>
