<svg width="60" height="60" viewBox="0 0 60 60" fill="none" xmlns="http://www.w3.org/2000/svg">
<g clip-path="url(#clip0_1_1072)">
<path d="M44 0H16C7.16344 0 0 7.16344 0 16V44C0 52.8366 7.16344 60 16 60H44C52.8366 60 60 52.8366 60 44V16C60 7.16344 52.8366 0 44 0Z" fill="#F7F8FA"/>
<path d="M28.5555 14.1705C29.3197 13.722 30.3151 13.72 31.0787 14.1705C34.92 16.3956 38.7625 18.6173 42.6032 20.8438C43.3256 21.261 43.8088 22.0851 43.8014 22.9384V36.3259C43.8068 37.2145 43.2758 38.0584 42.5137 38.4661C38.685 40.679 34.8583 42.8946 31.0302 45.1075C30.2502 45.5647 29.2349 45.5295 28.4792 45.0348C27.3314 44.3526 26.1816 43.6739 25.0336 42.9924C24.7991 42.849 24.5346 42.7349 24.369 42.5017C24.5154 42.2994 24.7772 42.2742 24.9899 42.1859C25.4691 42.0297 25.9091 41.779 26.3493 41.5357C26.4606 41.4576 26.5965 41.4875 26.7032 41.5574C27.6847 42.1343 28.6576 42.728 29.6424 43.2995C29.8525 43.4238 30.0653 43.2587 30.2449 43.1561C34.002 40.9792 37.7637 38.8105 41.5202 36.633C41.6594 36.5643 41.7363 36.4129 41.725 36.2566C41.7277 31.8403 41.7257 27.4233 41.7263 23.0071C41.7423 22.8297 41.6422 22.6667 41.4857 22.5941C37.6703 20.3913 33.8569 18.1852 30.0421 15.9818C29.976 15.9353 29.8977 15.9103 29.8175 15.9102C29.7373 15.91 29.6589 15.9348 29.5927 15.9812C25.778 18.1852 21.9652 20.3934 18.1504 22.596C17.9945 22.6687 17.8899 22.8291 17.9085 23.0071C17.9091 27.4233 17.9085 31.8403 17.9085 36.2572C17.9019 36.3335 17.9182 36.41 17.9553 36.4765C17.9924 36.5429 18.0485 36.5961 18.1159 36.6289C19.1339 37.2207 20.1532 37.8084 21.1719 38.3981C21.7458 38.7148 22.4504 38.9029 23.0826 38.6603C23.6406 38.4552 24.0317 37.8715 24.021 37.2642C24.0263 32.8737 24.0184 28.4826 24.025 24.0928C24.011 23.8979 24.1914 23.7368 24.3762 23.7552C24.8654 23.7518 25.3551 23.7484 25.8443 23.7565C26.0484 23.7518 26.1889 23.9617 26.1637 24.158C26.1617 28.5763 26.169 32.9947 26.1604 37.4129C26.1617 38.5904 25.6898 39.8717 24.6274 40.4478C23.3185 41.1429 21.7007 40.9955 20.4077 40.329C19.2883 39.7562 18.22 39.0803 17.1205 38.4667C16.3564 38.0612 15.8281 37.214 15.8334 36.326V22.9384C15.8254 22.0675 16.3278 21.2283 17.0727 20.8173C20.9008 18.6026 24.7281 16.3862 28.5555 14.1705Z" fill="#3DE322"/>
<path d="M31.8969 23.4441C33.5664 23.334 35.3538 23.3789 36.8562 24.2221C38.0194 24.8682 38.6643 26.2243 38.6848 27.5491C38.6523 27.7278 38.4701 27.8264 38.3037 27.8141C37.8193 27.8135 37.3348 27.8209 36.8503 27.8108C36.6449 27.8189 36.5254 27.6246 36.4996 27.4384C36.3605 26.8045 36.0232 26.1767 35.4413 25.871C34.5479 25.4124 33.512 25.4355 32.5378 25.445C31.8266 25.4838 31.0619 25.5469 30.4593 25.9756C29.9968 26.3004 29.8563 26.956 30.0214 27.484C30.177 27.8631 30.6039 27.9854 30.9532 28.0982C32.9652 28.6376 35.0974 28.5839 37.071 29.2939C37.8881 29.5833 38.6874 30.146 38.9671 31.023C39.333 32.1985 39.1726 33.6036 38.3568 34.5472C37.6952 35.3238 36.7317 35.7465 35.7707 35.976C34.4922 36.2683 33.1654 36.2757 31.8671 36.146C30.6463 36.0033 29.3758 35.6745 28.4334 34.8217C27.6274 34.1043 27.2338 32.9866 27.2729 31.9077C27.2822 31.7256 27.4592 31.5985 27.6294 31.6135C28.1172 31.6094 28.605 31.6081 29.0928 31.6142C29.2877 31.5999 29.4321 31.7725 29.4421 31.9607C29.5321 32.5647 29.7535 33.1986 30.2672 33.5566C31.2587 34.2124 32.5027 34.1675 33.6379 34.1858C34.5784 34.143 35.6341 34.1301 36.4016 33.4928C36.8066 33.1294 36.9265 32.5213 36.8171 31.9981C36.6985 31.5564 36.2478 31.3506 35.8608 31.216C33.8745 30.5719 31.7186 30.8056 29.7516 30.0772C28.953 29.7879 28.1808 29.2409 27.874 28.3999C27.4459 27.2095 27.642 25.7372 28.5433 24.8253C29.4221 23.9184 30.6907 23.5691 31.8969 23.444V23.4441Z" fill="#3DE322"/>
</g>
<defs>
<clipPath id="clip0_1_1072">
<rect width="60" height="60" fill="white"/>
</clipPath>
</defs>
</svg>
