<svg width="30" height="30" viewBox="0 0 30 30" fill="none" xmlns="http://www.w3.org/2000/svg">
<path d="M9.20626 25.092C9.18449 25.0535 9.16508 25.0138 9.14814 24.973C9.03122 24.7022 8.99529 24.4033 9.0447 24.1125H2.11975L12.4111 6.00154L15.7898 11.941L16.7692 10.2077L13.824 5.01933C13.6828 4.7536 13.4773 4.52749 13.2263 4.36166C12.9752 4.19583 12.6866 4.09558 12.3868 4.07007C12.0876 4.08367 11.7983 4.18096 11.5516 4.35088C11.305 4.52079 11.111 4.75652 10.9917 5.03123L0.565869 23.3619C0.410027 23.6207 0.320173 23.9138 0.304211 24.2155C0.288249 24.5172 0.346668 24.8182 0.47433 25.092C0.634665 25.3448 0.86256 25.5478 1.13223 25.6778C1.40191 25.8079 1.7026 25.8599 2.00029 25.8279H10.7327C10.4349 25.8604 10.1341 25.8086 9.86431 25.6785C9.59454 25.5484 9.3667 25.3452 9.20672 25.092H9.20626Z" fill="#00C492"/>
<path d="M29.2829 23.3615L20.7153 8.26988C20.5748 8.00133 20.3689 7.77251 20.1166 7.60453C19.8643 7.43654 19.5737 7.33481 19.2718 7.30872C18.9729 7.32167 18.6838 7.41836 18.4373 7.58774C18.1908 7.75712 17.9968 7.99238 17.8776 8.26667L16.7695 10.2073L17.7554 11.941L19.2809 9.24019L27.757 24.1121H24.5339C24.5751 24.3579 24.5519 24.6102 24.4666 24.8444C24.4486 24.8962 24.4261 24.9463 24.3993 24.9941L24.3719 25.049C24.1968 25.2963 23.9634 25.4967 23.6925 25.6324C23.4216 25.7681 23.1214 25.8349 22.8184 25.8271H27.8604C28.1634 25.8352 28.4637 25.7684 28.7346 25.6327C29.0056 25.497 29.2389 25.2965 29.4138 25.049C29.5519 24.7836 29.6128 24.4848 29.5897 24.1865C29.5666 23.8882 29.4603 23.6024 29.2829 23.3615Z" fill="#008776"/>
<path d="M24.3726 25.0496L24.4 24.9947C24.4267 24.9468 24.449 24.8968 24.4669 24.845C24.5521 24.6108 24.5753 24.3585 24.5341 24.1127C24.4866 23.8476 24.3913 23.5932 24.2531 23.3621L17.7621 11.9412L16.7702 10.2079L15.7844 11.9412L9.29563 23.3621C9.16967 23.596 9.08497 23.85 9.04527 24.1127C8.99303 24.4028 9.02594 24.7018 9.14001 24.9736C9.15693 25.0144 9.17634 25.0542 9.19814 25.0926C9.35853 25.3454 9.58645 25.5482 9.85612 25.6782C10.1258 25.8082 10.4264 25.8601 10.7241 25.8281H22.8095C23.1139 25.8371 23.4158 25.7708 23.6884 25.6351C23.961 25.4993 24.1959 25.2984 24.3721 25.05L24.3726 25.0496ZM16.7698 13.6749L22.7029 24.1122H10.8394L16.7698 13.6749Z" fill="#2D4A5D"/>
</svg>
