<svg width="60" height="60" viewBox="0 0 60 60" fill="none" xmlns="http://www.w3.org/2000/svg">
<g clip-path="url(#clip0_1_1040)">
<path d="M44 0H16C7.16344 0 0 7.16344 0 16V44C0 52.8366 7.16344 60 16 60H44C52.8366 60 60 52.8366 60 44V16C60 7.16344 52.8366 0 44 0Z" fill="#F7F8FA"/>
<g clip-path="url(#clip1_1_1040)">
<path d="M41.889 20.6896C40.0856 18.3543 37.6301 16.6062 34.8331 15.6665C32.0362 14.7268 29.0233 14.6377 26.1757 15.4103C23.3281 16.183 20.7735 17.7828 18.8352 20.0074C16.8968 22.232 15.6617 24.9814 15.286 27.908C14.9104 30.8346 15.411 33.8069 16.7247 36.4489C18.0383 39.0909 20.106 41.284 22.6662 42.7509C25.2263 44.2177 28.164 44.8924 31.1076 44.6896C34.0512 44.4868 36.8686 43.4156 39.2034 41.6114C45.7205 36.5749 46.9232 27.209 41.8885 20.6896H41.889Z" fill="#FF6C37"/>
<path d="M35.1089 24.3959L28.8188 30.7359L27.0413 28.9085C33.2321 22.7177 33.8535 23.2771 35.1094 24.3959H35.1089Z" fill="white"/>
<path d="M28.824 30.9102C28.7683 30.9088 28.7151 30.8867 28.6748 30.8482L26.8847 29.0581C26.8444 29.0164 26.8219 28.9606 26.8219 28.9026C26.8219 28.8446 26.8444 28.7889 26.8847 28.7471C32.9884 22.6435 33.8214 22.9293 35.2633 24.2346C35.2875 24.2539 35.3068 24.2786 35.3197 24.3066C35.3327 24.3347 35.3389 24.3654 35.3379 24.3963C35.3472 24.4569 35.3239 24.5189 35.2759 24.5581L28.9858 30.8487C28.9417 30.8891 28.8839 30.9113 28.824 30.9107V30.9102ZM27.357 28.9089L28.824 30.376L34.7911 24.4089C34.585 24.1507 34.2911 23.9775 33.9654 23.9225C33.6397 23.8674 33.3051 23.9344 33.0257 24.1106C31.9441 24.5954 30.2039 26.0746 27.357 28.9089Z" fill="#FF6C37"/>
<path d="M30.6207 32.4877L28.9052 30.7349L35.1953 24.519C36.8861 26.1725 34.3748 28.9322 30.6207 32.4872V32.4877Z" fill="white"/>
<path d="M30.623 32.713C30.5679 32.7087 30.5157 32.6869 30.4738 32.651L28.721 30.9355C28.6947 30.8717 28.6947 30.8002 28.721 30.7364C28.7023 30.6841 28.7023 30.627 28.721 30.5747L35.0111 24.2846C35.0548 24.2435 35.1126 24.2206 35.1726 24.2206C35.2326 24.2206 35.2904 24.2435 35.3342 24.2846C35.5379 24.4721 35.6988 24.7012 35.806 24.9564C35.9133 25.2117 35.9643 25.487 35.9556 25.7637C35.9556 27.442 34.041 29.5552 30.7843 32.6384C30.7407 32.6815 30.6835 32.7079 30.6225 32.713H30.623ZM29.2305 30.7364L30.6351 32.1406C33.1212 29.791 35.4959 27.3669 35.508 25.726C35.5216 25.3781 35.4066 25.0374 35.185 24.7689L29.2305 30.7364Z" fill="#FF6C37"/>
<path d="M27.0895 28.9438L28.3328 30.1871C28.3407 30.194 28.3471 30.2027 28.3514 30.2123C28.3558 30.2219 28.358 30.2324 28.358 30.243C28.358 30.2536 28.3558 30.264 28.3514 30.2737C28.3471 30.2833 28.3407 30.2919 28.3328 30.2989L25.7096 30.8583C25.6567 30.8698 25.6015 30.8636 25.5523 30.8407C25.5032 30.8178 25.4629 30.7796 25.4376 30.7317C25.4123 30.6838 25.4033 30.629 25.412 30.5755C25.4207 30.522 25.4466 30.4729 25.4859 30.4355L27.0149 28.9191C27.0149 28.9191 27.0648 28.9191 27.0895 28.9438Z" fill="white"/>
<path d="M25.6558 31.111C25.5729 31.1099 25.4917 31.0877 25.4199 31.0463C25.348 31.0049 25.288 30.9458 25.2456 30.8746C25.1978 30.7845 25.1804 30.6813 25.1961 30.5804C25.2118 30.4796 25.2598 30.3866 25.3327 30.3152L26.8493 28.7862C26.9039 28.7373 26.9747 28.7103 27.0481 28.7103C27.1214 28.7103 27.1922 28.7373 27.2469 28.7862L28.4902 30.0295C28.5639 30.0994 28.5928 30.2052 28.5648 30.3031C28.5369 30.401 28.4548 30.4789 28.3537 30.5022L25.7304 31.0616L25.6558 31.111ZM27.0483 29.2216L25.6437 30.6262L27.9686 30.1288L27.0483 29.2216Z" fill="#FF6C37"/>
<path d="M38.4468 20.9013C37.5471 20.0333 36.1337 19.997 35.1902 20.816C34.2466 21.6351 34.0853 23.0411 34.82 24.0526C35.5547 25.0642 36.9397 25.3477 38.0119 24.7053L36.3211 23.0145L38.4468 20.9013Z" fill="white"/>
<path d="M36.7729 25.2794C36.256 25.2728 35.7525 25.1142 35.3251 24.8234C34.8977 24.5326 34.5653 24.1225 34.3693 23.6441C34.1735 23.1661 34.1222 22.6412 34.2216 22.1342C34.321 21.6273 34.5669 21.1607 34.9287 20.7921C35.4264 20.3035 36.096 20.0298 36.7934 20.0298C37.4908 20.0298 38.1604 20.3035 38.6581 20.7921C38.7056 20.8322 38.7327 20.8914 38.7327 20.9538C38.7326 20.9846 38.7259 21.0149 38.713 21.0428C38.7001 21.0707 38.6814 21.0955 38.6581 21.1156L36.6442 23.0176L38.1733 24.5219C38.1981 24.5456 38.2167 24.5749 38.2275 24.6074C38.2383 24.6399 38.241 24.6746 38.2353 24.7084C38.2316 24.741 38.2208 24.7724 38.2036 24.8003C38.1865 24.8283 38.1634 24.8521 38.136 24.8701C37.7252 25.1269 37.253 25.2686 36.7687 25.2804L36.7729 25.2794ZM36.7729 20.456C35.8872 20.4606 35.0947 20.9934 34.7623 21.8079C34.4299 22.6223 34.6108 23.5597 35.2317 24.1853C35.5406 24.496 35.9361 24.7061 36.3664 24.7882C36.7967 24.8703 37.2417 24.8206 37.6432 24.6454L36.1762 23.1784C36.1529 23.1598 36.1341 23.1361 36.1211 23.1092C36.1082 23.0823 36.1015 23.0528 36.1015 23.0229C36.1015 22.9931 36.1082 22.9636 36.1211 22.9367C36.1341 22.9098 36.1529 22.8861 36.1762 22.8675L38.1155 20.9156C37.73 20.6202 37.2586 20.4586 36.7729 20.4555V20.456Z" fill="#FF6C37"/>
<path d="M38.4929 20.9387L36.3672 23.0519L38.0579 24.7427C38.2281 24.645 38.3865 24.5282 38.5302 24.3945C38.9733 23.9261 39.2171 23.3038 39.2101 22.659C39.2032 22.0142 38.946 21.3974 38.4929 20.9387Z" fill="white"/>
<path d="M38.0093 24.9291C37.9814 24.9306 37.9535 24.9258 37.9276 24.9151C37.9018 24.9043 37.8787 24.8879 37.8601 24.8671L36.1693 23.1762C36.146 23.1576 36.1271 23.1339 36.1142 23.107C36.1013 23.0801 36.0945 23.0506 36.0945 23.0208C36.0945 22.9909 36.1013 22.9614 36.1142 22.9345C36.1271 22.9076 36.146 22.884 36.1693 22.8653L38.2825 20.7894C38.3029 20.7586 38.3306 20.7334 38.3631 20.7159C38.3957 20.6985 38.432 20.6893 38.4689 20.6893C38.5059 20.6893 38.5422 20.6985 38.5747 20.7159C38.6073 20.7334 38.635 20.7586 38.6554 20.7894C38.9035 21.0325 39.1006 21.3226 39.2351 21.6428C39.3697 21.963 39.439 22.3068 39.439 22.6541C39.439 23.0014 39.3697 23.3453 39.2351 23.6655C39.1006 23.9856 38.9035 24.2758 38.6554 24.5188C38.5091 24.6741 38.3416 24.8079 38.158 24.9165C38.1118 24.9398 38.0583 24.9443 38.0088 24.9291H38.0093ZM36.642 23.0149L38.0466 24.4195C38.1432 24.3518 38.2347 24.277 38.3202 24.1958C38.7331 23.784 38.9657 23.2251 38.9668 22.642C38.9678 22.1201 38.7775 21.616 38.4321 21.2248L36.642 23.0149Z" fill="#FF6C37"/>
<path d="M35.379 24.6536C35.2106 24.4955 34.9884 24.4075 34.7574 24.4075C34.5264 24.4075 34.3041 24.4955 34.1357 24.6536L28.5048 30.2721L29.4371 31.217L35.3916 25.9958C35.4824 25.9087 35.5544 25.804 35.6033 25.6881C35.6521 25.5722 35.6767 25.4475 35.6755 25.3217C35.6743 25.196 35.6474 25.0717 35.5964 24.9568C35.5454 24.8418 35.4714 24.7385 35.379 24.6531V24.6536Z" fill="white"/>
<path d="M29.3805 31.4436C29.3247 31.4422 29.2715 31.4201 29.2313 31.3816L28.2863 30.4366C28.246 30.3949 28.2235 30.3391 28.2235 30.2811C28.2235 30.2231 28.246 30.1674 28.2863 30.1257L33.9177 24.5189C34.0799 24.3569 34.2871 24.2474 34.5123 24.2045C34.7375 24.1616 34.9704 24.1874 35.1808 24.2785C35.3911 24.3696 35.5693 24.5218 35.6921 24.7154C35.8149 24.909 35.8768 25.135 35.8696 25.3641C35.8632 25.5196 35.8257 25.6723 35.7595 25.8132C35.6933 25.9541 35.5997 26.0803 35.4841 26.1846L29.5296 31.4058C29.4863 31.4365 29.4331 31.4498 29.3805 31.4431V31.4436ZM28.7217 30.2744L29.3432 30.9084L35.1857 25.8238C35.3303 25.6979 35.4165 25.5179 35.4221 25.3263C35.4277 25.1347 35.3522 24.9473 35.2109 24.8168C35.0805 24.6869 34.9039 24.614 34.7198 24.614C34.5357 24.614 34.3591 24.6869 34.2287 24.8168L28.7217 30.2744Z" fill="#FF6C37"/>
<path d="M24.1334 36.6775C24.1175 36.6991 24.1089 36.7253 24.1089 36.7521C24.1089 36.779 24.1175 36.8051 24.1334 36.8267L24.3819 37.9082C24.3918 37.9719 24.3824 38.0371 24.3548 38.0953C24.3272 38.1535 24.2827 38.202 24.2271 38.2346C24.1717 38.267 24.1075 38.2809 24.0437 38.2745C23.9798 38.268 23.9197 38.2415 23.8719 38.1987L22.1689 36.5577L27.4773 31.2074H29.3173L30.5606 32.4507C28.6212 34.1464 26.4587 35.5685 24.1334 36.6775Z" fill="white"/>
<path d="M24.017 38.5034C23.8763 38.5006 23.7373 38.4428 23.6441 38.3417L22.0157 36.7133C21.9924 36.6947 21.9736 36.671 21.9606 36.6441C21.9477 36.6172 21.941 36.5877 21.941 36.5579C21.941 36.528 21.9477 36.4985 21.9606 36.4716C21.9736 36.4447 21.9924 36.4211 22.0157 36.4024L27.3609 31.0448C27.3909 31.013 27.43 30.9913 27.4728 30.9828H29.325C29.3732 30.9657 29.4259 30.9657 29.4741 30.9828L30.7174 32.226C30.7411 32.2478 30.7591 32.275 30.7699 32.3053C30.7807 32.3356 30.784 32.3681 30.7794 32.3999C30.7803 32.4308 30.774 32.4615 30.7611 32.4895C30.7482 32.5176 30.7289 32.5423 30.7049 32.5617L30.6056 32.6488C28.6583 34.2722 26.5159 35.646 24.2282 36.7385L24.4646 37.7454C24.4828 37.8231 24.4835 37.9039 24.4666 37.9819C24.4497 38.0599 24.4156 38.1331 24.3668 38.1962C24.3179 38.2593 24.2556 38.3107 24.1844 38.3467C24.1132 38.3827 24.0348 38.4023 23.955 38.4041L24.017 38.5034ZM22.5006 36.5516L23.9672 38.0307C23.9808 38.0429 23.9985 38.0497 24.0168 38.0497C24.0351 38.0497 24.0528 38.0429 24.0665 38.0307C24.0756 38.018 24.0805 38.0028 24.0805 37.9871C24.0805 37.9715 24.0756 37.9563 24.0665 37.9436L23.818 36.8621C23.7984 36.7844 23.8063 36.7024 23.8403 36.63C23.8742 36.5575 23.9323 36.499 24.0045 36.4644C26.2307 35.3865 28.3178 34.0424 30.22 32.4614L29.2005 31.4419H27.5348L22.5006 36.5516Z" fill="#FF6C37"/>
<path d="M20.8901 37.831L22.1334 36.5877L24.048 38.5023L21.0025 38.2911C20.9502 38.287 20.9005 38.2665 20.8606 38.2325C20.8207 38.1985 20.7925 38.1527 20.7801 38.1018C20.7677 38.0508 20.7717 37.9972 20.7915 37.9487C20.8114 37.9002 20.8461 37.8591 20.8906 37.8314L20.8901 37.831Z" fill="white"/>
<path d="M24.0867 38.6909L21.0534 38.4797C20.8734 38.4629 20.7187 38.3399 20.6553 38.1753C20.5919 38.0108 20.6306 37.8154 20.755 37.684L21.9983 36.4408C22.04 36.4005 22.0957 36.3779 22.1538 36.3779C22.2118 36.3779 22.2675 36.4005 22.3092 36.4408L24.2112 38.3427C24.2375 38.3787 24.2517 38.4222 24.2517 38.4669C24.2517 38.5115 24.2375 38.555 24.2112 38.5911C24.1824 38.6376 24.1384 38.6727 24.0867 38.6904V38.6909ZM21.0534 37.9949L23.5394 38.1567L22.1722 36.8761L21.0534 37.9949Z" fill="#FF6C37"/>
<path d="M29.4982 31.3571L26.9868 31.7427L28.4413 30.3007L29.4982 31.3571Z" fill="white"/>
<path d="M26.9901 31.9768C26.9484 31.9779 26.9072 31.9666 26.8718 31.9445C26.8364 31.9224 26.8083 31.8903 26.7911 31.8523C26.7646 31.8163 26.7503 31.7728 26.7503 31.7281C26.7503 31.6834 26.7646 31.6399 26.7911 31.6038L28.233 30.1494C28.2767 30.1083 28.3345 30.0854 28.3945 30.0854C28.4545 30.0854 28.5123 30.1083 28.556 30.1494L29.6133 31.2057C29.6344 31.2392 29.6456 31.278 29.6456 31.3176C29.6456 31.3572 29.6344 31.396 29.6133 31.4295C29.6029 31.4703 29.581 31.5073 29.5502 31.536C29.5194 31.5647 29.4809 31.5839 29.4394 31.5913L26.9533 31.9768H26.9901ZM28.4446 30.6216L27.6367 31.4295L29.0292 31.2183L28.4446 30.6216Z" fill="#FF6C37"/>
<path d="M29.4851 31.3563L27.7322 31.5801C27.6853 31.5907 27.6362 31.586 27.5922 31.5665C27.5482 31.5471 27.5116 31.5139 27.4879 31.4721C27.4642 31.4302 27.4546 31.3818 27.4606 31.3341C27.4665 31.2864 27.4877 31.2418 27.521 31.2071L28.4287 30.2993L29.4851 31.3563Z" fill="white"/>
<path d="M27.6795 31.8151C27.5983 31.8143 27.5187 31.7921 27.4488 31.7506C27.379 31.709 27.3214 31.6498 27.2819 31.5788C27.2344 31.4937 27.216 31.3954 27.2295 31.2989C27.2429 31.2024 27.2875 31.1129 27.3565 31.0441L28.2641 30.1364C28.3078 30.0953 28.3656 30.0724 28.4256 30.0724C28.4857 30.0724 28.5434 30.0953 28.5872 30.1364L29.644 31.1932C29.6754 31.223 29.6975 31.2613 29.7076 31.3034C29.7178 31.3455 29.7155 31.3896 29.701 31.4304C29.6865 31.4712 29.6606 31.507 29.6262 31.5333C29.5918 31.5596 29.5506 31.5754 29.5074 31.5788L27.7672 31.8025L27.6795 31.8151ZM27.6795 31.355L28.9974 31.1932L28.4133 30.6091L27.6674 31.355H27.6795ZM38.4948 22.3671C38.4714 22.3278 38.4344 22.2986 38.3908 22.2848C38.3472 22.2711 38.3001 22.2738 38.2584 22.2925C38.2379 22.3029 38.2196 22.3174 38.2047 22.335C38.1898 22.3526 38.1786 22.373 38.1717 22.395C38.1579 22.4395 38.1623 22.4876 38.1839 22.5288C38.271 22.712 38.2468 22.9288 38.1219 23.0883C38.1063 23.1036 38.0942 23.122 38.0862 23.1423C38.0781 23.1626 38.0744 23.1844 38.0752 23.2062C38.0757 23.2499 38.0923 23.2919 38.1219 23.3241C38.1538 23.3367 38.1893 23.3367 38.2212 23.3241C38.2501 23.3314 38.2805 23.3306 38.309 23.3218C38.3375 23.313 38.3631 23.2966 38.3829 23.2743C38.4853 23.1489 38.5501 22.9972 38.5699 22.8366C38.5897 22.676 38.5637 22.513 38.4948 22.3666V22.3671Z" fill="#FF6C37"/>
</g>
</g>
<defs>
<clipPath id="clip0_1_1040">
<rect width="60" height="60" fill="white"/>
</clipPath>
<clipPath id="clip1_1_1040">
<rect width="30" height="30" fill="white" transform="translate(15 15)"/>
</clipPath>
</defs>
</svg>
