<svg width="25" height="25" viewBox="0 0 25 25" fill="none" xmlns="http://www.w3.org/2000/svg">
<path d="M8.7298 19.361H8.2298C4.2298 19.361 2.2298 18.361 2.2298 13.361V8.36096C2.2298 4.36096 4.2298 2.36096 8.2298 2.36096H16.2298C20.2298 2.36096 22.2298 4.36096 22.2298 8.36096V13.361C22.2298 17.361 20.2298 19.361 16.2298 19.361H15.7298C15.4198 19.361 15.1198 19.511 14.9298 19.761L13.4298 21.761C12.7698 22.641 11.6898 22.641 11.0298 21.761L9.5298 19.761C9.3698 19.541 8.9998 19.361 8.7298 19.361Z" stroke="black" stroke-opacity="0.6" stroke-width="1.5" stroke-miterlimit="10" stroke-linecap="round" stroke-linejoin="round"/>
<path d="M16.2263 11.361H16.2352" stroke="black" stroke-opacity="0.6" stroke-width="2" stroke-linecap="round" stroke-linejoin="round"/>
<path d="M12.2253 11.361H12.2343" stroke="black" stroke-opacity="0.6" stroke-width="2" stroke-linecap="round" stroke-linejoin="round"/>
<path d="M8.2243 11.361H8.23329" stroke="black" stroke-opacity="0.6" stroke-width="2" stroke-linecap="round" stroke-linejoin="round"/>
</svg>
