<svg width="29" height="28" viewBox="0 0 29 28" fill="none" xmlns="http://www.w3.org/2000/svg">
<path d="M20.5268 2.33334H10.9955C10.5339 2.33334 10.0954 2.49668 9.73766 2.77668L7.21056 4.81835C6.19511 5.63502 6.19511 7.18666 7.21056 8.00333L9.73766 10.045C10.0954 10.3367 10.5454 10.4883 10.9955 10.4883H20.5268C21.6461 10.4883 22.5462 9.57833 22.5462 8.44666V4.36333C22.5462 3.24333 21.6461 2.33334 20.5268 2.33334Z" stroke="#3C63EC" stroke-width="1.5" stroke-linecap="round" stroke-linejoin="round"/>
<path d="M8.50292 14H18.0343C18.4959 14 18.9344 14.1633 19.2921 14.4433L21.8192 16.485C22.8347 17.3017 22.8347 18.8533 21.8192 19.67L19.2921 21.7116C18.9344 22.0033 18.4844 22.155 18.0343 22.155H8.50292C7.38361 22.155 6.48355 21.245 6.48355 20.1133V16.03C6.48355 14.91 7.38361 14 8.50292 14Z" stroke="#3C63EC" stroke-width="1.5" stroke-linecap="round" stroke-linejoin="round"/>
<path d="M14.5033 14V10.5" stroke="#3C63EC" stroke-width="1.5" stroke-linecap="round" stroke-linejoin="round"/>
<path d="M14.5033 25.6667V22.1667" stroke="#3C63EC" stroke-width="1.5" stroke-linecap="round" stroke-linejoin="round"/>
<path d="M11.0416 25.6667H17.9651" stroke="#3C63EC" stroke-width="1.5" stroke-linecap="round" stroke-linejoin="round"/>
</svg>
