<svg width="81" height="80" viewBox="0 0 81 80" fill="none" xmlns="http://www.w3.org/2000/svg">
<rect x="0.746094" width="80" height="80" rx="12" fill="#EAFFEE"/>
<path d="M35.7461 56.6667H45.7461C54.0795 56.6667 57.4128 53.3334 57.4128 45V35C57.4128 26.6667 54.0795 23.3334 45.7461 23.3334H35.7461C27.4128 23.3334 24.0795 26.6667 24.0795 35V45C24.0795 53.3334 27.4128 56.6667 35.7461 56.6667Z" stroke="#537015" stroke-width="2" stroke-linecap="round" stroke-linejoin="round"/>
<path d="M46.5795 36.25C47.9602 36.25 49.0795 35.1307 49.0795 33.75C49.0795 32.3693 47.9602 31.25 46.5795 31.25C45.1988 31.25 44.0795 32.3693 44.0795 33.75C44.0795 35.1307 45.1988 36.25 46.5795 36.25Z" stroke="#537015" stroke-width="2" stroke-miterlimit="10" stroke-linecap="round" stroke-linejoin="round"/>
<path d="M34.9127 36.25C36.2934 36.25 37.4127 35.1307 37.4127 33.75C37.4127 32.3693 36.2934 31.25 34.9127 31.25C33.532 31.25 32.4127 32.3693 32.4127 33.75C32.4127 35.1307 33.532 36.25 34.9127 36.25Z" stroke="#537015" stroke-width="2" stroke-miterlimit="10" stroke-linecap="round" stroke-linejoin="round"/>
<path d="M34.7461 42.1666H46.7461C47.5794 42.1666 48.2461 42.8333 48.2461 43.6666C48.2461 47.8166 44.8961 51.1666 40.7461 51.1666C36.5961 51.1666 33.2461 47.8166 33.2461 43.6666C33.2461 42.8333 33.9128 42.1666 34.7461 42.1666Z" stroke="#537015" stroke-width="2" stroke-miterlimit="10" stroke-linecap="round" stroke-linejoin="round"/>
</svg>
